<?xml version="1.0" encoding="utf-8"?>
<!-- Generator: Adobe Illustrator 18.0.0, SVG Export Plug-In . SVG Version: 6.00 Build 0)  -->
<!DOCTYPE svg PUBLIC "-//W3C//DTD SVG 1.1//EN" "http://www.w3.org/Graphics/SVG/1.1/DTD/svg11.dtd">
<svg version="1.1" id="Layer_2" xmlns="http://www.w3.org/2000/svg" xmlns:xlink="http://www.w3.org/1999/xlink" x="0px" y="0px"
	 viewBox="0 0 1284.1 406.4" enable-background="new 0 0 1284.1 406.4" xml:space="preserve">
<g id="XMLID_1_">
	<g>
		<path fill="#00387D" d="M684.9,24.6h8.8v2.8h12v18.5l40.8-40.8L786,44.8V11.9h85.9v27.8h3.2v-2.3l24-24l8.7,8.7v-8.1h7.9v15.7
			L931,45l-5.2,5.2v2.4h21.7l7.2-12.8l7.1,12.8h18.2v-6.2h6.5v6.2h5v-7.8l-6.2-6.2l36.4-36.4l31,31v-7.6h14.4v-8h0.1
			c0.3-1.3,1.7-2.3,3.4-2.3c1.7,0,3.2,1,3.4,2.3h0.1v8h66.5v6l31.4-31.4l9.2,9.2V1.4h9.1v17l15.4,15.4l13.5-13.5h53.1l11.7,11.7
			v374.2H0.2V228.8V69.5v-0.8h640V27.5h44.7V24.6z"/>
	</g>
	<g>
	</g>
</g>
</svg>
