<?xml version="1.0" standalone="no"?>
<!DOCTYPE svg PUBLIC "-//W3C//DTD SVG 1.1//EN" "http://www.w3.org/Graphics/SVG/1.1/DTD/svg11.dtd" >
<svg>
<metadata>
Created by FontForge 20110222 at Mon Sep 29 04:15:28 2014
 By deploy user
Copyright 1988-1991 Adobe Systems Inc.
</metadata>
<defs>
<font id="Utopia-Italic" horiz-adv-x="1085" >
  <font-face 
    font-family="Utopia"
    font-weight="400"
    font-style="italic"
    font-stretch="normal"
    units-per-em="2048"
    panose-1="2 2 5 0 0 0 0 0 0 0"
    ascent="1638"
    descent="-410"
    x-height="1003"
    cap-height="1417"
    bbox="-340 -496 2468 1824.89"
    underline-thickness="102"
    underline-position="-154"
    slope="-104"
    unicode-range="U+0020-F002"
  />
<missing-glyph horiz-adv-x="0" 
 />
    <glyph glyph-name=".notdef" horiz-adv-x="0" 
 />
    <glyph glyph-name="glyph1" horiz-adv-x="0" 
 />
    <glyph glyph-name="equal" unicode=" " horiz-adv-x="461" 
 />
    <glyph glyph-name="uni00A0" unicode="&#xa0;" horiz-adv-x="461" 
 />
    <glyph glyph-name="greater" unicode="!" horiz-adv-x="491" 
d="M565 1448q-78 0 -106 -35q-31 -37 -39 -94l-113 -891h58l286 881q25 63 10 100q-12 39 -96 39v0zM258 -25q129 5 133 142q0 47 -29 82q-30 32 -88 32q-59 0 -94 -36q-39 -37 -39 -103q0 -49 33 -82q29 -33 84 -35v0z" />
    <glyph glyph-name="question" unicode="&#x22;" horiz-adv-x="823" 
d="M991 1413q21 55 2 82q-20 25 -86 25q-57 0 -82 -25q-26 -27 -30 -82l-25 -453h57zM643 1413q21 55 2 82q-20 25 -86 25q-57 0 -82 -25q-26 -27 -31 -82l-24 -453h57z" />
    <glyph glyph-name="at" unicode="#" 
d="M547 571l94 269h270l-94 -269h-270zM1112 473l31 98h-211l94 269h213l31 98h-209l149 430h-112l-152 -430h-270l149 430h-114l-152 -430h-215l-35 -98h215l-94 -269h-213l-35 -98h213l-166 -473h117l166 473h270l-166 -473h115l166 473h215z" />
    <glyph glyph-name="A" unicode="$" 
d="M684 825v0q-78 39 -121 88q-49 47 -49 136q0 116 78 182q76 65 203 65zM930 1522h-82l-37 -154q-201 2 -328 -98q-131 -103 -133 -283q-2 -104 68 -186q35 -43 90 -80q55 -39 135 -74l-131 -571q-59 6 -119 55q-59 47 -104 168q-13 47 -58 49q-34 0 -63 -26
q-29 -29 -33 -76q2 -88 101 -156q98 -70 262 -86l-52 -227h86l48 223q231 0 362 111q133 108 135 288q-2 158 -92 248q-43 45 -98 82q-60 35 -125 61l117 502q120 -16 165 -184q9 -53 58 -53q37 0 65 26q31 23 33 66q0 90 -88 149q-90 58 -217 68zM719 610v0
q182 -82 182 -264q-2 -127 -84 -201q-82 -75 -219 -73z" />
    <glyph glyph-name="B" unicode="%" horiz-adv-x="1692" 
d="M1421 664q80 -3 103 -58q20 -53 18 -106q0 -90 -47 -267q-27 -79 -74 -135q-22 -26 -53 -43q-31 -18 -68 -18q-82 2 -106 59q-25 53 -23 105q0 96 60 270q16 39 35 76q18 35 43 59q45 55 112 58v0zM1423 725q-112 -2 -190 -47q-78 -47 -127 -123q-49 -74 -70 -156
q-22 -82 -22 -151q0 -49 16 -96q14 -48 47 -89q66 -86 221 -88q117 2 195 52q78 49 123 120q47 76 67 156q17 78 17 141q0 121 -66 201q-67 78 -211 80v0zM410 -51l1239 1439l-62 50v0l-51 -52q-80 -86 -174 -94h-367q-37 0 -57 8q-21 7 -37 19q-29 26 -84 49
q-55 22 -135 25q-113 -3 -191 -48q-77 -47 -126 -122q-50 -74 -70 -156q-23 -82 -23 -152q0 -49 17 -96q14 -47 47 -88q65 -86 221 -88q117 0 195 51q77 49 122 121q48 76 68 156q16 78 16 141q0 59 -10 111h442l-1044 -1217l64 -57v0zM680 1331q80 -2 102 -57
q21 -53 19 -107q0 -90 -47 -266q-27 -80 -74 -135q-23 -27 -53 -43q-31 -19 -68 -19q-82 3 -106 60q-25 53 -23 104q0 97 59 271q17 39 35 75q19 35 43 60q45 55 113 57v0z" />
    <glyph glyph-name="C" unicode="&#x26;" horiz-adv-x="1485" 
d="M659 1073q2 119 60 184q53 64 123 64q80 -2 114 -51q33 -52 33 -115q-2 -117 -78 -201q-73 -84 -178 -133v0q-16 29 -29 60q-14 30 -24 65q-21 68 -21 127v0zM854 1393q-145 0 -248 -101q-108 -100 -110 -282q0 -56 22 -125q19 -74 49 -129q-55 -25 -119 -58
q-63 -37 -120 -86q-56 -47 -95 -114q-38 -70 -38 -166q0 -137 98 -244q94 -108 293 -113q219 -2 434 179v0q74 -72 164 -113q90 -43 209 -51l102 -4l8 51q-113 26 -203 100q-92 72 -159 135q243 217 340 404q12 24 22 49q6 25 10 47q4 49 -18 115q-74 8 -158 -33
q-6 -117 -59 -254q-53 -135 -182 -274v0q-215 235 -332 442q158 59 270 139q53 43 84 96q31 56 31 127q-2 129 -86 197q-86 66 -209 66v0zM389 352q0 80 27 142q24 61 59 102q35 43 70 68q35 22 55 30q150 -254 373 -491q-58 -54 -135 -88q-78 -39 -168 -39q-129 2 -205 88
q-76 82 -76 188v0z" />
    <glyph glyph-name="Ucircumflex" unicode="&#x2019;" horiz-adv-x="442" 
d="M334 987v0q96 76 186 174t94 227q0 50 -28 93q-29 39 -84 39q-47 -3 -76 -31q-33 -29 -33 -72q2 -41 25 -78q10 -20 16 -41q6 -24 4 -55q-6 -55 -45 -113q-39 -55 -92 -108z" />
    <glyph glyph-name="E" unicode="(" horiz-adv-x="717" 
d="M1010 1417q-260 4 -430 -215q-172 -217 -252 -586q-78 -364 4 -610q39 -117 112 -186q72 -72 176 -82l13 47q-41 12 -88 66q-47 53 -82 153q-33 102 -35 258q-2 154 45 365q92 376 238 551q143 172 288 188z" />
    <glyph glyph-name="F" unicode=")" horiz-adv-x="717" 
d="M-23 -262q263 -4 435 217q168 219 247 584q78 368 0 612q-39 119 -112 190q-74 70 -180 76l-13 -51q45 -8 94 -59q48 -56 80 -156q33 -100 35 -254q-2 -154 -49 -369q-90 -376 -233 -548q-146 -175 -293 -195z" />
    <glyph glyph-name="G" unicode="*" horiz-adv-x="844" 
d="M473 1309q-18 20 -41 18q-24 -4 -53 -43q-23 -31 -17 -57q3 -29 39 -45l176 -64q21 -6 21 -16q0 -13 -18 -21l-246 -84q-68 -24 -35 -94q37 -76 109 -18l172 145q24 19 32 10q6 -8 -4 -28l-90 -201q-14 -35 0 -57q12 -25 59 -25q82 -2 82 68l-4 215q0 18 11 28
q10 9 24 -10l129 -145q45 -49 94 14q27 35 27 63q-2 25 -31 35l-196 80q-33 17 14 37l244 80q63 18 24 94q-37 66 -92 23l-186 -146q-41 -26 -27 19l90 198q27 64 -57 66q-88 0 -84 -64l4 -200q-2 -41 -31 -19z" />
    <glyph glyph-name="H" unicode="+" horiz-adv-x="1167" 
d="M190 453h426v-453h140v453h426v118h-426v432h-140v-432h-426v-118z" />
    <glyph glyph-name="I" unicode="," horiz-adv-x="543" 
d="M129 -274v0q102 79 199 184q94 104 98 242q0 53 -29 96q-30 43 -90 43q-49 -2 -82 -31q-33 -33 -33 -78q3 -45 25 -82q12 -20 19 -45q6 -24 4 -57q-7 -61 -48 -121q-40 -59 -98 -115z" />
    <glyph glyph-name="J" unicode="-" horiz-adv-x="803" 
d="M268 586l-28 -144h501l29 144h-502z" />
    <glyph glyph-name="uni00AD" unicode="&#xad;" horiz-adv-x="803" 
d="M268 586l-28 -144h501l29 144h-502z" />
    <glyph glyph-name="K" unicode="." horiz-adv-x="543" 
d="M285 -25q129 5 133 142q0 47 -29 82q-31 32 -88 32q-59 0 -94 -36q-39 -37 -39 -103q0 -49 33 -82q28 -33 84 -35v0z" />
    <glyph glyph-name="L" unicode="/" horiz-adv-x="553" 
d="M217 -31l553 1479h-145l-553 -1479h145z" />
    <glyph glyph-name="M" unicode="0" 
d="M379 332q-2 213 104 577q56 178 142 293q84 117 190 119q104 -2 145 -80q21 -37 29 -90q6 -53 6 -115q2 -155 -92 -545q-47 -178 -125 -307q-78 -135 -207 -137q-84 0 -137 66q-55 67 -55 219v0zM813 1393q-156 -3 -270 -95q-117 -94 -199 -249q-147 -287 -149 -631
q-3 -172 81 -303q84 -135 295 -140q318 7 467 355q78 161 111 331q31 168 31 283q0 70 -11 148q-10 75 -49 143q-35 69 -108 115q-76 40 -199 43v0z" />
    <glyph glyph-name="N" unicode="1" 
d="M223 0h662l12 59l-182 11q-25 2 -37 20q-14 14 -6 57l278 1233l-16 13l-420 -72l-16 -49l198 -21q41 -8 25 -67l-232 -1037q-14 -71 -67 -73l-186 -15z" />
    <glyph glyph-name="O" unicode="2" 
d="M928 0l110 256l-61 12q-49 -71 -86 -94q-37 -25 -103 -22h-512q48 98 154 192q102 92 277 193q192 104 327 219q137 112 139 301q-2 172 -110 254q-111 82 -283 82q-200 -5 -317 -105q-121 -96 -121 -192q0 -43 35 -70q31 -29 65 -29q29 0 43 17q13 16 17 35
q106 274 274 272q64 0 103 -21q38 -22 57 -57q20 -33 29 -74q4 -43 4 -84q2 -274 -424 -544q-228 -158 -334 -279q-105 -123 -143 -242l22 -20h838z" />
    <glyph glyph-name="P" unicode="3" 
d="M637 717q67 0 113 -27q43 -26 65 -67q25 -41 33 -84q6 -43 6 -82q0 -115 -29 -195q-30 -78 -78 -127q-47 -45 -100 -67q-53 -21 -104 -21q-197 -4 -267 229q-14 64 -61 64q-37 0 -70 -29q-34 -30 -34 -84q0 -80 104 -161q104 -86 322 -91q210 0 368 113t162 348
q0 84 -27 141q-24 60 -69 97q-92 76 -189 86v6q60 6 125 27q64 18 117 55q117 76 121 239q0 93 -35 152t-92 92q-123 64 -254 62q-176 -3 -287 -80q-117 -76 -119 -168q0 -45 33 -70q31 -24 57 -24q41 -2 64 55q76 211 242 215q61 0 100 -21q39 -22 57 -53q21 -33 29 -67
q4 -37 4 -70q-2 -131 -82 -221q-80 -92 -207 -94q-69 0 -118 12q-52 10 -80 10q-19 -2 -31 -24q-14 -23 -14 -52q-2 -43 39 -45q22 0 71 13q25 4 55 6q29 2 60 2v0z" />
    <glyph glyph-name="Q" unicode="4" 
d="M1094 383l20 94h-201l187 891h-140q-428 -444 -823 -946l19 -39h563l-51 -246q-7 -37 -25 -51t-45 -16l-152 -11l-16 -59h541l14 59l-102 7q-60 0 -41 71l51 246h201zM309 477q271 369 576 701l4 -5l-150 -696h-430z" />
    <glyph glyph-name="R" unicode="5" 
d="M489 1368l-20 -16l-150 -682l50 -25q108 133 270 135q115 0 180 -82q64 -82 64 -227q-2 -192 -101 -305q-96 -119 -227 -119q-96 0 -164 53q-69 52 -104 176q-15 58 -58 60q-41 0 -73 -33q-35 -31 -35 -82q0 -86 104 -162q105 -79 316 -84q241 5 397 152q156 143 158 369
q-9 372 -389 378q-152 -2 -275 -94l-4 4l111 383q8 33 26 43q15 6 39 6h508l86 129l-10 23h-699z" />
    <glyph glyph-name="S" unicode="6" 
d="M608 -25q258 7 383 170q125 158 125 344q0 164 -90 269q-92 102 -272 102q-103 0 -193 -51q-92 -51 -149 -117h-4q63 301 174 465q112 162 258 164q155 -2 192 -186q6 -58 60 -58q36 0 73 27q33 24 35 67q2 66 -74 142q-39 34 -106 57q-70 23 -174 23q-234 0 -410 -195
q-241 -295 -250 -774q-2 -182 93 -311q94 -133 329 -138v0zM692 760q107 0 166 -70t59 -184q-2 -221 -94 -340t-217 -119q-74 0 -119 33q-45 29 -69 74q-25 47 -33 96q-8 51 -8 94q6 410 315 416v0z" />
    <glyph glyph-name="T" unicode="7" 
d="M424 1368l-86 -283h61l33 54q23 36 62 59q36 18 114 18h494q-45 -141 -299 -432q-252 -286 -346 -454q-95 -170 -92 -279q0 -74 98 -76q55 0 82 19q12 8 20 26q6 15 8 39q39 228 113 383q70 154 180 285q142 168 248 301q107 131 186 317l-16 23h-860z" />
    <glyph glyph-name="U" unicode="8" 
d="M672 702q225 -4 229 -249q0 -168 -74 -283q-75 -121 -221 -123q-241 4 -244 262q0 164 89 277q81 114 221 116v0zM793 1393q-168 0 -295 -91q-131 -92 -133 -278q0 -100 51 -164q47 -63 116 -94v-8q-147 -17 -253 -129q-111 -115 -113 -303q0 -138 102 -242
q105 -104 330 -109q252 2 377 131q123 125 123 318q-2 141 -74 223q-70 80 -141 100v7q112 20 196 102q86 80 88 229q0 54 -16 109q-21 53 -64 98q-41 47 -114 74q-74 27 -180 27v0zM801 1321q96 -2 141 -55q43 -56 43 -131q-2 -154 -72 -252q-69 -101 -178 -103
q-102 2 -145 62q-45 55 -43 135q0 112 59 225q31 53 80 86t115 33v0z" />
    <glyph glyph-name="V" unicode="9" 
d="M635 545q182 2 315 147h4q-22 -186 -123 -409q-49 -107 -118 -170q-70 -66 -168 -66q-74 0 -125 47q-53 49 -84 156q-12 59 -60 61q-32 0 -65 -28q-35 -31 -35 -86q0 -74 96 -144q95 -73 267 -78q262 2 411 201q201 254 219 696q6 232 -94 375t-332 146
q-190 -3 -325 -129q-144 -132 -146 -365q2 -162 107 -256q98 -98 256 -98v0zM717 647q-142 2 -199 86q-57 82 -55 193q2 196 84 297q80 98 192 98q142 -2 191 -111q47 -108 45 -270q0 -133 -70 -213q-69 -80 -188 -80v0z" />
    <glyph glyph-name="W" unicode=":" horiz-adv-x="543" 
d="M285 -25q129 5 133 142q0 47 -29 82q-31 32 -88 32q-59 0 -94 -36q-39 -37 -39 -103q0 -49 33 -82q28 -33 84 -35v0zM446 747q129 3 134 142q0 47 -29 82q-31 32 -88 32q-60 0 -94 -36q-39 -37 -39 -103q0 -49 32 -82q29 -35 84 -35v0z" />
    <glyph glyph-name="X" unicode=";" horiz-adv-x="543" 
d="M129 -274v0q102 79 199 184q94 104 98 242q0 53 -29 96q-30 43 -90 43q-49 -2 -82 -31q-33 -33 -33 -78q3 -45 25 -82q12 -20 19 -45q6 -24 4 -57q-7 -61 -48 -121q-40 -59 -98 -115zM446 747q129 3 134 142q0 47 -29 82q-31 32 -88 32q-60 0 -94 -36q-39 -37 -39 -103
q0 -49 32 -82q29 -35 84 -35v0z" />
    <glyph glyph-name="Y" unicode="&#x3c;" horiz-adv-x="1167" 
d="M1155 2v137l-858 369l858 368v142v0l-979 -428v-166l979 -422v0z" />
    <glyph glyph-name="Z" unicode="=" horiz-adv-x="1167" 
d="M190 797v-119h992v119h-992zM190 346v-119h992v119h-992z" />
    <glyph glyph-name="bracketleft" unicode="&#x3e;" horiz-adv-x="1167" 
d="M176 2v0l979 422v166l-979 428v0v-142l858 -368l-858 -369v-137z" />
    <glyph glyph-name="backslash" unicode="?" horiz-adv-x="870" 
d="M684 1448q-86 0 -150 -23q-65 -24 -108 -61q-90 -78 -90 -150q0 -43 33 -65q30 -25 57 -25q51 0 63 39q33 88 84 150q50 61 121 63q64 -2 94 -43q27 -41 27 -106q4 -207 -274 -391q-213 -115 -213 -252q2 -95 69 -136q31 -20 68 -30q39 -10 76 -10q53 0 110 20
q56 18 90 43l-12 35q-35 -6 -88 -6q-51 0 -90 28q-41 27 -41 90q0 80 70 138q63 57 163 106q121 60 193 129q69 72 69 197q-6 252 -321 260v0zM424 -25q129 5 133 142q0 47 -29 82q-30 32 -88 32q-59 0 -94 -36q-39 -37 -39 -103q0 -49 33 -82q29 -33 84 -35v0z" />
    <glyph glyph-name="bracketright" unicode="@" horiz-adv-x="1626" 
d="M852 448q-70 0 -70 105q0 115 97 289q47 80 110 135q64 53 143 55q56 0 97 -29q-33 -157 -148 -348q-53 -88 -112 -145q-29 -27 -58 -43q-30 -19 -59 -19v0zM1251 1081l-8 -16q-49 27 -113 27q-135 -3 -233 -66q-98 -68 -160 -162q-61 -94 -92 -186q-31 -94 -31 -156
q0 -96 45 -131q43 -37 91 -39q59 0 118 29q58 29 107 74q104 94 149 180l4 -2q-49 -160 -14 -221q35 -62 129 -60q186 2 322 146q135 137 139 350q-2 256 -166 426q-166 170 -461 174q-327 -2 -569 -217q-250 -217 -256 -611q6 -329 223 -489q209 -162 475 -162q99 0 211 21
q113 20 209 71l-16 52v0q-154 -64 -346 -64q-172 0 -285 55q-117 54 -184 142q-66 88 -97 188q-30 100 -30 195q2 293 182 510q88 104 211 163q123 60 276 62q226 -2 373 -135q147 -137 147 -391q-2 -162 -88 -283q-41 -55 -90 -90q-51 -35 -104 -35q-43 -2 -64 25
q-22 26 -6 98l135 528h-133z" />
    <glyph glyph-name="asciicircum" unicode="A" horiz-adv-x="1278" 
d="M1335 0l12 59l-77 7q-45 4 -60 30q-16 27 -22 88l-152 1233h-145l-344 -604q-197 -350 -350 -610q-48 -78 -82 -103q-35 -28 -82 -32l-68 -9l-12 -59h461l12 59l-113 11q-57 8 -26 75q100 197 211 402h458l47 -398q7 -40 -6 -59q-14 -18 -45 -20l-108 -11l-13 -59h504z
M946 625h-407q163 305 331 602h4z" />
    <glyph glyph-name="underscore" unicode="B" horiz-adv-x="1294" 
d="M627 799l108 475q8 45 37 59q27 12 125 12q266 -4 268 -229q-4 -156 -121 -242q-110 -75 -284 -75h-133zM692 727q160 2 268 -57q111 -62 113 -234q0 -141 -88 -248q-92 -114 -297 -116q-74 0 -117 12q-43 10 -61 25q-16 18 -19 43q-2 22 5 51l116 524h80zM78 0h622
q187 0 305 43q115 41 179 106q63 66 88 140q22 71 22 135q0 84 -24 141q-29 60 -72 99q-94 77 -213 98l2 6q205 29 297 125q90 96 90 215q0 162 -129 242q-67 43 -162 57q-96 14 -209 10h-493l-12 -59l120 -13q70 0 43 -98l-241 -1077q-8 -49 -29 -70q-20 -22 -57 -28
l-115 -13z" />
    <glyph glyph-name="grave" unicode="C" horiz-adv-x="1354" 
d="M1329 381q-78 -156 -180 -246q-103 -94 -289 -94q-180 0 -291 117q-114 116 -116 352q0 303 147 575q154 283 483 291q367 -2 334 -344h62l73 307q-90 56 -215 84q-127 25 -237 25q-287 -4 -463 -113q-176 -110 -264 -260q-82 -137 -111 -270t-29 -242q0 -102 31 -205
q31 -104 101 -192q71 -88 196 -141q125 -54 313 -56q111 0 215 21q103 18 201 65l100 326h-61z" />
    <glyph glyph-name="a" unicode="D" horiz-adv-x="1563" 
d="M960 1345q160 -4 254 -51q95 -47 140 -119q45 -71 59 -147q10 -78 10 -141q0 -267 -133 -496q-84 -145 -231 -231q-150 -88 -402 -88q-84 -2 -133 20q-47 19 -35 84l248 1094q8 51 53 65q43 10 170 10v0zM82 0h629q305 0 495 102q191 101 299 269q86 135 115 256
q22 120 22 215q0 127 -43 239q-43 113 -133 189q-184 147 -530 147h-551l-12 -59l121 -11q67 -2 43 -100l-244 -1077q-8 -47 -27 -72q-20 -24 -57 -26l-115 -13z" />
    <glyph glyph-name="b" unicode="E" horiz-adv-x="1221" 
d="M381 1417l-14 -59l122 -8q70 0 45 -99l-245 -1081q-10 -51 -29 -72q-18 -24 -55 -26l-115 -13l-12 -59h1069l104 360h-61q-72 -182 -168 -237q-96 -53 -281 -51q-75 0 -141 6q-63 6 -88 20q-23 17 -23 51q-2 33 13 101l104 448h268q68 0 107 -6q39 -8 55 -31
q29 -38 17 -139h61l94 428h-61q-17 -51 -35 -84t-45 -55q-47 -37 -176 -35h-268l116 510q8 37 21 49q12 10 37 10h247q99 0 150 -14q51 -18 72 -51q20 -33 22 -82q0 -51 -10 -123h61l78 342h-1036z" />
    <glyph glyph-name="c" unicode="F" horiz-adv-x="1169" 
d="M381 1417l-12 -59l120 -13q70 -4 45 -92l-245 -1089q-8 -45 -27 -68q-20 -24 -57 -26l-115 -11l-12 -59h596l12 59l-154 11q-36 2 -45 26q-12 23 -2 68l115 506h270q68 0 107 -6q39 -9 55 -31q29 -39 17 -139h61l94 430h-61q-17 -52 -35 -86q-19 -33 -45 -56
q-47 -37 -176 -35h-271l123 537q8 39 23 51q10 10 37 10h252q98 0 149 -14t72 -49q20 -33 22 -82q0 -53 -10 -121h61l78 338h-1042z" />
    <glyph glyph-name="d" unicode="G" horiz-adv-x="1452" 
d="M1571 1345q-195 103 -459 103q-469 -6 -684 -295q-100 -131 -145 -281q-50 -149 -50 -288q5 -316 175 -463q186 -152 477 -152q241 4 434 78l96 414q12 53 27 78q12 24 37 26l90 8l12 60h-539l-12 -60l154 -14q30 -2 41 -22q10 -21 -7 -76l-75 -309q-4 -43 -51 -76
q-48 -35 -203 -35q-189 0 -305 131q-123 129 -125 397q0 125 35 267q32 141 108 262q78 123 203 200q125 76 305 78q113 0 182 -29q68 -28 101 -79q34 -50 43 -111q8 -61 0 -131h61z" />
    <glyph glyph-name="e" unicode="H" horiz-adv-x="1587" 
d="M627 776l108 471q12 51 33 76q18 22 53 24l113 11l14 59h-561l-14 -59l121 -8q69 -5 45 -103l-246 -1077q-10 -51 -29 -72q-20 -24 -57 -26l-113 -13l-12 -59h561l12 59l-121 9q-69 4 -45 102l119 528h684l-121 -528q-10 -51 -28 -72q-21 -24 -58 -26l-112 -13l-13 -59
h562l12 59l-121 9q-72 4 -45 102l246 1077q12 51 32 76q19 22 54 24l112 11l15 59h-561l-15 -59l121 -8q70 -5 45 -103l-106 -471h-684z" />
    <glyph glyph-name="f" unicode="I" horiz-adv-x="707" 
d="M643 0l12 59l-121 9q-69 6 -45 102l246 1077q10 49 31 74q18 24 55 26l113 11l14 59h-561l-14 -59l121 -8q36 -5 47 -29q10 -27 -2 -74l-246 -1077q-17 -94 -86 -98l-113 -13l-12 -59h561z" />
    <glyph glyph-name="g" unicode="J" horiz-adv-x="721" 
d="M401 1417l-14 -59l121 -11q72 -2 47 -94l-223 -958q-68 -291 -164 -381q-102 -90 -256 -102v-52q35 -4 68 -4q73 0 163 21q90 18 154 59q74 51 129 144q53 92 86 243l240 1030q16 92 86 97l112 8l15 59h-564z" />
    <glyph glyph-name="h" unicode="K" horiz-adv-x="1331" 
d="M387 1417l-14 -59l121 -8q36 -5 47 -29q10 -27 -2 -74l-246 -1077q-17 -94 -86 -98l-113 -13l-12 -59h561l12 59l-121 9q-69 6 -45 102l129 569h5q137 -301 319 -567q72 -96 152 -137q77 -41 192 -43l100 -2l15 59q-82 10 -135 49q-52 41 -105 109q-219 295 -362 602
q268 231 542 426q82 61 150 90q65 27 182 33l8 59h-510l-8 -59l78 -6q59 -9 -2 -68q-293 -262 -610 -526l-4 4l110 485q10 49 31 74q18 24 55 26l113 11l14 59h-561z" />
    <glyph glyph-name="i" unicode="L" horiz-adv-x="1157" 
d="M1130 0l105 360h-62q-71 -182 -163 -237q-95 -53 -265 -51q-75 0 -141 6q-63 6 -88 20q-22 17 -22 51q-3 33 12 101l227 997q12 51 33 76q18 24 55 27l123 8l14 59h-571l-14 -59l121 -11q69 -2 45 -100l-246 -1077q-10 -51 -29 -72q-20 -24 -57 -26l-113 -13l-12 -59
h1048z" />
    <glyph glyph-name="j" unicode="M" horiz-adv-x="1884" 
d="M547 0l10 59l-80 7q-49 4 -72 24q-24 19 -22 64q8 96 43 254l188 833h4l246 -1216h58l796 1216h6l-252 -1071q-10 -51 -28 -72q-21 -24 -58 -26l-112 -13l-13 -59h557l13 59l-121 13q-70 4 -45 98l246 1077q12 51 32 76q19 24 54 27l112 8l15 59h-402
q-164 -276 -354 -561l-363 -553h-6l-114 567q-64 275 -117 547h-397l-15 -59l121 -13q70 -2 45 -98l-192 -839q-35 -158 -72 -254q-18 -48 -45 -66q-31 -16 -76 -22l-63 -7l-11 -59h484z" />
    <glyph glyph-name="k" unicode="N" horiz-adv-x="1563" 
d="M371 1417l-15 -59l121 -13q70 -2 45 -98l-192 -839q-35 -158 -72 -254q-18 -48 -45 -66q-31 -16 -76 -22l-63 -7l-11 -59h484l10 59l-80 7q-49 4 -72 24q-24 19 -22 64q8 96 43 254l192 839h7q288 -622 569 -1247h133l229 1010q37 157 72 254q18 47 49 67q27 19 72 21
l63 6l11 59h-484l-10 -59l80 -8q51 -5 76 -19q24 -16 18 -67q-8 -97 -43 -254l-168 -742h-8q-264 576 -524 1149h-389z" />
    <glyph glyph-name="l" unicode="O" horiz-adv-x="1542" 
d="M1032 1376q361 2 369 -422q0 -86 -15 -213q-18 -127 -82 -290q-59 -168 -174 -285q-116 -123 -315 -125q-358 0 -367 430q-4 260 127 561q72 152 185 246q110 96 272 98v0zM1024 1448q-244 -2 -401 -115q-160 -108 -248 -262q-82 -143 -111 -278q-33 -138 -31 -240
q0 -256 150 -418q147 -164 450 -166q271 4 422 121q154 113 232 268q82 156 106 291q23 137 23 199q-4 313 -168 459q-164 141 -424 141v0z" />
    <glyph glyph-name="m" unicode="P" horiz-adv-x="1257" 
d="M664 0l12 59l-142 13q-69 4 -45 98l93 403h151q270 -4 455 97q205 131 207 370q-5 213 -166 303q-152 76 -363 74h-479l-14 -59l121 -11q69 -2 45 -100l-246 -1077q-10 -51 -29 -72q-20 -24 -57 -26l-113 -13l-12 -59h582zM741 1274q9 39 33 57q25 14 98 14
q306 -2 308 -268q-7 -434 -441 -432q-100 0 -119 21q-16 18 -4 65z" />
    <glyph glyph-name="n" unicode="Q" horiz-adv-x="1542" 
d="M1032 1376q361 2 369 -422q0 -86 -15 -213q-18 -127 -82 -290q-59 -168 -174 -285q-116 -123 -315 -125q-358 0 -367 430q-4 260 127 561q72 152 185 246q110 96 272 98v0zM1024 1448q-244 -2 -401 -115q-160 -108 -248 -262q-82 -143 -111 -278q-33 -138 -31 -240
q0 -231 121 -385q119 -156 365 -191q74 -137 211 -258q170 -133 348 -135q90 2 153 33l-6 35q-100 2 -178 45q-82 41 -153 117q-95 98 -136 163q211 35 334 140q123 106 195 241q82 156 106 291q23 137 23 199q-4 313 -168 459q-164 141 -424 141v0z" />
    <glyph glyph-name="o" unicode="R" horiz-adv-x="1311" 
d="M387 1417l-14 -59l121 -11q69 -2 45 -100l-246 -1077q-10 -51 -29 -72q-20 -24 -57 -26l-113 -13l-12 -59h561l12 59l-121 11q-71 2 -45 100l113 498h123q53 0 92 -4q41 -7 64 -23q53 -31 65 -100q8 -58 6 -162q-2 -105 8 -221q17 -158 207 -158h160l18 59
q-131 13 -163 72q-31 55 -29 217q4 64 0 119t-23 102q-16 47 -55 82q-39 33 -110 51v5q190 28 305 129q114 100 116 251q0 56 -12 115q-16 57 -65 107q-45 49 -134 79q-92 29 -235 29h-553zM618 739l121 529q8 45 37 63q29 14 139 14q105 0 179 -51q75 -53 77 -186
q-6 -369 -421 -369h-132z" />
    <glyph glyph-name="p" unicode="S" horiz-adv-x="1092" 
d="M1108 1057l74 286q-68 54 -168 80q-25 6 -49 13q-25 4 -50 6q-51 6 -100 6q-131 -2 -221 -37q-92 -37 -148 -100q-53 -60 -77 -131q-25 -72 -25 -138q0 -141 88 -227q41 -43 94 -78q54 -37 115 -67q61 -31 111 -62q49 -33 81 -71q70 -78 70 -199q0 -113 -76 -201
q-80 -94 -233 -96q-146 0 -244 104q-100 103 -96 306h-59l-54 -314q66 -80 191 -123q123 -43 237 -45q150 4 250 45q103 37 160 103q59 65 86 145q22 78 22 160q0 262 -307 407q-43 25 -90 52q-45 24 -86 57q-39 35 -61 78q-27 43 -27 100q0 113 76 186q76 72 209 74
q291 -2 248 -319h59z" />
    <glyph glyph-name="q" unicode="T" horiz-adv-x="1241" 
d="M942 0l14 59l-149 9q-80 4 -53 98l266 1179h129q94 0 149 -14q52 -18 72 -51t23 -82q0 -51 -11 -123h62l78 342h-1164l-77 -342h61q45 154 121 215q74 57 219 55h141l-266 -1179q-8 -45 -29 -70q-24 -24 -69 -28l-133 -9l-15 -59h631z" />
    <glyph glyph-name="r" unicode="U" horiz-adv-x="1626" 
d="M383 1417l-14 -59l120 -11q70 -2 45 -100l-172 -723q-65 -301 72 -430q135 -127 406 -125q106 0 204 19q99 20 183 73q86 56 153 162q66 107 107 283l174 741q12 51 33 76q18 22 53 24l112 11l15 59h-561l-15 -59l121 -11q70 -2 45 -100l-166 -715q-41 -208 -139 -346
q-98 -143 -309 -145q-174 -2 -258 113q-84 112 -23 397l162 696q12 51 33 76q18 24 53 27l113 8l14 59h-561z" />
    <glyph glyph-name="s" unicode="V" horiz-adv-x="1304" 
d="M279 1417l-11 -59l82 -11q37 -2 53 -22q19 -21 23 -74q37 -284 76 -596l86 -655h141l416 707q209 356 340 561q30 51 71 69q37 17 115 21l10 59h-450l-10 -59l112 -11q29 -2 37 -14q6 -14 -12 -49q-60 -129 -314 -569l-292 -510h-5l-71 545q-37 272 -62 528q-4 31 4 49
q5 16 31 18l131 13l10 59h-511z" />
    <glyph glyph-name="t" unicode="W" horiz-adv-x="1937" 
d="M260 1417l-12 -59l90 -11q61 0 59 -86l90 -1261h144l561 1128h10l107 -1128h143l356 731q187 379 256 504q39 72 74 94q35 23 125 29l10 59h-459l-10 -59l133 -15q25 -2 29 -18q2 -18 -10 -51q-47 -121 -234 -510l-245 -514h-9l-104 1130h-143l-555 -1130h-11l-67 1030
q-2 37 10 51q8 14 33 14l133 13l14 59h-518z" />
    <glyph glyph-name="u" unicode="X" horiz-adv-x="1294" 
d="M508 0l12 59l-117 13q-59 8 -28 57q143 203 379 496h8q108 -248 205 -482q30 -67 -35 -73l-107 -11l-10 -59h553l12 59q-96 7 -139 25t-72 80q-102 225 -276 620q256 305 475 514q33 29 76 43q43 13 121 17l12 59h-471l-12 -59l88 -8q59 -9 18 -64q-119 -158 -340 -418
h-4q-86 205 -168 408q-29 69 35 74l106 8l13 59h-533l-12 -59q90 -4 131 -19q37 -16 59 -69q103 -238 234 -555q-273 -332 -483 -566q-46 -49 -91 -65t-137 -25l-12 -59h510z" />
    <glyph glyph-name="v" unicode="Y" horiz-adv-x="1210" 
d="M281 1417l-13 -59q94 -4 125 -21q31 -14 45 -73q103 -310 201 -652q16 -47 0 -108l-78 -344q-10 -82 -84 -86l-147 -15l-13 -59h635l13 59l-156 13q-70 4 -47 88l78 346q12 43 28 74q13 28 29 49q270 389 471 624q51 60 92 82q41 19 123 23l12 59h-469l-12 -59l107 -8
q61 -5 30 -60q-153 -254 -432 -631h-6l-186 629q-17 55 39 59l112 11l12 59h-509z" />
    <glyph glyph-name="w" unicode="Z" horiz-adv-x="1274" 
d="M461 1417l-76 -346h61q60 174 138 227q77 49 241 47h400q-586 -651 -1194 -1318l8 -27h1169l105 360h-62q-71 -182 -178 -237q-106 -53 -342 -51h-416q588 651 1196 1318l-10 27h-1040z" />
    <glyph glyph-name="x" unicode="[" horiz-adv-x="676" 
d="M594 1417l-381 -1679h326l10 55q-131 6 -158 29q-14 12 -16 33q-2 18 4 51l307 1343q10 66 51 88q39 21 172 25l10 55h-325z" />
    <glyph glyph-name="y" unicode="\" horiz-adv-x="799" 
d="M686 -31h145l-432 1479h-145z" />
    <glyph glyph-name="z" unicode="]" horiz-adv-x="676" 
d="M410 1417l-11 -55q70 -2 109 -6q39 -6 53 -19q29 -22 8 -88l-307 -1343q-10 -66 -47 -84q-41 -23 -176 -29l-10 -55h325l381 1679h-325z" />
    <glyph glyph-name="braceleft" unicode="^" horiz-adv-x="1167" 
d="M1192 467l-391 901h-158l-401 -901h155l324 751v0l315 -751h156z" />
    <glyph glyph-name="bar" unicode="_" horiz-adv-x="1024" 
d="M1024 -154h-1024v-102h1024v102z" />
    <glyph glyph-name="Uacute" unicode="&#x2018;" horiz-adv-x="442" 
d="M618 1532v0q-94 -74 -184 -172q-94 -99 -96 -230q0 -49 31 -88q28 -43 82 -43q47 0 79 33q29 29 29 70q-2 43 -25 78q-10 20 -16 45q-6 20 -4 51q8 59 47 114q37 58 90 107z" />
    <glyph glyph-name="asciitilde" unicode="a" horiz-adv-x="1149" 
d="M985 911q-55 -250 -219 -518q-86 -133 -174 -219q-43 -43 -84 -65q-43 -27 -80 -27q-49 0 -70 43q-20 41 -20 100q2 195 141 453q68 119 166 198q96 78 215 80q76 0 125 -45v0zM1016 1012l-11 -27q-59 41 -149 43q-182 -2 -317 -86q-136 -86 -226 -215
q-178 -281 -178 -508q0 -94 47 -166q45 -76 150 -78q84 2 159 45q76 41 144 109q135 143 225 309h4l-69 -233q-70 -225 90 -230q116 2 202 91q86 83 138 204l-50 29q-28 -59 -83 -133q-25 -35 -52 -57q-26 -27 -49 -27q-29 0 -31 33q-2 30 11 80l217 817h-172z" />
    <glyph glyph-name="Adieresis" unicode="b" horiz-adv-x="1145" 
d="M1012 752q0 -60 -23 -170q-24 -115 -76 -238q-49 -121 -129 -207q-82 -88 -196 -90q-78 0 -121 51q-47 47 -47 125q2 164 108 359q74 129 174 233q50 49 103 78q49 29 96 29q111 0 111 -170v0zM700 1509l-10 11l-366 -50l-13 -47l117 -14q39 0 47 -21q10 -20 -6 -79
l-301 -1309h74l63 119v0q31 -66 100 -103q70 -41 158 -41q182 2 311 105q66 47 117 108q49 60 86 127q76 140 107 262q28 123 28 193q0 117 -51 186q-55 70 -168 72q-256 0 -516 -422h-4z" />
    <glyph glyph-name="Aring" unicode="c" horiz-adv-x="903" 
d="M876 315v0q-53 -75 -137 -153q-41 -37 -88 -60q-49 -26 -102 -26q-109 2 -146 80q-18 39 -26 88q-8 47 -8 100q2 213 102 408q47 90 109 147q61 57 131 57q51 0 82 -34q30 -39 40 -129q7 -60 60 -62q41 0 84 33q45 33 47 82q-2 82 -74 131q-71 51 -190 51
q-277 -6 -432 -235q-162 -224 -162 -490q2 -184 94 -256q43 -37 96 -53q49 -19 103 -19q114 -2 239 64q121 65 228 237z" />
    <glyph glyph-name="Ccedilla" unicode="d" horiz-adv-x="1202" 
d="M350 229q0 191 131 449q66 119 160 198q92 78 215 80q100 -2 141 -41q-45 -249 -202 -520q-76 -125 -166 -215q-90 -96 -176 -98q-103 2 -103 147v0zM950 1470l-12 -47l123 -12q37 -2 45 -18q6 -17 -8 -66l-78 -330l-4 -4q-64 33 -172 35q-178 -2 -307 -86
q-134 -84 -220 -211q-84 -127 -127 -256q-43 -131 -43 -229q0 -49 11 -97q10 -47 30 -88q25 -36 64 -59q39 -25 100 -27q178 5 314 156q135 143 225 315h4l-68 -243q-61 -223 95 -228q112 2 198 91q84 83 135 204l-49 29q-28 -59 -84 -133q-24 -35 -51 -57q-27 -27 -49 -27
q-29 0 -31 33q-2 30 10 80l324 1314l-10 11z" />
    <glyph glyph-name="Eacute" unicode="e" horiz-adv-x="928" 
d="M891 309v0q-55 -76 -137 -151q-43 -35 -93 -58q-49 -24 -108 -24q-105 0 -145 82q-41 80 -41 202q0 15 2 33q254 53 389 113q131 59 192 121q55 55 72 104q14 49 14 92q0 86 -63 146q-64 57 -191 59q-278 -6 -448 -233q-168 -213 -170 -484q0 -106 33 -172
q28 -65 75 -102q47 -35 101 -47q53 -15 96 -15q115 0 240 62q122 65 229 231zM373 463q30 194 129 340q49 71 106 112q56 41 117 41q57 0 88 -32q31 -31 31 -88q2 -111 -105 -211q-108 -105 -366 -162v0z" />
    <glyph glyph-name="Ntilde" unicode="f" horiz-adv-x="645" 
d="M885 1003h-267l58 232q31 115 63 166q31 47 72 47q76 0 137 -144q12 -34 55 -34q35 0 68 26q31 27 33 64q-2 69 -70 114q-67 46 -164 46q-98 0 -166 -37q-69 -39 -120 -105q-93 -127 -133 -299l-21 -76h-178l-23 -77h183l-238 -1207q-18 -92 -33 -116q-18 -23 -32 -23
q-15 0 -39 21q-27 20 -70 80q-8 16 -20 30q-15 15 -35 15q-35 0 -62 -31q-28 -29 -30 -72q6 -49 59 -82q55 -35 127 -37q151 0 233 134q82 133 144 425l190 863h258z" />
    <glyph glyph-name="Odieresis" unicode="g" horiz-adv-x="1022" 
d="M696 956q51 2 107 -30q55 -37 57 -142q-2 -145 -67 -241q-66 -101 -185 -103q-80 0 -125 51q-45 48 -45 125q-2 109 58 222q30 53 81 86q50 32 119 32v0zM936 967v0q-92 59 -254 61q-125 -2 -207 -37q-86 -37 -135 -96q-49 -57 -70 -121q-24 -65 -24 -123q0 -55 20 -98
q17 -45 43 -76q29 -31 58 -49q28 -18 51 -29v-4q-51 -18 -117 -55q-29 -18 -47 -43q-23 -25 -23 -55q0 -50 43 -86q39 -37 103 -68v-4q-111 -16 -209 -84q-47 -33 -76 -82q-31 -49 -31 -115q2 -137 129 -215q125 -82 322 -84q215 2 354 88q144 87 146 254q0 234 -359 322
q-129 31 -186 59q-62 27 -62 68q0 31 27 51q27 19 64 29q63 -8 110 -6q215 2 330 104q113 102 113 262q-3 86 -44 141l173 25l67 129l-12 19zM557 -424q-133 2 -219 68q-88 65 -88 178q0 55 24 98q23 41 56 68q69 55 137 63q108 -10 235 -63q60 -27 99 -70q35 -45 37 -110
q-2 -117 -82 -173q-80 -59 -199 -59v0z" />
    <glyph glyph-name="Udieresis" unicode="h" horiz-adv-x="1243" 
d="M721 1509l-10 11l-369 -50l-12 -47l116 -14q39 0 48 -21q10 -20 -7 -79l-299 -1334l179 25q71 285 137 451q51 135 180 296q61 76 129 125q68 47 133 50q49 0 68 -39q16 -39 -2 -105l-168 -581q-29 -103 -4 -160q24 -60 110 -62q109 2 191 91q84 83 135 204l-49 29
q-29 -59 -84 -133q-25 -35 -51 -57q-27 -27 -50 -27q-30 0 -32 33q-2 30 12 80l162 536q39 125 10 211q-29 84 -154 86q-147 -2 -293 -135q-147 -131 -249 -322h-7z" />
    <glyph glyph-name="aacute" unicode="i" horiz-adv-x="649" 
d="M270 971l-12 -49l117 -11q43 0 51 -20q8 -21 -8 -74l-172 -641q-23 -88 2 -141q22 -58 104 -60q111 2 197 91q84 83 135 204l-49 29q-29 -59 -84 -133q-25 -35 -51 -57q-27 -27 -49 -27q-29 0 -31 33q-2 30 10 80l223 823l-10 10zM633 1464q-64 -2 -99 -41
q-34 -43 -34 -94q0 -55 34 -84q31 -31 78 -31q62 0 97 39q34 37 34 99q0 61 -32 88q-33 24 -78 24v0z" />
    <glyph glyph-name="agrave" unicode="j" horiz-adv-x="633" 
d="M279 922l126 -11q37 -2 41 -24q5 -23 -10 -78l-250 -1169q-10 -62 -47 -64q-18 0 -45 25q-28 24 -71 84q-9 16 -21 28q-12 13 -33 13q-35 0 -61 -31q-29 -29 -31 -72q6 -49 60 -82q53 -35 135 -37q137 0 219 103q86 112 145 387l232 1024l-11 10l-366 -57zM637 1464
q-64 -2 -98 -41q-35 -43 -35 -94q0 -55 35 -84q30 -31 77 -31q62 0 97 39q34 37 34 99q0 61 -32 88q-33 24 -78 24v0z" />
    <glyph glyph-name="acircumflex" unicode="k" horiz-adv-x="1116" 
d="M377 0l360 1509l-10 11l-367 -50l-12 -47l117 -14q39 0 47 -21q10 -20 -6 -79l-318 -1334zM1126 1028q-61 0 -133 -41q-74 -41 -153 -111q-172 -151 -318 -329q60 -193 146 -377q79 -195 217 -195q98 2 168 82q69 76 114 207l-51 27q-43 -92 -82 -146q-39 -57 -82 -57
q-24 0 -49 35q-27 33 -65 110q-48 99 -84 199q-39 98 -70 201q49 59 141 145q43 41 84 68q37 26 66 26q39 0 100 -39q23 -16 57 -16q46 0 74 39q27 33 27 72q2 96 -107 100v0z" />
    <glyph glyph-name="adieresis" unicode="l" horiz-adv-x="627" 
d="M373 1470l-13 -47l117 -14q41 0 49 -21q8 -20 -8 -79l-280 -1133q-23 -88 2 -141q22 -58 104 -60q109 2 197 93q88 84 137 202l-49 29q-37 -72 -92 -141q-25 -31 -52 -54q-24 -22 -45 -22q-49 2 -20 110l330 1317l-11 11z" />
    <glyph glyph-name="atilde" unicode="m" horiz-adv-x="1868" 
d="M379 0q80 293 135 436q57 148 184 311q62 76 129 125q66 47 127 50q47 0 68 -37q16 -41 -6 -135l-152 -574l-53 -201l178 25q78 289 146 453q61 145 182 301q59 73 125 120q61 45 127 48q53 0 71 -37q19 -37 -2 -107l-176 -602q-51 -196 107 -201q112 2 198 91
q84 83 135 204l-49 29q-28 -59 -84 -133q-24 -35 -51 -57q-26 -27 -49 -27q-29 0 -31 33q-2 30 11 80l157 536q39 125 8 211q-16 41 -53 63q-39 23 -104 23q-140 -2 -273 -117q-133 -114 -245 -317h-9l41 129q93 303 -122 305q-144 -2 -277 -119q-133 -119 -244 -315h-6
l129 424l-10 10l-371 -57l-12 -49l125 -11q37 -2 41 -24q2 -25 -12 -74l-211 -838z" />
    <glyph glyph-name="aring" unicode="n" horiz-adv-x="1266" 
d="M381 0q78 285 147 446q64 146 187 306q61 75 127 122q63 45 125 48q55 -3 71 -41q15 -41 -4 -105l-176 -600q-25 -88 0 -141q23 -58 104 -60q117 2 203 91q84 83 135 204l-49 29q-28 -59 -84 -133q-24 -35 -51 -57q-27 -27 -49 -27q-29 0 -31 33q-2 30 10 80l160 536
q39 125 10 211q-16 41 -53 63q-39 23 -102 23q-152 -4 -293 -137q-143 -131 -240 -320h-6l133 447l-10 10l-375 -57l-12 -49l127 -11q66 -2 31 -98l-215 -838z" />
    <glyph glyph-name="ccedilla" unicode="o" horiz-adv-x="1100" 
d="M772 956q94 0 133 -57q37 -59 37 -158q0 -55 -20 -168q-21 -112 -68 -233q-45 -119 -119 -203q-74 -88 -180 -90q-182 0 -184 217q0 189 100 430q49 113 127 187q74 73 174 75v0zM774 1028q-180 -2 -295 -80q-119 -78 -186 -192q-66 -115 -92 -226q-15 -55 -21 -102
q-8 -47 -8 -82q0 -166 92 -266q92 -103 285 -105q168 2 280 76q113 70 183 187q69 114 100 231q29 117 29 201q0 106 -33 176q-33 71 -86 110t-117 58q-65 14 -131 14v0z" />
    <glyph glyph-name="eacute" unicode="p" horiz-adv-x="1208" 
d="M612 47q-116 0 -180 62q21 104 64 237q41 133 98 240q78 133 178 233q98 100 186 103q111 -3 111 -170q0 -62 -23 -177q-12 -55 -30 -114q-19 -62 -47 -121q-56 -119 -142 -203q-88 -88 -215 -90v0zM299 -471l113 491q63 -43 221 -45q188 2 313 101q125 96 197 231
q73 137 102 260q27 125 27 187q0 272 -228 274q-260 -2 -516 -442h-6l117 432l-10 10l-371 -57l-12 -49l127 -11q37 -2 41 -26q2 -25 -11 -72l-286 -1309z" />
    <glyph glyph-name="egrave" unicode="q" horiz-adv-x="1145" 
d="M678 -496l190 41l365 1530h-78l-88 -92q-53 41 -201 45q-188 -2 -323 -86q-138 -82 -224 -211t-127 -264q-43 -137 -43 -248q3 -131 62 -188q55 -56 133 -56q131 2 272 113q142 109 258 301h7l-203 -885v0zM352 252q0 176 131 428q66 117 164 196q96 78 221 80
q49 0 86 -12t58 -31q-78 -362 -250 -594q-84 -110 -166 -174q-80 -63 -145 -63q-56 0 -76 49q-23 49 -23 121v0z" />
    <glyph glyph-name="ecircumflex" unicode="r" horiz-adv-x="823" 
d="M389 0q55 219 107 418q57 205 127 323q67 119 127 121q24 0 43 -6q16 -8 30 -18q17 -11 31 -17q14 -10 39 -10q41 2 69 43q27 39 27 84q4 88 -92 90q-186 -4 -367 -350h-4l92 340l-10 10l-352 -57l-12 -49l127 -11q37 -2 41 -24q2 -25 -11 -74l-188 -838z" />
    <glyph glyph-name="edieresis" unicode="s" horiz-adv-x="797" 
d="M625 1028q-158 -2 -244 -86q-88 -86 -88 -215q0 -80 51 -150q47 -73 129 -137q139 -112 141 -239q0 -72 -41 -113t-106 -41q-125 2 -184 172q-17 60 -66 62q-47 0 -76 -33q-30 -33 -30 -78q0 -70 81 -129q80 -64 226 -66q168 2 262 95q90 86 92 215q0 84 -41 159
q-45 72 -147 154q-88 76 -117 131q-31 51 -29 94q0 53 37 92q35 39 90 41q101 0 164 -141q14 -41 57 -41q33 0 66 25q31 24 33 69q0 54 -60 107q-63 51 -200 53v0z" />
    <glyph glyph-name="iacute" unicode="t" horiz-adv-x="698" 
d="M876 926l23 77h-260l70 244l-25 14l-199 -157l-26 -101h-166l-23 -77h170l-184 -750q-23 -88 0 -141q20 -58 96 -60q123 2 219 88q97 84 158 201l-45 35v0q-37 -63 -98 -137q-31 -33 -60 -56q-30 -24 -57 -24q-29 0 -35 31q-6 28 4 67l182 746h256z" />
    <glyph glyph-name="igrave" unicode="u" horiz-adv-x="1266" 
d="M1092 1003q-78 -284 -146 -442q-70 -164 -186 -315q-60 -72 -121 -117q-66 -47 -131 -47q-98 0 -51 180l196 756l-10 10l-373 -57l-12 -49l127 -11q37 -2 41 -24q4 -25 -10 -74l-142 -541q-16 -61 -16 -114q-4 -54 8 -95q15 -38 51 -61q33 -25 95 -27q151 5 297 140
q141 131 237 315h4l-67 -233q-29 -103 -7 -160q21 -60 101 -62q110 2 201 93q88 84 141 200l-49 31q-33 -59 -88 -133q-25 -35 -52 -57q-26 -27 -49 -27q-28 0 -35 33q-4 30 9 77l219 836z" />
    <glyph glyph-name="icircumflex" unicode="v" horiz-adv-x="1044" 
d="M256 971l-12 -49l127 -11q37 -2 41 -22q2 -25 -11 -76l-125 -569q-47 -271 142 -269q135 2 262 107q127 102 233 248q107 145 172 295q66 145 68 243q-2 64 -25 113q-24 45 -39 47q-79 -2 -149 -43q27 -102 25 -256q-23 -223 -166 -430q-70 -96 -142 -156
q-75 -59 -141 -61q-88 -2 -65 143l178 793l-11 10z" />
    <glyph glyph-name="idieresis" unicode="w" horiz-adv-x="1608" 
d="M260 971l-10 -49l125 -11q33 -2 39 -22q6 -21 -9 -76l-129 -559q-30 -143 15 -211q43 -68 131 -68q131 2 256 121q125 115 219 301l4 -4q-10 -55 -20 -114q-13 -60 -13 -105q0 -84 41 -139q39 -58 131 -60q129 2 244 105q115 100 213 248q102 151 166 301q63 145 63 239
q-2 68 -24 113q-25 45 -39 47q-78 -2 -148 -43q27 -106 25 -235q-6 -228 -143 -439q-62 -100 -133 -164q-72 -65 -136 -65q-133 0 -67 283l143 645l-176 -13q-47 -194 -102 -370q-56 -179 -144 -316q-61 -98 -131 -162q-35 -30 -65 -47q-35 -20 -66 -20q-92 -4 -63 166
l180 770l-10 10z" />
    <glyph glyph-name="ntilde" unicode="x" horiz-adv-x="1057" 
d="M1038 283q-37 -72 -76 -134q-20 -28 -43 -47q-20 -20 -43 -20q-26 -2 -47 47q-20 49 -53 182l-65 269q57 104 125 196q32 43 63 72q29 26 49 26q27 0 57 -16q31 -16 66 -16t61 30q27 27 27 68q-4 90 -104 88q-80 -2 -148 -63q-69 -62 -125 -150l-90 -139h-4l-82 344
l-12 8l-338 -102l6 -50l154 11q26 6 45 -15q14 -18 28 -88l74 -297l-57 -98q-66 -113 -119 -182q-27 -35 -51 -53q-25 -21 -43 -21q-31 0 -60 19q-14 10 -32 20q-21 10 -49 10q-39 -2 -62 -30q-27 -33 -27 -72q3 -100 132 -105q102 2 174 88q69 82 129 189l82 135h4l36 -160
q29 -123 70 -186q39 -66 113 -66q57 0 102 29q43 25 76 66q35 41 61 90q29 47 50 94z" />
    <glyph glyph-name="oacute" unicode="y" horiz-adv-x="958" 
d="M145 930l7 -51l139 4q33 4 47 -27q14 -33 24 -113q60 -354 68 -716q0 -45 -6 -107q-10 -63 -43 -147q-29 -66 -64 -103q-34 -41 -67 -43q-41 2 -84 64q-31 49 -72 49q-41 -2 -69 -39q-33 -35 -35 -84q2 -43 43 -76q39 -35 106 -37q127 0 215 105q86 104 215 336
q82 143 291 495q94 150 168 279q37 65 59 114q19 50 19 80q0 56 -10 86q-13 29 -27 29q-70 0 -160 -51q4 -55 -2 -135t-24 -148q-27 -88 -105 -239q-80 -152 -184 -330h-6q-31 571 -82 895l-17 8z" />
    <glyph glyph-name="ograve" unicode="z" horiz-adv-x="958" 
d="M379 1003q-55 -67 -137 -290l51 -23q24 45 45 82q20 35 41 55q41 45 108 45h361q-389 -389 -719 -725q-25 -24 -37 -53q-12 -31 -12 -57q0 -19 12 -39q10 -21 35 -23q25 0 59 13q35 12 37 37v90q0 34 27 37q24 0 82 -27q55 -29 143 -68q82 -32 158 -55q74 -25 143 -27
q100 2 156 119q57 113 94 277l-57 14q-35 -98 -80 -172q-21 -33 -49 -55q-27 -23 -64 -23q-47 0 -108 21q-64 16 -123 39q-49 20 -101 36q-51 17 -92 21q340 358 709 723l-17 28h-665z" />
    <glyph glyph-name="ocircumflex" unicode="{" horiz-adv-x="696" 
d="M938 1417h-35q-113 0 -182 -35q-74 -37 -113 -102q-39 -62 -53 -145q-16 -86 -23 -183q2 -61 -4 -121q-6 -61 -26 -112q-21 -49 -68 -80t-135 -35l-16 -53q88 -2 122 -31q35 -31 33 -80q0 -47 -20 -104q-23 -57 -49 -117q-90 -182 -93 -299q5 -51 29 -86q23 -37 57 -57
q37 -21 80 -29q43 -10 86 -10h23l16 51q-84 8 -121 39q-38 29 -41 76q3 57 29 123q25 63 47 114q41 86 70 160q26 70 26 125q5 57 -28 94q-35 37 -115 51v13q45 12 82 26q35 15 59 33q50 37 70 90q25 55 29 125q6 70 4 156q2 49 8 108q2 60 21 113q22 55 73 90t144 41z" />
    <glyph glyph-name="odieresis" unicode="|" horiz-adv-x="553" 
d="M338 -31h139v1479h-139v-1479z" />
    <glyph glyph-name="otilde" unicode="}" horiz-adv-x="696" 
d="M563 1251q2 -55 -22 -119q-27 -67 -54 -118q-41 -82 -65 -154q-29 -74 -29 -129q-8 -113 141 -147v-13q-88 -18 -137 -55q-51 -37 -71 -92q-21 -51 -27 -123q-6 -70 -8 -160q2 -47 -4 -106q-4 -60 -25 -115q-20 -55 -72 -90q-53 -35 -145 -41l-14 -51h32q119 2 191 39
q72 35 111 100q38 66 53 150q14 84 16 176q2 65 8 127q4 59 25 108q20 51 70 82q45 29 131 31l16 53q-86 4 -119 35q-35 31 -35 78q0 51 23 106q20 58 45 113q90 182 92 299q0 55 -22 90q-23 35 -60 55q-78 37 -170 37h-20l-17 -51q88 -6 125 -35q35 -31 37 -80v0z" />
    <glyph glyph-name="uacute" unicode="~" horiz-adv-x="1167" 
d="M1059 651v0q-41 -63 -74 -90q-35 -27 -84 -27q-76 3 -172 48t-190 47q-56 0 -95 -19q-43 -18 -73 -51q-64 -65 -99 -147l84 -52v0q33 66 68 97q35 30 92 30q84 -2 184 -47q52 -16 101 -30q51 -17 94 -17q88 0 147 58q58 57 99 149z" />
    <glyph glyph-name="fl" unicode="&#xa1;" horiz-adv-x="491" 
d="M135 -444q82 2 113 39q28 34 33 90l112 890h-57l-287 -880q-20 -62 -8 -100q14 -37 94 -39v0zM442 1028q-131 -4 -133 -141q0 -47 33 -80q29 -35 84 -35q59 0 98 39q35 39 35 100q0 51 -29 84q-30 33 -88 33v0z" />
    <glyph glyph-name="questiondown" unicode="&#xa2;" 
d="M625 283v0q-99 28 -134 106q-34 76 -32 178q4 180 96 375q45 92 113 152q67 57 153 59zM907 1153q96 -4 148 -170q8 -51 55 -51q37 0 76 22q37 21 39 70q-2 92 -95 145q-90 54 -206 58l28 141l-84 2l-30 -143q-269 -19 -416 -217q-150 -201 -158 -447q0 -108 35 -182
q31 -74 84 -119q53 -43 111 -61q57 -21 106 -23l-49 -221h84l49 221q248 0 414 234l-45 39v0q-82 -103 -168 -146q-86 -41 -181 -41z" />
    <glyph glyph-name="exclamdown" unicode="&#xa3;" 
d="M956 0l131 236l-53 20q-12 -16 -26 -35q-15 -18 -35 -35q-37 -39 -113 -39h-444l-2 9q129 73 192 157q64 82 76 162q12 68 8 121h277l18 78h-303q-12 49 -25 98q-12 49 -24 94q-23 94 -23 197q8 112 64 186q55 70 157 72q154 -2 209 -176q6 -19 17 -33q12 -18 35 -18
q34 0 67 22q35 21 37 76q2 63 -78 131q-82 65 -250 70q-215 -5 -321 -125q-107 -119 -111 -291q0 -78 17 -156q12 -78 34 -147h-219l-18 -78h250q18 -78 18 -135q-2 -58 -18 -103q-17 -51 -54 -92q-36 -43 -88 -74q-106 -61 -221 -100l-47 -82l6 -10h860z" />
    <glyph glyph-name="macron" unicode="&#x2215;" horiz-adv-x="205" 
d="M-272 -49v0l1099 1423l-69 55v0l-1098 -1417z" />
    <glyph glyph-name="quotedblleft" unicode="&#xa5;" 
d="M305 1368l-14 -59l71 -5q29 -2 43 -24q13 -23 19 -55l137 -514h-266l-21 -74h306l-33 -180h-307l-21 -74h311l-57 -254q-14 -57 -68 -59l-122 -11l-13 -59h541l12 59l-123 11q-61 4 -51 59l55 254h332l19 74h-334l43 180h319l19 74h-285l371 493q71 103 149 103l43 2
l13 59h-396l-12 -59l104 -9q50 0 5 -69q-136 -205 -359 -520h-4l-123 536q-16 55 49 57l86 5l13 59h-451z" />
    <glyph glyph-name="quotesinglbase" unicode="&#x192;" 
d="M1049 754l18 73h-277l56 219q82 310 162 297q32 0 63 -22q31 -25 61 -86q19 -41 54 -39q30 0 59 22q29 19 31 60q0 49 -51 92q-56 43 -174 45q-181 -2 -289 -160q-45 -65 -80 -157q-35 -90 -59 -183l-25 -88h-201l-18 -73h201l-193 -836q-16 -78 -35 -100
q-18 -23 -37 -23q-43 -2 -96 86q-24 45 -57 43q-25 0 -51 -22q-27 -23 -31 -60q0 -45 53 -80q49 -36 125 -38q92 0 158 49q63 49 108 143q41 82 86 229q43 148 115 432l43 177h281z" />
    <glyph glyph-name="logicalnot" unicode="&#xa7;" 
d="M371 831q6 91 51 154q45 61 106 92v0q15 -82 86 -155q72 -76 183 -154q204 -143 206 -344q-2 -92 -41 -150q-40 -61 -96 -100v0q-30 156 -284 328q-121 90 -166 172q-47 80 -45 157v0zM1122 530q10 238 -260 400q-141 96 -174 166q-16 34 -22 61q-7 27 -7 45q7 78 58 125
t123 49q116 -2 172 -125q18 -51 53 -51q31 0 63 18q33 19 35 64q0 57 -65 111q-70 53 -215 55q-93 0 -156 -27q-68 -28 -111 -71t-63 -91q-23 -47 -29 -88q-116 -77 -192 -186q-78 -111 -84 -248q-6 -73 41 -170q45 -98 209 -213q86 -55 133 -100q47 -49 67 -92
q21 -43 27 -76q6 -37 2 -68q-2 -84 -55 -131q-52 -49 -123 -51q-51 0 -109 33q-57 35 -102 129q-8 22 -21 39q-12 14 -34 14q-27 0 -62 -20q-35 -23 -37 -78q0 -68 84 -125q80 -61 232 -63q174 2 268 92q92 88 104 223q101 90 174 203q70 110 76 247v0z" />
    <glyph glyph-name="breve" unicode="&#xa4;" 
d="M678 1145q-70 0 -141 -19q-37 -10 -70 -28q-33 -19 -64 -47v0l-55 79q-55 91 -127 31q-78 -59 17 -133l79 -61q-53 -70 -73 -138q-21 -69 -21 -145q0 -74 21 -141q20 -70 73 -142l-79 -61q-95 -72 -17 -133q72 -58 127 31l55 79v0q31 -24 64 -41q33 -18 70 -30
q71 -23 141 -23q72 0 145 23q72 20 129 71v0l56 -79q55 -89 127 -31q77 61 -17 133l-80 61q56 72 76 142q18 67 18 141q0 76 -18 145q-20 68 -76 138l80 61q94 74 17 133q-72 60 -127 -31l-56 -79v0q-57 55 -129 75q-37 13 -71 17q-37 2 -74 2v0zM678 1036q137 -2 223 -100
q82 -98 84 -252q-2 -154 -84 -250q-86 -100 -223 -102q-133 2 -219 102q-88 96 -88 250t88 252q86 98 219 100v0z" />
    <glyph glyph-name="D" unicode="'" horiz-adv-x="442" 
d="M623 1413q20 55 2 82q-21 25 -86 25q-58 0 -82 -25q-27 -27 -31 -82l-25 -453h58z" />
    <glyph glyph-name="apple" unicode="&#x201c;" horiz-adv-x="823" 
d="M627 1532v0q-95 -74 -185 -172q-94 -99 -96 -230q0 -49 31 -88q28 -43 82 -43q47 0 80 33q28 29 28 70q-2 43 -24 78q-11 20 -17 45q-6 20 -4 51q8 59 47 114q37 58 90 107zM1008 1532v0q-95 -74 -185 -172q-94 -99 -96 -230q0 -49 31 -88q28 -43 82 -43q47 0 79 33
q29 29 29 70q-2 43 -24 78q-11 20 -17 45q-6 20 -4 51q8 59 47 114q37 58 90 107z" />
    <glyph glyph-name="Acircumflex" unicode="&#xab;" horiz-adv-x="946" 
d="M594 891v0l-346 -371q-12 -12 -15 -29q-2 -18 7 -34l243 -373l47 31l-112 338q-13 36 8 69l209 334zM993 891v0l-346 -371q-12 -12 -14 -29q-2 -18 6 -34l244 -373l47 31l-113 338q-12 36 8 69l209 334z" />
    <glyph glyph-name="dotaccent" unicode="&#x2039;" horiz-adv-x="567" 
d="M577 891v0l-346 -371q-12 -12 -14 -29q-2 -18 6 -34l244 -373l47 31l-113 338q-12 36 9 69l208 334z" />
    <glyph glyph-name="ring" unicode="&#x203a;" horiz-adv-x="567" 
d="M203 84v0l346 371q26 30 8 63l-244 373l-47 -31l113 -338q12 -37 -8 -69l-209 -334z" />
    <glyph glyph-name="cedilla" unicode="&#xf001;" horiz-adv-x="1243" 
d="M412 926l-238 -1207q-18 -92 -33 -116q-18 -23 -32 -23q-15 0 -39 21q-27 20 -70 80q-8 16 -20 30q-15 15 -35 15q-35 0 -62 -31q-28 -29 -30 -72q6 -49 59 -82q55 -35 127 -37q151 0 233 134q82 133 144 425l190 863h338q64 0 76 -21q10 -20 -6 -74l-176 -655
q-23 -88 2 -141q24 -58 106 -60q111 2 195 91q84 83 135 204l-49 29q-29 -59 -84 -133q-25 -35 -51 -57q-27 -27 -50 -27q-28 0 -30 33q-2 30 10 80l225 823l-8 10q-61 -6 -156 -14q-98 -11 -239 -11h-224l15 54q47 188 108 290q64 101 174 101q138 -2 187 -193
q6 -22 20 -34q15 -15 41 -15q43 0 78 29q37 24 35 74q-2 71 -82 141q-82 67 -252 70q-225 -5 -334 -132q-108 -124 -157 -309l-23 -76h-178l-23 -77h183z" />
    <glyph glyph-name="hungarumlaut" unicode="&#xf002;" horiz-adv-x="1235" 
d="M1178 1421v0q-78 94 -238 99q-215 -5 -328 -136q-112 -129 -161 -305l-23 -76h-178l-23 -77h185l-238 -1207q-18 -92 -33 -116q-18 -23 -32 -23q-15 0 -39 21q-27 20 -70 80q-8 16 -20 30q-15 15 -35 15q-35 0 -62 -31q-28 -29 -30 -72q6 -49 59 -82q55 -35 127 -37
q151 0 233 134q82 133 144 425l190 863h256l21 77h-265l15 54q47 188 110 290q64 101 174 101q93 -2 140 -58q49 -57 61 -141l-262 -1073q-23 -88 2 -141q23 -58 104 -60q109 2 197 93q88 84 137 202l-49 29q-37 -72 -92 -141q-25 -31 -51 -54q-25 -22 -45 -22
q-49 2 -21 110l320 1309l-29 19z" />
    <glyph glyph-name="Oacute" unicode="&#x2013;" horiz-adv-x="1024" 
d="M121 571l-25 -118h1024l25 118h-1024z" />
    <glyph glyph-name="ae" unicode="&#x2020;" horiz-adv-x="1024" 
d="M483 -256q99 369 172 606q72 238 84 297q15 74 13 139q-5 66 -11 129q125 -10 205 -22q76 -17 115 -17q24 0 43 15q18 14 26 57q9 45 -2 60q-12 12 -39 12q-38 0 -122 -15q-82 -14 -213 -24q59 166 100 270q37 105 47 144q8 34 -8 55q-17 18 -78 18q-59 0 -84 -18
q-27 -21 -31 -55q-8 -39 -12 -144q-4 -104 -16 -270q-123 10 -199 24q-78 15 -121 15q-24 0 -41 -12q-18 -15 -28 -60q-9 -43 4 -57q12 -15 37 -15q43 0 124 17q82 12 211 22q-30 -63 -63 -129q-33 -65 -49 -139q-8 -59 -35 -297q-27 -237 -86 -606h57z" />
    <glyph glyph-name="ogonek" unicode="&#x2021;" horiz-adv-x="1003" 
d="M807 1468q-105 2 -115 -71q-8 -47 -10 -148q-4 -100 -16 -239q-89 6 -172 20q-86 14 -127 14q-25 0 -41 -12q-19 -14 -29 -55q-8 -39 4 -53q12 -15 37 -15q41 0 133 17q90 14 180 18q-76 -170 -102 -274q-8 -64 -25 -338q-90 6 -174 20q-86 15 -127 15q-24 0 -41 -13
q-18 -14 -28 -55q-7 -39 6 -53q12 -15 37 -15q41 0 133 17q90 14 180 18q-53 -166 -94 -278q-19 -56 -33 -94q-14 -41 -21 -66q-18 -72 86 -72q56 -2 82 19q27 18 33 53q12 47 17 160q6 112 20 278q92 -4 178 -18q84 -17 123 -17q25 0 43 15q18 14 25 53q8 41 -2 55
q-13 13 -39 13q-41 0 -131 -15q-90 -14 -183 -20q54 155 80 223q27 65 35 115q10 32 12 63q2 29 2 60q0 59 -2 151q92 -4 178 -18q84 -17 123 -17q25 0 43 15q19 14 27 53q8 41 -2 55q-12 12 -39 12q-41 0 -131 -14t-184 -20q47 139 88 239q39 101 49 148q8 34 -10 55
q-19 18 -76 16v0z" />
    <glyph glyph-name="caron" unicode="&#x2219;" horiz-adv-x="543" 
d="M371 383q129 2 133 141q0 47 -29 82q-31 33 -88 33q-59 0 -94 -37q-39 -37 -39 -102q0 -49 33 -82q28 -35 84 -35v0z" />
    <glyph glyph-name="florin" unicode="&#xb6;" horiz-adv-x="1147" 
d="M874 1417h-24q-242 -4 -393 -153q-160 -150 -162 -369q2 -168 104 -272q99 -109 265 -111h22zM1151 1270q8 45 27 59q14 14 45 16l143 19l10 53h-344l-307 -1470q-8 -41 -23 -60q-18 -16 -51 -22l-155 -19l-11 -53h357z" />
    <glyph glyph-name="radical" unicode="&#x2022;" horiz-adv-x="1024" 
d="M625 1049q-136 -3 -230 -97q-96 -92 -98 -231q2 -139 98 -232q94 -94 230 -96q137 2 229 96q94 93 96 232q-2 139 -96 231q-92 94 -229 97v0z" />
    <glyph glyph-name="Lslash" unicode="&#x201a;" horiz-adv-x="442" 
d="M258 309q-47 -2 -76 -30q-33 -29 -33 -72q3 -41 25 -78q10 -20 16 -41q7 -25 5 -55q-7 -56 -46 -113q-38 -55 -92 -108l33 -35v0q96 76 186 174q91 98 95 227q0 49 -29 92q-29 39 -84 39v0z" />
    <glyph glyph-name="lslash" unicode="&#x201e;" horiz-adv-x="823" 
d="M258 309q-47 -2 -76 -30q-33 -29 -33 -72q3 -41 25 -78q10 -20 16 -41q7 -25 5 -55q-7 -56 -46 -113q-38 -55 -92 -108l33 -35v0q96 76 186 174q91 98 95 227q0 49 -29 92q-29 39 -84 39v0zM639 309q-47 -2 -76 -30q-33 -29 -33 -72q2 -41 25 -78q10 -20 16 -41
q6 -25 4 -55q-6 -56 -45 -113q-39 -55 -92 -108l33 -35v0q96 76 186 174t95 227q0 49 -29 92q-29 39 -84 39v0z" />
    <glyph glyph-name="Ograve" unicode="&#x201d;" horiz-adv-x="823" 
d="M491 1524q-47 -2 -75 -31q-33 -29 -33 -72q2 -41 25 -78q10 -20 16 -41q6 -24 4 -55q-6 -55 -45 -112q-39 -56 -92 -109l33 -35v0q96 76 186 174q90 99 94 228q0 49 -29 92q-28 39 -84 39v0zM872 1524q-47 -2 -75 -31q-33 -29 -33 -72q2 -41 24 -78q11 -20 17 -41
q6 -24 4 -55q-6 -55 -45 -112q-39 -56 -92 -109l32 -35v0q97 76 187 174q90 99 94 228q0 49 -29 92q-28 39 -84 39v0z" />
    <glyph glyph-name="Ecircumflex" unicode="&#xbb;" horiz-adv-x="946" 
d="M172 84v0l346 371q27 30 8 63l-243 373l-47 -31l112 -338q12 -37 -8 -69l-209 -334zM571 84v0l346 371q27 30 9 63l-244 373l-47 -31l112 -338q13 -37 -8 -69l-209 -334z" />
    <glyph glyph-name="Aacute" unicode="&#x2026;" horiz-adv-x="2048" 
d="M362 -25q129 5 134 142q0 47 -29 82q-31 32 -88 32q-60 0 -94 -36q-39 -37 -39 -103q0 -49 33 -82q28 -33 83 -35v0zM1044 -25q129 5 134 142q0 47 -29 82q-31 32 -88 32q-60 0 -94 -36q-39 -37 -39 -103q0 -49 32 -82q29 -33 84 -35v0zM1726 -25q129 5 133 142
q0 47 -28 82q-31 32 -88 32q-60 0 -94 -36q-39 -37 -39 -103q0 -49 32 -82q29 -33 84 -35v0z" />
    <glyph glyph-name="Scaron" unicode="&#x2030;" horiz-adv-x="2457" 
d="M2189 664q80 -3 103 -58q20 -53 18 -106q0 -90 -47 -267q-27 -79 -74 -135q-22 -26 -53 -43q-31 -18 -68 -18q-82 2 -106 59q-25 53 -23 105q0 96 60 270q16 39 35 76q18 35 43 59q45 55 112 58v0zM2191 725q-112 -2 -190 -47q-78 -47 -127 -123q-49 -74 -70 -156
q-22 -82 -22 -151q0 -49 16 -96q14 -48 47 -89q66 -86 221 -88q117 2 195 52q78 49 123 120q47 76 67 156q17 78 17 141q0 121 -66 201q-67 78 -211 80v0zM1421 664q80 -3 103 -58q20 -53 18 -106q0 -90 -47 -267q-27 -79 -74 -135q-22 -26 -53 -43q-31 -18 -68 -18
q-82 2 -106 59q-25 53 -23 105q0 96 60 270q16 39 35 76q18 35 43 59q45 55 112 58v0zM1423 725q-112 -2 -190 -47q-78 -47 -127 -123q-49 -74 -70 -156q-22 -82 -22 -151q0 -49 16 -96q14 -48 47 -89q66 -86 221 -88q117 2 195 52q78 49 123 120q47 76 67 156q17 78 17 141
q0 121 -66 201q-67 78 -211 80v0zM410 -51l1239 1439l-62 50v0l-51 -52q-80 -86 -174 -94h-367q-37 0 -57 8q-21 7 -37 19q-29 26 -84 49q-55 22 -135 25q-113 -3 -191 -48q-77 -47 -126 -122q-50 -74 -70 -156q-23 -82 -23 -152q0 -49 17 -96q14 -47 47 -88q65 -86 221 -88
q117 0 195 51q77 49 122 121q48 76 68 156q16 78 16 141q0 59 -10 111h442l-1044 -1217l64 -57v0zM680 1331q80 -2 102 -57q21 -53 19 -107q0 -90 -47 -266q-27 -80 -74 -135q-23 -27 -53 -43q-31 -19 -68 -19q-82 3 -106 60q-25 53 -23 104q0 97 59 271q17 39 35 75
q19 35 43 60q45 55 113 57v0z" />
    <glyph glyph-name="fi" unicode="&#xbf;" horiz-adv-x="870" 
d="M399 -444q172 4 262 88q43 39 66 75q20 39 20 70q-2 45 -32 70q-31 20 -58 20q-51 0 -63 -39q-17 -43 -35 -80q-20 -38 -45 -69q-49 -62 -125 -64q-61 2 -90 45q-31 41 -31 105q-4 207 275 391q213 115 213 252q-2 94 -68 137q-65 39 -145 39q-54 0 -109 -19
q-57 -18 -92 -45l12 -34q35 4 88 6q54 0 92 -25q39 -26 39 -94q-2 -78 -65 -135q-64 -58 -168 -109q-119 -55 -188 -125q-74 -71 -74 -200q6 -252 321 -260v0zM659 1028q-131 -4 -133 -141q0 -47 33 -80q29 -35 84 -35q59 0 98 39q35 39 35 100q0 51 -29 84q-30 33 -88 33v0
z" />
    <glyph glyph-name="braceright" unicode="`" horiz-adv-x="819" 
d="M795 1110l30 41l-243 246q-45 47 -74 67q-31 17 -57 17q-25 0 -52 -27q-28 -29 -28 -61q0 -31 34 -58q33 -28 80 -53l310 -172v0z" />
    <glyph glyph-name="ellipsis" unicode="&#xb4;" horiz-adv-x="819" 
d="M541 1110v0l309 172q47 25 82 53q33 27 33 58q-3 32 -27 61q-27 27 -53 27q-23 0 -54 -17q-32 -20 -77 -67l-244 -246z" />
    <glyph glyph-name="threequarters" unicode="&#x2c6;" horiz-adv-x="819" 
d="M1016 1118l47 43l-182 264q-13 19 -29 35q-14 14 -33 14q-37 -2 -82 -49l-282 -264l28 -43v0l236 154q41 28 65 30q27 -2 58 -30l174 -154v0z" />
    <glyph glyph-name="glyph130" unicode="&#x2dc;" horiz-adv-x="819" 
d="M1038 1397q-41 -52 -69 -72q-29 -23 -70 -23q-68 2 -156 39q-41 17 -82 29q-43 10 -79 10q-97 -2 -148 -67q-26 -31 -45 -66q-20 -35 -37 -67l39 -27q33 55 68 80q32 24 80 24q71 -2 163 -39q48 -14 91 -24q40 -14 73 -14q76 0 123 55q49 51 90 139z" />
    <glyph glyph-name="Gbreve" unicode="&#xaf;" horiz-adv-x="819" 
d="M504 1343l-37 -120h569l37 120h-569z" />
    <glyph glyph-name="gbreve" unicode="&#x2d8;" horiz-adv-x="819" 
d="M752 1163q92 0 153 23q62 22 100 59q39 37 60 86q20 47 33 98h-54q-12 -34 -65 -84q-27 -22 -74 -38q-45 -17 -117 -17q-65 0 -102 17q-39 16 -55 38q-19 23 -21 48q-2 22 -2 36h-49q-22 -55 -22 -106q0 -90 65 -125q62 -35 150 -35v0z" />
    <glyph glyph-name="Idotaccent" unicode="&#x2d9;" horiz-adv-x="823" 
d="M688 1167q57 0 88 37q31 35 31 88q0 41 -25 70q-26 28 -73 31q-52 0 -84 -33q-37 -35 -37 -92q0 -99 100 -101v0z" />
    <glyph glyph-name="nonbreakingspace" unicode="&#xa8;" horiz-adv-x="819" 
d="M524 1171q58 0 88 37q31 35 31 88q0 41 -25 70q-26 29 -73 31q-51 0 -84 -33q-37 -35 -37 -92q0 -99 100 -101v0zM950 1171q58 0 88 37q31 35 31 88q0 41 -25 70q-26 29 -73 31q-52 0 -84 -33q-37 -35 -37 -92q0 -99 100 -101v0z" />
    <glyph glyph-name="Scedilla" unicode="&#x2da;" horiz-adv-x="819" 
d="M778 1374q2 -39 -18 -104q-13 -31 -37 -52q-27 -24 -70 -24q-80 0 -84 108q0 41 29 103q27 63 98 67q78 -2 82 -98v0zM453 1302q0 -86 57 -129q55 -47 139 -47q74 0 123 23q47 22 74 55q26 35 39 76q10 37 10 74q-2 92 -57 141q-58 45 -138 45q-75 0 -125 -27
q-49 -24 -75 -65q-27 -37 -35 -76q-12 -41 -12 -70v0z" />
    <glyph glyph-name="scedilla" unicode="&#xb8;" horiz-adv-x="819" 
d="M412 0l-123 -176l6 -19q55 -4 84 -32q29 -29 29 -74q-3 -72 -64 -90q-61 -21 -137 -10l-8 -50q53 -18 135 -20q86 0 149 41q64 37 78 109q14 77 -29 135q-45 53 -118 63l90 123h-92z" />
    <glyph glyph-name="cacute" unicode="&#x2db;" horiz-adv-x="717" 
d="M424 0q-92 -47 -150 -123q-63 -78 -63 -164q-2 -41 29 -98q30 -59 149 -63q94 -3 191 75l-15 33q-51 -22 -104 -22q-45 0 -78 26q-37 25 -37 78q0 74 45 137q43 64 117 121h-84z" />
    <glyph glyph-name="Ccaron" unicode="&#x2c7;" horiz-adv-x="819" 
d="M555 1497l-47 -43l182 -264q17 -19 31 -33q16 -16 31 -16q36 2 81 49l283 264l-29 43v0l-235 -154q-19 -12 -35 -20q-18 -10 -31 -10q-26 2 -57 30l-174 154v0z" />
    <glyph glyph-name="Ocircumflex" unicode="&#x2014;" horiz-adv-x="2048" 
d="M121 571l-25 -118h2048l25 118h-2048z" />
    <glyph glyph-name="Atilde" unicode="&#xc6;" horiz-adv-x="1802" 
d="M702 776l424 563h11l-129 -563h-306zM379 0l16 59l-121 11q-55 8 -14 75q176 273 387 553h342l-119 -528q-10 -51 -28 -72q-19 -24 -56 -26l-114 -13l-13 -59h1069l105 360h-62q-71 -182 -168 -237q-96 -53 -280 -51q-76 0 -141 6q-64 6 -88 20q-23 17 -23 51
q-2 33 12 101l105 448h268q68 0 107 -6q38 -8 55 -31q28 -38 16 -139h62l94 428h-62q-16 -51 -34 -84q-19 -33 -45 -55q-48 -37 -177 -35h-268l117 510q8 37 20 49q13 10 37 10h248q98 0 149 -14q52 -18 72 -51q21 -33 23 -82q0 -51 -11 -123h62l78 342h-1168l-18 -59
l137 -13q29 0 27 -26q-2 -27 -51 -92q-439 -598 -815 -1071q-33 -43 -62 -64q-29 -20 -72 -26l-69 -7l-17 -59h488z" />
    <glyph glyph-name="Ydieresis" unicode="&#xaa;" horiz-adv-x="870" 
d="M813 1124q-41 -143 -147 -313q-48 -74 -105 -125q-59 -57 -108 -57q-64 0 -62 71q0 123 94 281q45 74 107 121q61 47 135 49q66 0 86 -27v0zM829 1198l-6 -16q-43 26 -112 26q-119 -2 -209 -53q-88 -55 -150 -137q-123 -174 -123 -320q0 -63 33 -108q31 -47 105 -47
q61 0 114 28q53 27 96 68q91 86 146 176h6l-41 -139q-18 -62 4 -96q19 -37 68 -37q82 0 147 57q66 53 107 135l-41 25q-23 -37 -58 -82q-39 -47 -71 -49q-33 0 -8 75l143 494h-150z" />
    <glyph glyph-name="glyph142" unicode="&#x141;" horiz-adv-x="1169" 
d="M928 911l20 105v0l-299 -191v0l96 422q13 51 33 76q19 24 55 27l123 8l15 59h-572l-14 -59l121 -11q69 -2 45 -100l-125 -547l-215 -137l-31 -108v0l221 141v0l-96 -426q-10 -51 -29 -72q-20 -24 -57 -26l-113 -13l-12 -59h1049l104 360h-61q-72 -182 -164 -237
q-94 -53 -264 -51q-76 0 -142 6q-63 6 -88 20q-22 17 -22 51q-2 33 12 101l107 469z" />
    <glyph glyph-name="Otilde" unicode="&#xd8;" horiz-adv-x="1542" 
d="M494 240v0q-46 96 -46 231q-4 260 127 561q72 152 185 246q110 96 272 98q174 0 272 -108zM1560 1454l-65 53v0l-119 -149v0q-147 90 -352 90q-244 -2 -401 -115q-160 -108 -248 -262q-82 -143 -111 -278q-33 -138 -31 -240q0 -274 164 -434l-121 -154l62 -57v0l127 160
v0q139 -97 368 -99q271 4 422 121q154 113 232 268q82 156 106 291q23 137 23 199q-4 319 -172 459zM1354 1192v0q47 -92 47 -238q0 -86 -15 -213q-18 -127 -82 -290q-59 -168 -174 -285q-116 -123 -315 -125q-178 0 -276 121z" />
    <glyph glyph-name="Idieresis" unicode="&#x152;" horiz-adv-x="2089" 
d="M1165 211q-18 -92 -69 -117q-52 -24 -152 -22q-205 -2 -344 110q-143 115 -145 379q-2 291 176 533q176 243 563 251q149 0 188 -22q35 -27 13 -105zM1188 1417q-336 -4 -529 -108q-192 -105 -294 -279q-86 -145 -109 -262q-25 -117 -23 -168q0 -604 734 -600h1048
l105 360h-62q-72 -182 -168 -237q-96 -53 -280 -51q-76 0 -142 6q-63 6 -88 20q-22 17 -22 51q-2 33 12 101l104 448h269q67 0 106 -6q39 -8 56 -31q28 -38 16 -139h61l95 428h-62q-16 -51 -35 -84q-18 -33 -45 -55q-47 -37 -176 -35h-268l117 510q8 37 20 49q12 10 37 10
h248q98 0 149 -14q51 -18 72 -51q20 -33 22 -82q0 -51 -10 -123h62l77 342h-1097z" />
    <glyph glyph-name="fraction" unicode="&#xba;" horiz-adv-x="797" 
d="M651 1208q-112 -2 -192 -47q-80 -47 -129 -121q-21 -30 -37 -65q-19 -35 -27 -70q-8 -33 -12 -63q-6 -31 -6 -58q0 -106 69 -172q68 -69 203 -69q123 0 205 49q80 47 127 119q24 34 39 71q16 35 24 68q17 67 17 106q0 76 -25 127q-24 49 -65 76t-90 39q-50 10 -101 10v0z
M659 1151q70 -2 93 -43q20 -41 20 -96q0 -101 -59 -244q-31 -72 -76 -119q-47 -49 -115 -49q-112 0 -114 135q0 115 65 260q33 66 82 111q47 45 104 45v0z" />
    <glyph glyph-name="guilsinglleft" unicode="&#xe6;" horiz-adv-x="1595" 
d="M985 893q-59 -227 -207 -483q-84 -136 -178 -230q-45 -43 -88 -69q-43 -29 -84 -29q-45 0 -63 43q-21 39 -21 100q2 193 141 439q68 114 162 190q92 76 207 78q84 -2 131 -39v0zM1169 1053h-75l-72 -84q-76 32 -160 34q-184 -2 -319 -86q-138 -84 -226 -213
q-88 -124 -131 -258q-45 -131 -45 -227q0 -94 47 -166q48 -76 148 -78q82 2 155 43q74 39 140 103q131 137 209 278h4q-8 -55 -8 -88q0 -106 30 -172q29 -65 74 -102q47 -35 98 -47q49 -15 97 -15q114 0 239 62q123 65 229 231l-47 43v0q-51 -78 -135 -153q-43 -35 -92 -58
q-49 -24 -108 -24q-103 2 -144 84q-41 80 -41 200q0 17 2 33q246 58 385 123q72 33 117 64q47 30 74 55q30 31 49 55q18 25 26 47q15 47 15 86q0 86 -64 146q-63 57 -196 59q-168 2 -322 -131l-4 4zM1042 463q31 194 129 340q47 71 105 112q55 41 117 41q59 0 90 -32
q28 -35 28 -91q2 -106 -104 -208q-109 -105 -365 -162v0z" />
    <glyph glyph-name="onequarter" unicode="&#x131;" horiz-adv-x="649" 
d="M270 971l-12 -49l117 -11q43 0 51 -20q8 -21 -8 -74l-172 -641q-23 -88 2 -141q22 -58 104 -60q111 2 197 91q84 83 135 204l-49 29q-29 -59 -84 -133q-25 -35 -51 -57q-27 -27 -49 -27q-29 0 -31 33q-2 30 10 80l223 823l-10 10z" />
    <glyph glyph-name="glyph148" unicode="&#x142;" horiz-adv-x="651" 
d="M811 938l31 108v0l-230 -139v0l150 602l-10 11l-367 -50l-12 -47l116 -14q41 0 50 -21q8 -20 -9 -79l-129 -512l-198 -121l-39 -109v0l213 129v0l-127 -520q-23 -88 2 -141q22 -58 104 -60q109 2 197 93q88 84 137 202l-49 29q-37 -72 -92 -141q-25 -31 -51 -54
q-25 -22 -45 -22q-50 2 -21 110l154 611z" />
    <glyph glyph-name="guilsinglright" unicode="&#xf8;" horiz-adv-x="1100" 
d="M367 209q-7 24 -7 55q0 189 103 430q53 113 129 187q76 73 180 75q98 0 139 -59zM944 811q8 -31 8 -70q0 -55 -20 -168q-21 -112 -68 -233q-45 -119 -123 -203q-75 -88 -186 -90q-111 0 -158 76zM1118 1032l-59 51v0l-82 -102v0q-96 47 -203 47q-180 -2 -295 -80
q-119 -78 -186 -192q-66 -115 -92 -226q-15 -55 -21 -102q-8 -47 -8 -82q0 -164 92 -266l-84 -105l56 -55v0l90 113v0q84 -56 223 -58q168 2 280 76q113 70 183 187q69 114 100 231q29 117 29 201q-2 184 -101 264z" />
    <glyph glyph-name="Igrave" unicode="&#x153;" horiz-adv-x="1651" 
d="M772 956q94 0 133 -57q37 -59 37 -158q0 -55 -20 -168q-21 -112 -68 -233q-45 -119 -119 -203q-74 -88 -180 -90q-182 0 -184 217q0 189 100 430q49 113 127 187q74 73 174 75v0zM1614 309v0q-56 -76 -137 -151q-44 -35 -93 -58q-49 -24 -108 -24q-105 0 -146 82
q-41 80 -41 202q0 15 3 33q253 53 389 113q131 59 192 121q55 55 72 104q14 49 14 92q0 86 -63 146q-64 57 -191 59q-237 -4 -411 -215v0q-21 63 -56 106q-37 39 -84 64q-92 45 -180 45q-180 -2 -295 -80q-119 -78 -186 -192q-66 -115 -92 -226q-15 -55 -21 -102
q-8 -47 -8 -82q0 -166 92 -266q92 -103 281 -105q237 7 387 187v0q18 -58 53 -92q31 -37 68 -58q39 -20 75 -28q35 -9 64 -9q115 0 239 62q123 65 230 231zM1096 463q30 194 129 340q49 71 106 112q55 41 117 41q57 0 88 -32q31 -31 31 -88q2 -111 -105 -211
q-108 -105 -366 -162v0z" />
    <glyph glyph-name="approxequal" unicode="&#xdf;" horiz-adv-x="1182" 
d="M410 926l-252 -1284q-15 -62 -47 -62q-17 0 -41 21q-27 20 -70 80q-8 16 -20 30q-15 15 -35 15q-35 0 -62 -31q-28 -29 -30 -72q6 -49 59 -82q55 -35 127 -37q151 0 233 134q82 133 144 425l168 746q65 295 159 467q95 170 260 172q64 0 123 -43q29 -25 47 -62
q17 -36 17 -92q0 -57 -25 -121q-26 -65 -94 -125q-123 -6 -207 -81q-86 -76 -88 -207q0 -68 37 -135q35 -68 86 -127q63 -74 100 -138q35 -63 35 -127q-2 -67 -35 -102q-34 -37 -84 -37q-34 -2 -71 19q-41 20 -84 82q-23 34 -56 34q-30 0 -57 -24q-27 -27 -27 -68
q7 -45 76 -80q68 -37 160 -39q158 2 244 93q84 86 84 213q-2 86 -37 153q-37 68 -80 117q-41 49 -84 115q-23 30 -35 65q-16 31 -16 62q-2 59 55 116q31 25 86 41q55 17 139 15q95 88 125 155q27 68 25 121q-4 270 -352 279q-134 2 -232 -43q-96 -46 -164 -117
q-67 -72 -106 -154q-43 -82 -64 -157l-14 -46h-178l-23 -77h181z" />
    <glyph glyph-name="uni00B9" unicode="&#xb9;" horiz-adv-x="758" 
d="M717 557l10 47l-98 8q-56 0 -45 47l155 725l-6 9l-307 -43l-6 -39l112 -19q43 -4 29 -41l-127 -592q-8 -47 -63 -47l-105 -8l-10 -47h461z" />
    <glyph glyph-name="glyph153" unicode="&#x2212;" horiz-adv-x="1167" 
d="M190 453h992v118h-992v-118z" />
    <glyph glyph-name="oslash" unicode="&#xb0;" horiz-adv-x="819" 
d="M948 1110q-2 121 -82 201q-80 79 -200 82q-119 -3 -199 -82q-80 -80 -84 -201q2 -119 84 -199q80 -82 199 -84q120 2 200 84q80 80 82 199v0zM664 1294q69 0 120 -51q47 -51 49 -133q-2 -80 -49 -131q-49 -53 -118 -53q-70 0 -117 53q-51 51 -51 131q2 82 51 133t115 51
v0z" />
    <glyph glyph-name="mu" unicode="&#xf3;" horiz-adv-x="1100" 
d="M772 956q94 0 133 -57q37 -59 37 -158q0 -55 -20 -168q-21 -112 -68 -233q-45 -119 -119 -203q-74 -88 -180 -90q-182 0 -184 217q0 189 100 430q49 113 127 187q74 73 174 75v0zM774 1028q-180 -2 -295 -80q-119 -78 -186 -192q-66 -115 -92 -226q-15 -55 -21 -102
q-8 -47 -8 -82q0 -166 92 -266q92 -103 285 -105q168 2 280 76q113 70 183 187q69 114 100 231q29 117 29 201q0 106 -33 176q-33 71 -86 110t-117 58q-65 14 -131 14v0zM682 1110v0l309 172q47 25 82 53q33 27 33 58q-2 32 -27 61q-26 27 -53 27q-23 0 -53 -17
q-33 -20 -78 -67l-244 -246z" />
    <glyph glyph-name="sterling" unicode="&#xd6;" horiz-adv-x="1542" 
d="M1032 1376q361 2 369 -422q0 -86 -15 -213q-18 -127 -82 -290q-59 -168 -174 -285q-116 -123 -315 -125q-358 0 -367 430q-4 260 127 561q72 152 185 246q110 96 272 98v0zM1024 1448q-244 -2 -401 -115q-160 -108 -248 -262q-82 -143 -111 -278q-33 -138 -31 -240
q0 -256 150 -418q147 -164 450 -166q271 4 422 121q154 113 232 268q82 156 106 291q23 137 23 199q-4 313 -168 459q-164 141 -424 141v0zM889 1511q57 0 88 37q31 35 31 88q0 41 -25 70q-27 29 -74 31q-51 0 -84 -33q-37 -35 -37 -92q0 -99 101 -101v0zM1315 1511
q57 0 88 37q30 35 30 88q0 41 -24 70q-27 29 -74 31q-51 0 -84 -33q-37 -35 -37 -92q0 -99 101 -101v0z" />
    <glyph glyph-name="product" unicode="&#xf6;" horiz-adv-x="1100" 
d="M772 956q94 0 133 -57q37 -59 37 -158q0 -55 -20 -168q-21 -112 -68 -233q-45 -119 -119 -203q-74 -88 -180 -90q-182 0 -184 217q0 189 100 430q49 113 127 187q74 73 174 75v0zM774 1028q-180 -2 -295 -80q-119 -78 -186 -192q-66 -115 -92 -226q-15 -55 -21 -102
q-8 -47 -8 -82q0 -166 92 -266q92 -103 285 -105q168 2 280 76q113 70 183 187q69 114 100 231q29 117 29 201q0 106 -33 176q-33 71 -86 110t-117 58q-65 14 -131 14v0zM616 1171q58 0 88 37q31 35 31 88q0 41 -24 70q-27 29 -74 31q-51 0 -84 -33q-37 -35 -37 -92
q0 -99 100 -101v0zM1042 1171q58 0 88 37q31 35 31 88q0 41 -24 70q-27 29 -74 31q-51 0 -84 -33q-37 -35 -37 -92q0 -99 100 -101v0z" />
    <glyph glyph-name="degree" unicode="&#xc9;" horiz-adv-x="1221" 
d="M381 1417l-14 -59l122 -8q70 0 45 -99l-245 -1081q-10 -51 -29 -72q-18 -24 -55 -26l-115 -13l-12 -59h1069l104 360h-61q-72 -182 -168 -237q-96 -53 -281 -51q-75 0 -141 6q-63 6 -88 20q-23 17 -23 51q-2 33 13 101l104 448h268q68 0 107 -6q39 -8 55 -31
q29 -38 17 -139h61l94 428h-61q-17 -51 -35 -84t-45 -55q-47 -37 -176 -35h-268l116 510q8 37 21 49q12 10 37 10h247q99 0 150 -14q51 -18 72 -51q20 -33 22 -82q0 -51 -10 -123h61l78 342h-1036zM840 1520v0l348 114q69 21 96 39q27 16 29 43q2 35 -19 68q-8 16 -20 28
q-13 11 -27 11q-22 6 -51 -7q-29 -12 -82 -49l-297 -202z" />
    <glyph glyph-name="ordmasculine" unicode="&#xfb;" horiz-adv-x="1266" 
d="M1092 1003q-78 -284 -146 -442q-70 -164 -186 -315q-60 -72 -121 -117q-66 -47 -131 -47q-98 0 -51 180l196 756l-10 10l-373 -57l-12 -49l127 -11q37 -2 41 -24q4 -25 -10 -74l-142 -541q-16 -61 -16 -114q-4 -54 8 -95q15 -38 51 -61q33 -25 95 -27q151 5 297 140
q141 131 237 315h4l-67 -233q-29 -103 -7 -160q21 -60 101 -62q110 2 201 93q88 84 141 200l-49 31q-33 -59 -88 -133q-25 -35 -52 -57q-26 -27 -49 -27q-28 0 -35 33q-4 30 9 77l219 836zM1116 1118l47 43l-182 264q-12 19 -29 35q-14 14 -33 14q-36 -2 -81 -49l-283 -264
l29 -43v0l235 154q41 28 66 30q26 -2 57 -30l174 -154v0z" />
    <glyph glyph-name="glyph160" unicode="&#xbc;" horiz-adv-x="1823" 
d="M1180 281q161 219 333 393h13l-88 -393h-258zM1423 213l-22 -111q-13 -47 -56 -49l-94 -6l-10 -47h395l10 47l-67 6q-43 2 -35 49l23 111h133l20 68h-139l115 540h-127q-260 -262 -514 -575l18 -33h350zM543 -49v0l1099 1423l-69 55v0l-1098 -1417zM731 557l10 47l-98 8
q-55 0 -45 47l156 725l-7 9l-307 -43l-6 -39l113 -19q43 -4 28 -41l-127 -592q-8 -47 -63 -47l-104 -8l-11 -47h461z" />
    <glyph glyph-name="daggerdbl" unicode="&#xac;" horiz-adv-x="1167" 
d="M1042 209h140v588h-992v-119h852v-469z" />
    <glyph glyph-name="Zcaron" unicode="&#xca;" horiz-adv-x="1221" 
d="M381 1417l-14 -59l122 -8q70 0 45 -99l-245 -1081q-10 -51 -29 -72q-18 -24 -55 -26l-115 -13l-12 -59h1069l104 360h-61q-72 -182 -168 -237q-96 -53 -281 -51q-75 0 -141 6q-63 6 -88 20q-23 17 -23 51q-2 33 13 101l104 448h268q68 0 107 -6q39 -8 55 -31
q29 -38 17 -139h61l94 428h-61q-17 -51 -35 -84t-45 -55q-47 -37 -176 -35h-268l116 510q8 37 21 49q12 10 37 10h247q99 0 150 -14q51 -18 72 -51q20 -33 22 -82q0 -51 -10 -123h61l78 342h-1036zM1218 1479l37 38l-186 226q-14 22 -31 39q-18 12 -37 12q-34 0 -86 -47
l-286 -227l26 -41v0l240 124q22 13 43 23q18 6 31 6q28 -2 65 -33l184 -120v0z" />
    <glyph glyph-name="glyph163" unicode="&#xbd;" horiz-adv-x="1823" 
d="M678 557l10 47l-98 8q-56 0 -45 47l155 725l-6 9l-307 -43l-6 -39l113 -19q43 -4 28 -41l-127 -592q-8 -47 -63 -47l-105 -8l-10 -47h461zM436 -49v0l1100 1423l-70 55v0l-1097 -1417zM1577 0l74 174l-45 14q-27 -32 -50 -49q-26 -18 -73 -18h-318q43 88 260 194
q142 60 226 127q81 66 84 170q0 101 -66 162q-68 59 -209 62q-145 -5 -223 -70q-78 -66 -78 -127q0 -25 27 -45q22 -21 51 -21q45 2 57 43q56 162 162 162q66 -2 88 -41q21 -43 21 -92q0 -188 -279 -330q-104 -55 -184 -135q-82 -82 -113 -162l14 -18h574z" />
    <glyph glyph-name="Icircumflex" unicode="&#xd5;" horiz-adv-x="1542" 
d="M1032 1376q361 2 369 -422q0 -86 -15 -213q-18 -127 -82 -290q-59 -168 -174 -285q-116 -123 -315 -125q-358 0 -367 430q-4 260 127 561q72 152 185 246q110 96 272 98v0zM1024 1448q-244 -2 -401 -115q-160 -108 -248 -262q-82 -143 -111 -278q-33 -138 -31 -240
q0 -256 150 -418q147 -164 450 -166q271 4 422 121q154 113 232 268q82 156 106 291q23 137 23 199q-4 313 -168 459q-164 141 -424 141v0zM1407 1724q-41 -51 -70 -71q-28 -23 -69 -23q-68 2 -156 39q-41 16 -82 29q-43 10 -80 10q-96 -2 -147 -68q-27 -30 -45 -65
q-21 -35 -37 -68l39 -26q33 55 67 79q33 25 80 25q72 -2 164 -39q47 -14 90 -24q41 -15 74 -15q76 0 123 56q49 51 90 139z" />
    <glyph glyph-name="integral" unicode="&#xfa;" horiz-adv-x="1266" 
d="M1092 1003q-78 -284 -146 -442q-70 -164 -186 -315q-60 -72 -121 -117q-66 -47 -131 -47q-98 0 -51 180l196 756l-10 10l-373 -57l-12 -49l127 -11q37 -2 41 -24q4 -25 -10 -74l-142 -541q-16 -61 -16 -114q-4 -54 8 -95q15 -38 51 -61q33 -25 95 -27q151 5 297 140
q141 131 237 315h4l-67 -233q-29 -103 -7 -160q21 -60 101 -62q110 2 201 93q88 84 141 200l-49 31q-33 -59 -88 -133q-25 -35 -52 -57q-26 -27 -49 -27q-28 0 -35 33q-4 30 9 77l219 836zM774 1110v0l309 172q47 25 82 53q33 27 33 58q-2 32 -27 61q-26 27 -53 27
q-22 0 -53 -17q-33 -20 -78 -67l-244 -246z" />
    <glyph glyph-name="dieresis" unicode="&#xe9;" horiz-adv-x="928" 
d="M891 309v0q-55 -76 -137 -151q-43 -35 -93 -58q-49 -24 -108 -24q-105 0 -145 82q-41 80 -41 202q0 15 2 33q254 53 389 113q131 59 192 121q55 55 72 104q14 49 14 92q0 86 -63 146q-64 57 -191 59q-278 -6 -448 -233q-168 -213 -170 -484q0 -106 33 -172
q28 -65 75 -102q47 -35 101 -47q53 -15 96 -15q115 0 240 62q122 65 229 231zM373 463q30 194 129 340q49 71 106 112q56 41 117 41q57 0 88 -32q31 -31 31 -88q2 -111 -105 -211q-108 -105 -366 -162v0zM637 1110v0l309 172q47 25 82 53q33 27 33 58q-2 32 -27 61
q-26 27 -53 27q-23 0 -53 -17q-33 -20 -78 -67l-244 -246z" />
    <glyph glyph-name="infinity" unicode="&#xed;" horiz-adv-x="649" 
d="M270 971l-12 -49l117 -11q43 0 51 -20q8 -21 -8 -74l-172 -641q-23 -88 2 -141q22 -58 104 -60q111 2 197 91q84 83 135 204l-49 29q-29 -59 -84 -133q-25 -35 -51 -57q-27 -27 -49 -27q-29 0 -31 33q-2 30 10 80l223 823l-10 10zM426 1110v0l309 172q47 25 82 53
q33 27 33 58q-2 32 -27 61q-26 27 -53 27q-23 0 -53 -17q-33 -20 -78 -67l-244 -246z" />
    <glyph glyph-name="Eth" unicode="&#xc8;" horiz-adv-x="1221" 
d="M381 1417l-14 -59l122 -8q70 0 45 -99l-245 -1081q-10 -51 -29 -72q-18 -24 -55 -26l-115 -13l-12 -59h1069l104 360h-61q-72 -182 -168 -237q-96 -53 -281 -51q-75 0 -141 6q-63 6 -88 20q-23 17 -23 51q-2 33 13 101l104 448h268q68 0 107 -6q39 -8 55 -31
q29 -38 17 -139h61l94 428h-61q-17 -51 -35 -84t-45 -55q-47 -37 -176 -35h-268l116 510q8 37 21 49q12 10 37 10h247q99 0 150 -14q51 -18 72 -51q20 -33 22 -82q0 -51 -10 -123h61l78 342h-1036zM1114 1520l23 45l-297 202q-52 37 -80 49q-29 13 -53 7q-23 -7 -43 -39
q-11 -15 -17 -33q-6 -19 -6 -35q2 -27 31 -43q26 -18 94 -39l348 -114v0z" />
    <glyph glyph-name="lessequal" unicode="&#xee;" horiz-adv-x="649" 
d="M270 971l-12 -49l117 -11q43 0 51 -20q8 -21 -8 -74l-172 -641q-23 -88 2 -141q22 -58 104 -60q111 2 197 91q84 83 135 204l-49 29q-29 -59 -84 -133q-25 -35 -51 -57q-27 -27 -49 -27q-29 0 -31 33q-2 30 10 80l223 823l-10 10zM809 1118l47 43l-182 264q-13 19 -29 35
q-14 14 -33 14q-37 -2 -82 -49l-282 -264l28 -43v0l236 154q41 28 65 30q27 -2 58 -30l174 -154v0z" />
    <glyph glyph-name="quotedblright" unicode="&#xb5;" horiz-adv-x="1266" 
d="M1092 1003q-78 -284 -146 -442q-70 -164 -186 -315q-60 -72 -121 -117q-66 -47 -131 -47q-98 0 -51 180l196 756l-10 10l-373 -57l-12 -49l127 -11q37 -2 41 -24q4 -25 -10 -74l-316 -1196q-20 -92 47 -92q52 2 109 39q59 35 61 88q0 29 -6 59q-6 31 -16 66q-16 92 4 180
l16 66v0q54 -48 111 -48q143 5 285 140q139 131 235 315h4l-67 -233q-29 -103 -7 -160q21 -60 101 -62q110 2 201 93q88 84 141 200l-49 31q-33 -59 -88 -133q-25 -35 -52 -57q-26 -27 -49 -27q-28 0 -35 33q-4 30 9 77l219 836z" />
    <glyph glyph-name="glyph171" unicode="&#xa6;" horiz-adv-x="553" 
d="M338 1448v-567h139v567h-139zM338 -31h139v658h-139v-658z" />
    <glyph glyph-name="glyph172" unicode="&#xfe;" horiz-adv-x="1196" 
d="M600 47q-117 0 -180 62q20 104 63 237q41 133 99 240q77 133 178 233q98 100 186 103q111 -3 111 -170q0 -62 -23 -177q-12 -55 -31 -114q-18 -62 -47 -121q-55 -119 -141 -203q-88 -88 -215 -90v0zM287 -471l112 491q64 -43 221 -45q189 2 314 101q125 96 196 231
q74 137 103 260q26 125 26 187q0 272 -227 274q-260 -2 -516 -442h-6l199 837l-11 10l-370 -57l-13 -49l127 -10q66 -4 37 -99l-375 -1714z" />
    <glyph glyph-name="udieresis" unicode="&#xc5;" horiz-adv-x="1278" 
d="M946 625h-407q163 305 331 602h4zM1081 1597q2 -39 -18 -104q-12 -31 -37 -51q-27 -25 -70 -25q-80 0 -84 109q0 41 29 102q27 64 98 68q78 -2 82 -99v0zM1335 0l12 59l-77 7q-45 4 -60 30q-16 27 -22 88l-146 1178q31 10 60 24q28 17 49 41q45 52 47 150q-2 92 -57 141
q-56 45 -136 45q-77 0 -126 -26q-50 -25 -76 -66q-27 -37 -35 -76q-12 -41 -12 -69q0 -52 26 -93q27 -43 84 -69l-319 -551q-197 -350 -350 -610q-48 -78 -82 -103q-35 -28 -82 -32l-68 -9l-12 -59h461l12 59l-113 11q-57 8 -26 75q100 197 211 402h458l47 -398
q7 -40 -6 -59q-14 -18 -45 -20l-108 -11l-13 -59h504z" />
    <glyph glyph-name="glyph174" unicode="&#xfd;" horiz-adv-x="958" 
d="M145 930l7 -51l139 4q33 4 47 -27q14 -33 24 -113q60 -354 68 -716q0 -45 -6 -107q-10 -63 -43 -147q-29 -66 -64 -103q-34 -41 -67 -43q-41 2 -84 64q-31 49 -72 49q-41 -2 -69 -39q-33 -35 -35 -84q2 -43 43 -76q39 -35 106 -37q127 0 215 105q86 104 215 336
q82 143 291 495q94 150 168 279q37 65 59 114q19 50 19 80q0 56 -10 86q-13 29 -27 29q-70 0 -160 -51q4 -55 -2 -135t-24 -148q-27 -88 -105 -239q-80 -152 -184 -330h-6q-31 571 -82 895l-17 8zM651 1110v0l309 172q48 25 82 53q33 27 33 58q-2 32 -26 61q-27 27 -54 27
q-22 0 -53 -17q-33 -20 -78 -67l-244 -246z" />
    <glyph glyph-name="tilde" unicode="&#x178;" horiz-adv-x="1210" 
d="M281 1417l-13 -59q94 -4 125 -21q31 -14 45 -73q103 -310 201 -652q16 -47 0 -108l-78 -344q-10 -82 -84 -86l-147 -15l-13 -59h635l13 59l-156 13q-70 4 -47 88l78 346q12 43 28 74q13 28 29 49q270 389 471 624q51 60 92 82q41 19 123 23l12 59h-469l-12 -59l107 -8
q61 -5 30 -60q-153 -254 -432 -631h-6l-186 629q-17 55 39 59l112 11l12 59h-509zM723 1511q57 0 88 37q31 35 31 88q0 41 -25 70q-27 29 -74 31q-51 0 -84 -33q-36 -35 -36 -92q0 -99 100 -101v0zM1149 1511q57 0 88 37q31 35 31 88q0 41 -25 70q-27 29 -74 31
q-51 0 -84 -33q-36 -35 -36 -92q0 -99 100 -101v0z" />
    <glyph glyph-name="guillemotright" unicode="&#x2122;" horiz-adv-x="2253" 
d="M729 1362h70q104 2 145 -25q39 -30 51 -127h43v207h-780v-207h43q16 97 55 127q41 27 148 25h65v-668q2 -45 -20 -59q-23 -17 -121 -21v-47h442v47q-96 4 -120 21q-23 14 -21 59v668zM1452 567v47q-74 4 -107 19q-32 10 -36 45q-9 57 -9 151v475h9l340 -714h43l342 714h8
v-610q2 -45 -15 -59q-20 -17 -100 -21v-47h385v47q-78 4 -96 21q-21 14 -19 59v596q-2 47 19 62q18 14 96 18v47h-305q-35 -80 -72 -160q-37 -82 -78 -165l-137 -293h-4l-137 290q-37 84 -76 166t-74 162h-311v-47q80 -4 100 -18q17 -15 15 -62v-461q0 -94 -6 -151
q-9 -64 -117 -64v-47h342z" />
    <glyph glyph-name="Delta" unicode="&#xae;" horiz-adv-x="1712" 
d="M1010 326v41l-62 8q-47 6 -45 57v252h70q94 0 123 -61q14 -29 24 -86q8 -60 29 -123q14 -43 51 -64q35 -24 98 -24h90v30q-45 13 -71 35q-39 43 -56 127q-8 70 -38 123q-15 27 -45 45q-31 18 -76 29v4q88 14 143 63q53 49 55 131q0 86 -57 140q-59 51 -209 53h-368v-41
l63 -8q27 -4 35 -17q6 -14 6 -45v-563q0 -24 -6 -39q-8 -14 -35 -18l-63 -8v-41h344zM903 1005q-2 25 16 35q17 9 76 9q62 0 111 -27q49 -31 51 -125q0 -82 -47 -119t-129 -37h-78v264zM1003 -31q318 4 529 217q213 207 217 523q-4 315 -217 524q-211 211 -529 215
q-315 -4 -526 -215q-215 -209 -219 -524q4 -316 219 -523q211 -213 526 -217v0zM1003 1356q265 -4 437 -187q174 -180 178 -460q-4 -277 -178 -459q-172 -187 -437 -189q-264 2 -436 189q-176 182 -178 459q2 280 178 460q172 183 436 187v0z" />
    <glyph glyph-name="summation" unicode="&#xf4;" horiz-adv-x="1100" 
d="M772 956q94 0 133 -57q37 -59 37 -158q0 -55 -20 -168q-21 -112 -68 -233q-45 -119 -119 -203q-74 -88 -180 -90q-182 0 -184 217q0 189 100 430q49 113 127 187q74 73 174 75v0zM774 1028q-180 -2 -295 -80q-119 -78 -186 -192q-66 -115 -92 -226q-15 -55 -21 -102
q-8 -47 -8 -82q0 -166 92 -266q92 -103 285 -105q168 2 280 76q113 70 183 187q69 114 100 231q29 117 29 201q0 106 -33 176q-33 71 -86 110t-117 58q-65 14 -131 14v0zM1051 1118l47 43l-183 264q-12 19 -28 35q-15 14 -33 14q-37 -2 -82 -49l-283 -264l29 -43v0l236 154
q41 28 65 30q27 -2 57 -30l175 -154v0z" />
    <glyph glyph-name="Egrave" unicode="&#xc0;" horiz-adv-x="1278" 
d="M1335 0l12 59l-77 7q-45 4 -60 30q-16 27 -22 88l-152 1233h-145l-344 -604q-197 -350 -350 -610q-48 -78 -82 -103q-35 -28 -82 -32l-68 -9l-12 -59h461l12 59l-113 11q-57 8 -26 75q100 197 211 402h458l47 -398q7 -40 -6 -59q-14 -18 -45 -20l-108 -11l-13 -59h504z
M946 625h-407q163 305 331 602h4zM1102 1520l22 45l-297 202q-51 37 -80 49q-28 13 -53 7q-22 -7 -43 -39q-10 -15 -16 -33q-6 -19 -6 -35q2 -27 30 -43q27 -18 95 -39l348 -114v0z" />
    <glyph glyph-name="glyph180" unicode="&#x160;" horiz-adv-x="1092" 
d="M1108 1057l74 286q-68 54 -168 80q-25 6 -49 13q-25 4 -50 6q-51 6 -100 6q-131 -2 -221 -37q-92 -37 -148 -100q-53 -60 -77 -131q-25 -72 -25 -138q0 -141 88 -227q41 -43 94 -78q54 -37 115 -67q61 -31 111 -62q49 -33 81 -71q70 -78 70 -199q0 -113 -76 -201
q-80 -94 -233 -96q-146 0 -244 104q-100 103 -96 306h-59l-54 -314q66 -80 191 -123q123 -43 237 -45q150 4 250 45q103 37 160 103q59 65 86 145q22 78 22 160q0 262 -307 407q-43 25 -90 52q-45 24 -86 57q-39 35 -61 78q-27 43 -27 100q0 113 76 186q76 72 209 74
q291 -2 248 -319h59zM631 1818l-37 -38l186 -226q19 -22 35 -34q14 -17 33 -17q35 0 86 47l287 228l-27 40v0l-240 -124q-18 -9 -39 -19q-22 -10 -34 -10q-29 2 -66 31l-184 122v0z" />
    <glyph glyph-name="onehalf" unicode="&#xd9;" horiz-adv-x="1626" 
d="M383 1417l-14 -59l120 -11q70 -2 45 -100l-172 -723q-65 -301 72 -430q135 -127 406 -125q106 0 204 19q99 20 183 73q86 56 153 162q66 107 107 283l174 741q12 51 33 76q18 22 53 24l112 11l15 59h-561l-15 -59l121 -11q70 -2 45 -100l-166 -715q-41 -208 -139 -346
q-98 -143 -309 -145q-174 -2 -258 113q-84 112 -23 397l162 696q12 51 33 76q18 24 53 27l113 8l14 59h-561zM1214 1520l23 45l-297 202q-51 37 -80 49q-29 13 -53 7q-23 -7 -43 -39q-10 -15 -17 -33q-6 -19 -6 -35q2 -27 31 -43q27 -18 94 -39l348 -114v0z" />
    <glyph glyph-name="brokenbar" unicode="&#xcb;" horiz-adv-x="1221" 
d="M381 1417l-14 -59l122 -8q70 0 45 -99l-245 -1081q-10 -51 -29 -72q-18 -24 -55 -26l-115 -13l-12 -59h1069l104 360h-61q-72 -182 -168 -237q-96 -53 -281 -51q-75 0 -141 6q-63 6 -88 20q-23 17 -23 51q-2 33 13 101l104 448h268q68 0 107 -6q39 -8 55 -31
q29 -38 17 -139h61l94 428h-61q-17 -51 -35 -84t-45 -55q-47 -37 -176 -35h-268l116 510q8 37 21 49q12 10 37 10h247q99 0 150 -14q51 -18 72 -51q20 -33 22 -82q0 -51 -10 -123h61l78 342h-1036zM727 1511q57 0 88 37q31 35 31 88q0 41 -25 70q-26 29 -74 31
q-51 0 -83 -33q-37 -35 -37 -92q0 -99 100 -101v0zM1153 1511q57 0 88 37q31 35 31 88q0 41 -25 70q-26 29 -74 31q-51 0 -84 -33q-36 -35 -36 -92q0 -99 100 -101v0z" />
    <glyph glyph-name="twosuperior" unicode="&#xda;" horiz-adv-x="1626" 
d="M383 1417l-14 -59l120 -11q70 -2 45 -100l-172 -723q-65 -301 72 -430q135 -127 406 -125q106 0 204 19q99 20 183 73q86 56 153 162q66 107 107 283l174 741q12 51 33 76q18 22 53 24l112 11l15 59h-561l-15 -59l121 -11q70 -2 45 -100l-166 -715q-41 -208 -139 -346
q-98 -143 -309 -145q-174 -2 -258 113q-84 112 -23 397l162 696q12 51 33 76q18 24 53 27l113 8l14 59h-561zM1067 1520v0l348 114q70 21 96 39q27 16 29 43q2 35 -18 68q-9 16 -21 28q-12 11 -27 11q-22 6 -51 -7q-28 -12 -82 -49l-297 -202z" />
    <glyph glyph-name="pi" unicode="&#xf5;" horiz-adv-x="1100" 
d="M772 956q94 0 133 -57q37 -59 37 -158q0 -55 -20 -168q-21 -112 -68 -233q-45 -119 -119 -203q-74 -88 -180 -90q-182 0 -184 217q0 189 100 430q49 113 127 187q74 73 174 75v0zM774 1028q-180 -2 -295 -80q-119 -78 -186 -192q-66 -115 -92 -226q-15 -55 -21 -102
q-8 -47 -8 -82q0 -166 92 -266q92 -103 285 -105q168 2 280 76q113 70 183 187q69 114 100 231q29 117 29 201q0 106 -33 176q-33 71 -86 110t-117 58q-65 14 -131 14v0zM1106 1397q-41 -52 -70 -72q-28 -23 -69 -23q-68 2 -156 39q-41 17 -82 29q-43 10 -80 10
q-96 -2 -147 -67q-27 -31 -45 -66q-21 -35 -37 -67l39 -27q32 55 67 80q33 24 80 24q72 -2 164 -39q47 -14 90 -24q41 -14 74 -14q76 0 123 55q49 51 90 139z" />
    <glyph glyph-name="yen" unicode="&#xf1;" horiz-adv-x="1266" 
d="M381 0q78 285 147 446q64 146 187 306q61 75 127 122q63 45 125 48q55 -3 71 -41q15 -41 -4 -105l-176 -600q-25 -88 0 -141q23 -58 104 -60q117 2 203 91q84 83 135 204l-49 29q-28 -59 -84 -133q-24 -35 -51 -57q-27 -27 -49 -27q-29 0 -31 33q-2 30 10 80l160 536
q39 125 10 211q-16 41 -53 63q-39 23 -102 23q-152 -4 -293 -137q-143 -131 -240 -320h-6l133 447l-10 10l-375 -57l-12 -49l127 -11q66 -2 31 -98l-215 -838zM1175 1397q-40 -52 -69 -72q-29 -23 -70 -23q-67 2 -155 39q-41 17 -82 29q-43 10 -80 10q-96 -2 -148 -67
q-26 -31 -45 -66q-20 -35 -37 -67l39 -27q33 55 68 80q33 24 80 24q71 -2 164 -39q47 -14 90 -24q41 -14 73 -14q76 0 123 55q49 51 90 139z" />
    <glyph glyph-name="circumflex" unicode="&#xff;" horiz-adv-x="958" 
d="M145 930l7 -51l139 4q33 4 47 -27q14 -33 24 -113q60 -354 68 -716q0 -45 -6 -107q-10 -63 -43 -147q-29 -66 -64 -103q-34 -41 -67 -43q-41 2 -84 64q-31 49 -72 49q-41 -2 -69 -39q-33 -35 -35 -84q2 -43 43 -76q39 -35 106 -37q127 0 215 105q86 104 215 336
q82 143 291 495q94 150 168 279q37 65 59 114q19 50 19 80q0 56 -10 86q-13 29 -27 29q-70 0 -160 -51q4 -55 -2 -135t-24 -148q-27 -88 -105 -239q-80 -152 -184 -330h-6q-31 571 -82 895l-17 8zM594 1171q57 0 88 37q31 35 31 88q0 41 -25 70q-27 29 -74 31q-51 0 -84 -33
q-36 -35 -36 -92q0 -99 100 -101v0zM1020 1171q57 0 88 37q31 35 31 88q0 41 -25 70q-27 29 -74 31q-51 0 -84 -33q-37 -35 -37 -92q0 -99 101 -101v0z" />
    <glyph glyph-name="zcaron" unicode="&#xc1;" horiz-adv-x="1278" 
d="M1335 0l12 59l-77 7q-45 4 -60 30q-16 27 -22 88l-152 1233h-145l-344 -604q-197 -350 -350 -610q-48 -78 -82 -103q-35 -28 -82 -32l-68 -9l-12 -59h461l12 59l-113 11q-57 8 -26 75q100 197 211 402h458l47 -398q7 -40 -6 -59q-14 -18 -45 -20l-108 -11l-13 -59h504z
M946 625h-407q163 305 331 602h4zM821 1520v0l348 114q70 21 97 39q26 16 28 43q2 35 -18 68q-8 16 -21 28q-12 11 -26 11q-23 6 -51 -7q-29 -12 -82 -49l-297 -202z" />
    <glyph glyph-name="glyph188" unicode="&#xf0;" horiz-adv-x="1100" 
d="M772 956q170 0 168 -204q0 -62 -21 -175q-20 -114 -67 -235q-45 -121 -119 -205q-74 -88 -180 -90q-184 0 -186 209q0 195 100 438q53 113 129 187q74 73 176 75v0zM1102 1382l-47 66v0l-262 -117v0q-115 111 -226 189v0l-78 -35v-13q105 -92 189 -192l-270 -121l47 -65
v0l274 122v0q100 -124 129 -196v-6q-37 14 -72 14q-182 -2 -301 -80q-120 -80 -190 -194q-70 -115 -98 -226q-15 -55 -21 -102q-8 -45 -8 -80q0 -166 90 -266q90 -103 270 -105q179 2 297 80q117 74 187 185q69 112 100 229q27 115 27 197q0 133 -35 235q-37 100 -109 199
q-53 80 -143 172z" />
    <glyph glyph-name="germandbls" unicode="&#xe2;" horiz-adv-x="1149" 
d="M985 911q-55 -250 -219 -518q-86 -133 -174 -219q-43 -43 -84 -65q-43 -27 -80 -27q-49 0 -70 43q-20 41 -20 100q2 195 141 453q68 119 166 198q96 78 215 80q76 0 125 -45v0zM1016 1012l-11 -27q-59 41 -149 43q-182 -2 -317 -86q-136 -86 -226 -215
q-178 -281 -178 -508q0 -94 47 -166q45 -76 150 -78q84 2 159 45q76 41 144 109q135 143 225 309h4l-69 -233q-70 -225 90 -230q116 2 202 91q86 83 138 204l-50 29q-28 -59 -83 -133q-25 -35 -52 -57q-26 -27 -49 -27q-29 0 -31 33q-2 30 11 80l217 817h-172zM1132 1118
l48 43l-183 264q-12 19 -28 35q-15 14 -33 14q-37 -2 -82 -49l-283 -264l29 -43v0l236 154q40 28 65 30q27 -2 57 -30l174 -154v0z" />
    <glyph glyph-name="trademark" unicode="&#xe5;" horiz-adv-x="1149" 
d="M985 911q-55 -250 -219 -518q-86 -133 -174 -219q-43 -43 -84 -65q-43 -27 -80 -27q-49 0 -70 43q-20 41 -20 100q2 195 141 453q68 119 166 198q96 78 215 80q76 0 125 -45v0zM1016 1012l-11 -27q-59 41 -149 43q-182 -2 -317 -86q-136 -86 -226 -215
q-178 -281 -178 -508q0 -94 47 -166q45 -76 150 -78q84 2 159 45q76 41 144 109q135 143 225 309h4l-69 -233q-70 -225 90 -230q116 2 202 91q86 83 138 204l-50 29q-28 -59 -83 -133q-25 -35 -52 -57q-26 -27 -49 -27q-29 0 -31 33q-2 30 11 80l217 817h-172zM944 1374
q2 -39 -18 -104q-13 -31 -37 -52q-27 -24 -70 -24q-80 0 -84 108q0 41 29 103q26 63 98 67q78 -2 82 -98v0zM618 1302q0 -86 58 -129q55 -47 139 -47q74 0 123 23q47 22 74 55q26 35 39 76q10 37 10 74q-2 92 -58 141q-57 45 -137 45q-76 0 -125 -27q-49 -24 -75 -65
q-27 -37 -35 -76q-13 -41 -13 -70v0z" />
    <glyph glyph-name="onesuperior" unicode="&#xd2;" horiz-adv-x="1542" 
d="M1032 1376q361 2 369 -422q0 -86 -15 -213q-18 -127 -82 -290q-59 -168 -174 -285q-116 -123 -315 -125q-358 0 -367 430q-4 260 127 561q72 152 185 246q110 96 272 98v0zM1024 1448q-244 -2 -401 -115q-160 -108 -248 -262q-82 -143 -111 -278q-33 -138 -31 -240
q0 -256 150 -418q147 -164 450 -166q271 4 422 121q154 113 232 268q82 156 106 291q23 137 23 199q-4 313 -168 459q-164 141 -424 141v0zM1245 1520l23 45l-297 202q-52 37 -80 49q-29 13 -53 7q-23 -7 -43 -39q-11 -15 -17 -33q-6 -19 -6 -35q2 -27 31 -43q26 -18 94 -39
l348 -114v0z" />
    <glyph glyph-name="acute" unicode="&#xe7;" horiz-adv-x="903" 
d="M876 315v0q-53 -75 -137 -153q-41 -37 -88 -60q-49 -26 -102 -26q-109 2 -146 80q-18 39 -26 88q-8 47 -8 100q2 213 102 408q47 90 109 147q61 57 131 57q51 0 82 -34q30 -39 40 -129q7 -60 60 -62q41 0 84 33q45 33 47 82q-2 82 -74 131q-71 51 -190 51
q-277 -6 -432 -235q-162 -224 -162 -490q2 -180 90 -254q41 -37 92 -53q49 -19 103 -21l-107 -151l6 -19q55 -4 84 -32q29 -29 29 -74q-2 -72 -64 -90q-61 -21 -137 -10l-8 -50q53 -18 135 -20q86 0 150 41q63 37 77 109q15 77 -28 135q-45 53 -119 63l78 107q96 16 196 84
q97 65 183 208z" />
    <glyph glyph-name="multiply" unicode="&#xd7;" horiz-adv-x="1167" 
d="M1161 885l-86 94v0l-368 -377v0l-371 377v0l-84 -94l366 -373l-366 -377l84 -90v0l371 377v0l368 -377v0l86 90l-366 377z" />
    <glyph glyph-name="Ugrave" unicode="&#xf7;" horiz-adv-x="1167" 
d="M686 729q51 0 84 37q33 35 33 86l2 4q0 49 -33 84q-35 33 -86 33q-53 0 -86 -35q-37 -35 -37 -86t37 -86q33 -37 86 -37v0zM686 51q51 0 84 37q33 35 33 86l2 4q0 49 -33 84q-35 33 -86 33q-53 0 -86 -35q-37 -35 -37 -86t37 -86q33 -37 86 -37v0zM190 453h992v118h-992
v-118z" />
    <glyph glyph-name="uni00B2" unicode="&#xb2;" horiz-adv-x="758" 
d="M731 557l74 174l-45 14q-27 -32 -49 -49q-27 -18 -74 -18h-318q43 88 261 194q141 60 225 127q82 66 84 170q0 101 -66 162q-67 59 -209 62q-145 -5 -223 -70q-78 -66 -78 -127q0 -25 27 -45q22 -21 51 -21q45 2 57 43q56 162 162 162q66 -2 88 -41q21 -43 21 -92
q0 -188 -279 -330q-104 -55 -184 -135q-82 -82 -113 -162l15 -18h573z" />
    <glyph glyph-name="cent" unicode="&#xd1;" horiz-adv-x="1563" 
d="M371 1417l-15 -59l121 -13q70 -2 45 -98l-192 -839q-35 -158 -72 -254q-18 -48 -45 -66q-31 -16 -76 -22l-63 -7l-11 -59h484l10 59l-80 7q-49 4 -72 24q-24 19 -22 64q8 96 43 254l192 839h7q288 -622 569 -1247h133l229 1010q37 157 72 254q18 47 49 67q27 19 72 21
l63 6l11 59h-484l-10 -59l80 -8q51 -5 76 -19q24 -16 18 -67q-8 -97 -43 -254l-168 -742h-8q-264 576 -524 1149h-389zM1442 1724q-41 -51 -70 -71q-29 -23 -70 -23q-67 2 -155 39q-41 16 -82 29q-43 10 -80 10q-96 -2 -147 -68q-27 -30 -45 -65q-21 -35 -37 -68l39 -26
q32 55 67 79q33 25 80 25q72 -2 164 -39q47 -14 90 -24q41 -15 74 -15q75 0 123 56q49 51 90 139z" />
    <glyph glyph-name="ordfeminine" unicode="&#xf9;" horiz-adv-x="1266" 
d="M1092 1003q-78 -284 -146 -442q-70 -164 -186 -315q-60 -72 -121 -117q-66 -47 -131 -47q-98 0 -51 180l196 756l-10 10l-373 -57l-12 -49l127 -11q37 -2 41 -24q4 -25 -10 -74l-142 -541q-16 -61 -16 -114q-4 -54 8 -95q15 -38 51 -61q33 -25 95 -27q151 5 297 140
q141 131 237 315h4l-67 -233q-29 -103 -7 -160q21 -60 101 -62q110 2 201 93q88 84 141 200l-49 31q-33 -59 -88 -133q-25 -35 -52 -57q-26 -27 -49 -27q-28 0 -35 33q-4 30 9 77l219 836zM936 1110l31 41l-244 246q-45 47 -74 67q-31 17 -57 17q-25 0 -51 -27
q-29 -29 -29 -61q0 -31 35 -58q33 -28 80 -53l309 -172v0z" />
    <glyph glyph-name="threesuperior" unicode="&#xdb;" horiz-adv-x="1626" 
d="M383 1417l-14 -59l120 -11q70 -2 45 -100l-172 -723q-65 -301 72 -430q135 -127 406 -125q106 0 204 19q99 20 183 73q86 56 153 162q66 107 107 283l174 741q12 51 33 76q18 22 53 24l112 11l15 59h-561l-15 -59l121 -11q70 -2 45 -100l-166 -715q-41 -208 -139 -346
q-98 -143 -309 -145q-174 -2 -258 113q-84 112 -23 397l162 696q12 51 33 76q18 24 53 27l113 8l14 59h-561zM1417 1479l37 38l-186 226q-15 22 -31 39q-19 12 -37 12q-35 0 -86 -47l-287 -227l27 -41v0l240 124q22 13 43 23q18 6 30 6q29 -2 66 -33l184 -120v0z" />
    <glyph glyph-name="Iacute" unicode="&#xc3;" horiz-adv-x="1278" 
d="M1335 0l12 59l-77 7q-45 4 -60 30q-16 27 -22 88l-152 1233h-145l-344 -604q-197 -350 -350 -610q-48 -78 -82 -103q-35 -28 -82 -32l-68 -9l-12 -59h461l12 59l-113 11q-57 8 -26 75q100 197 211 402h458l47 -398q7 -40 -6 -59q-14 -18 -45 -20l-108 -11l-13 -59h504z
M946 625h-407q163 305 331 602h4zM1298 1724q-41 -51 -69 -71q-29 -23 -70 -23q-67 2 -156 39q-41 16 -81 29q-43 10 -80 10q-97 -2 -148 -68q-26 -30 -45 -65q-20 -35 -37 -68l39 -26q33 55 68 79q33 25 80 25q71 -2 163 -39q48 -14 91 -24q41 -15 73 -15q76 0 123 56
q49 51 90 139z" />
    <glyph glyph-name="greaterequal" unicode="&#xef;" horiz-adv-x="649" 
d="M270 971l-12 -49l117 -11q43 0 51 -20q8 -21 -8 -74l-172 -641q-23 -88 2 -141q22 -58 104 -60q111 2 197 91q84 83 135 204l-49 29q-29 -59 -84 -133q-25 -35 -51 -57q-27 -27 -49 -27q-29 0 -31 33q-2 30 10 80l223 823l-10 10zM342 1171q57 0 88 37q31 35 31 88
q0 41 -25 70q-26 29 -74 31q-51 0 -83 -33q-37 -35 -37 -92q0 -99 100 -101v0zM768 1171q57 0 88 37q31 35 31 88q0 41 -25 70q-26 29 -74 31q-51 0 -84 -33q-36 -35 -36 -92q0 -99 100 -101v0z" />
    <glyph glyph-name="scaron" unicode="&#xc2;" horiz-adv-x="1278" 
d="M1335 0l12 59l-77 7q-45 4 -60 30q-16 27 -22 88l-152 1233h-145l-344 -604q-197 -350 -350 -610q-48 -78 -82 -103q-35 -28 -82 -32l-68 -9l-12 -59h461l12 59l-113 11q-57 8 -26 75q100 197 211 402h458l47 -398q7 -40 -6 -59q-14 -18 -45 -20l-108 -11l-13 -59h504z
M946 625h-407q163 305 331 602h4zM1235 1479l37 38l-187 226q-14 22 -30 39q-19 12 -37 12q-35 0 -86 -47l-287 -227l27 -41v0l239 124q23 13 43 23q19 6 31 6q29 -2 66 -33l184 -120v0z" />
    <glyph glyph-name="Yacute" unicode="&#xce;" horiz-adv-x="707" 
d="M643 0l12 59l-121 9q-69 6 -45 102l246 1077q10 49 31 74q18 24 55 26l113 11l14 59h-561l-14 -59l121 -8q36 -5 47 -29q10 -27 -2 -74l-246 -1077q-17 -94 -86 -98l-113 -13l-12 -59h561zM962 1479l37 38l-186 226q-14 22 -31 39q-18 12 -37 12q-34 0 -86 -47l-286 -227
l26 -41v0l240 124q22 13 43 23q18 6 31 6q28 -2 65 -33l184 -120v0z" />
    <glyph glyph-name="glyph203" unicode="&#xdd;" horiz-adv-x="1210" 
d="M281 1417l-13 -59q94 -4 125 -21q31 -14 45 -73q103 -310 201 -652q16 -47 0 -108l-78 -344q-10 -82 -84 -86l-147 -15l-13 -59h635l13 59l-156 13q-70 4 -47 88l78 346q12 43 28 74q13 28 29 49q270 389 471 624q51 60 92 82q41 19 123 23l12 59h-469l-12 -59l107 -8
q61 -5 30 -60q-153 -254 -432 -631h-6l-186 629q-17 55 39 59l112 11l12 59h-509zM962 1520v0l349 114q69 21 96 39q26 16 29 43q2 35 -19 68q-8 16 -20 28q-13 11 -27 11q-23 6 -51 -7q-29 -12 -82 -49l-297 -202z" />
    <glyph glyph-name="thorn" unicode="&#xd3;" horiz-adv-x="1542" 
d="M1032 1376q361 2 369 -422q0 -86 -15 -213q-18 -127 -82 -290q-59 -168 -174 -285q-116 -123 -315 -125q-358 0 -367 430q-4 260 127 561q72 152 185 246q110 96 272 98v0zM1024 1448q-244 -2 -401 -115q-160 -108 -248 -262q-82 -143 -111 -278q-33 -138 -31 -240
q0 -256 150 -418q147 -164 450 -166q271 4 422 121q154 113 232 268q82 156 106 291q23 137 23 199q-4 313 -168 459q-164 141 -424 141v0zM944 1520v0l348 114q70 21 96 39q27 16 29 43q2 35 -18 68q-9 16 -21 28q-12 11 -26 11q-23 6 -52 -7q-28 -12 -82 -49l-296 -202z
" />
    <glyph glyph-name="ucircumflex" unicode="&#xc4;" horiz-adv-x="1278" 
d="M1335 0l12 59l-77 7q-45 4 -60 30q-16 27 -22 88l-152 1233h-145l-344 -604q-197 -350 -350 -610q-48 -78 -82 -103q-35 -28 -82 -32l-68 -9l-12 -59h461l12 59l-113 11q-57 8 -26 75q100 197 211 402h458l47 -398q7 -40 -6 -59q-14 -18 -45 -20l-108 -11l-13 -59h504z
M946 625h-407q163 305 331 602h4zM756 1511q57 0 88 37q30 35 30 88q0 41 -24 70q-27 29 -74 31q-51 0 -84 -33q-37 -35 -37 -92q0 -99 101 -101v0zM1182 1511q57 0 88 37q30 35 30 88q0 41 -24 70q-27 29 -74 31q-51 0 -84 -33q-37 -35 -37 -92q0 -99 101 -101v0z" />
    <glyph glyph-name="paragraph" unicode="&#xe0;" horiz-adv-x="1149" 
d="M985 911q-55 -250 -219 -518q-86 -133 -174 -219q-43 -43 -84 -65q-43 -27 -80 -27q-49 0 -70 43q-20 41 -20 100q2 195 141 453q68 119 166 198q96 78 215 80q76 0 125 -45v0zM1016 1012l-11 -27q-59 41 -149 43q-182 -2 -317 -86q-136 -86 -226 -215
q-178 -281 -178 -508q0 -94 47 -166q45 -76 150 -78q84 2 159 45q76 41 144 109q135 143 225 309h4l-69 -233q-70 -225 90 -230q116 2 202 91q86 83 138 204l-50 29q-28 -59 -83 -133q-25 -35 -52 -57q-26 -27 -49 -27q-29 0 -31 33q-2 30 11 80l217 817h-172zM981 1110
l31 41l-244 246q-45 47 -74 67q-30 17 -57 17q-25 0 -51 -27q-29 -29 -29 -61q0 -31 35 -58q33 -28 80 -53l309 -172v0z" />
    <glyph glyph-name="uni00B3" unicode="&#xb3;" horiz-adv-x="758" 
d="M600 1393q-135 -3 -207 -56q-74 -53 -74 -110q0 -23 25 -43q21 -21 45 -21q25 0 37 12q12 11 20 27q27 55 62 94q37 39 96 39q100 0 105 -114q0 -70 -39 -129q-43 -64 -131 -66q-35 0 -70 8q-39 8 -55 8q-33 -2 -35 -61q0 -33 26 -33q15 0 52 8q32 6 61 6q59 0 94 -32
q31 -33 31 -111q0 -94 -43 -155q-43 -64 -123 -64q-110 0 -149 131q-4 25 -17 41q-10 12 -35 12q-36 -2 -59 -24q-25 -27 -25 -56q0 -55 70 -104q68 -55 201 -57q186 2 270 77q80 74 80 177q0 61 -33 118q-37 58 -133 78v4q96 11 160 60q59 49 61 133q0 196 -268 203v0z" />
    <glyph glyph-name="partialdiff" unicode="&#xf2;" horiz-adv-x="1100" 
d="M772 956q94 0 133 -57q37 -59 37 -158q0 -55 -20 -168q-21 -112 -68 -233q-45 -119 -119 -203q-74 -88 -180 -90q-182 0 -184 217q0 189 100 430q49 113 127 187q74 73 174 75v0zM774 1028q-180 -2 -295 -80q-119 -78 -186 -192q-66 -115 -92 -226q-15 -55 -21 -102
q-8 -47 -8 -82q0 -166 92 -266q92 -103 285 -105q168 2 280 76q113 70 183 187q69 114 100 231q29 117 29 201q0 106 -33 176q-33 71 -86 110t-117 58q-65 14 -131 14v0zM905 1110l31 41l-244 246q-45 47 -74 67q-30 17 -57 17q-24 0 -51 -27q-29 -29 -29 -61q0 -31 35 -58
q33 -28 80 -53l309 -172v0z" />
    <glyph glyph-name="glyph209" unicode="&#xbe;" horiz-adv-x="1823" 
d="M1446 213l-23 -111q-12 -47 -55 -49l-94 -6l-10 -47h395l10 47l-68 6q-43 2 -34 49l22 111h133l21 68h-140l115 540h-127q-260 -262 -514 -575l19 -33h350zM1202 281q162 219 334 393h12l-88 -393h-258zM590 -49v0l1099 1423l-69 55v0l-1098 -1417zM694 1393
q-135 -3 -207 -56q-73 -53 -73 -110q0 -23 24 -43q21 -21 45 -21q25 0 37 12q12 11 21 27q26 55 61 94q37 39 96 39q101 0 105 -114q0 -70 -39 -129q-43 -64 -131 -66q-35 0 -70 8q-39 8 -55 8q-33 -2 -35 -61q0 -33 27 -33q14 0 51 8q33 6 61 6q60 0 95 -32q30 -33 30 -111
q0 -94 -43 -155q-43 -64 -123 -64q-110 0 -149 131q-4 25 -17 41q-10 12 -34 12q-37 -2 -60 -24q-24 -27 -24 -56q0 -55 69 -104q68 -55 201 -57q186 2 270 77q80 74 80 177q0 61 -33 118q-36 58 -133 78v4q97 11 160 60q59 49 61 133q0 196 -268 203v0z" />
    <glyph glyph-name="glyph210" unicode="&#xd0;" horiz-adv-x="1577" 
d="M899 698l23 78h-281l111 494q10 51 57 65q47 10 166 10q160 -4 254 -51t139 -119q45 -71 59 -147q11 -78 11 -141q0 -267 -134 -496q-83 -145 -231 -231q-149 -88 -401 -88q-84 -2 -133 20q-48 19 -35 84l119 522h276zM426 698l-119 -528q-8 -47 -26 -72q-21 -24 -58 -26
l-114 -13l-13 -59h629q305 0 496 102q190 101 299 269q86 135 114 256q23 120 23 215q0 127 -43 239q-43 113 -133 189q-185 147 -531 147h-551l-12 -59l121 -11q67 -2 43 -100l-107 -471h-217l-20 -78h219z" />
    <glyph glyph-name="oe" unicode="&#xb1;" horiz-adv-x="1167" 
d="M190 637h428v-404h140v404h424v119h-424v383h-140v-383h-428v-119zM190 0h992v119h-992v-119z" />
    <glyph glyph-name="Omega" unicode="&#xfc;" horiz-adv-x="1266" 
d="M1092 1003q-78 -284 -146 -442q-70 -164 -186 -315q-60 -72 -121 -117q-66 -47 -131 -47q-98 0 -51 180l196 756l-10 10l-373 -57l-12 -49l127 -11q37 -2 41 -24q4 -25 -10 -74l-142 -541q-16 -61 -16 -114q-4 -54 8 -95q15 -38 51 -61q33 -25 95 -27q151 5 297 140
q141 131 237 315h4l-67 -233q-29 -103 -7 -160q21 -60 101 -62q110 2 201 93q88 84 141 200l-49 31q-33 -59 -88 -133q-25 -35 -52 -57q-26 -27 -49 -27q-28 0 -35 33q-4 30 9 77l219 836zM674 1171q57 0 88 37q31 35 31 88q0 41 -25 70q-27 29 -74 31q-51 0 -84 -33
q-37 -35 -37 -92q0 -99 101 -101v0zM1100 1171q57 0 88 37q30 35 30 88q0 41 -24 70q-27 29 -74 31q-51 0 -84 -33q-37 -35 -37 -92q0 -99 101 -101v0z" />
    <glyph glyph-name="Oslash" unicode="&#xeb;" horiz-adv-x="928" 
d="M891 309v0q-55 -76 -137 -151q-43 -35 -93 -58q-49 -24 -108 -24q-105 0 -145 82q-41 80 -41 202q0 15 2 33q254 53 389 113q131 59 192 121q55 55 72 104q14 49 14 92q0 86 -63 146q-64 57 -191 59q-278 -6 -448 -233q-168 -213 -170 -484q0 -106 33 -172
q28 -65 75 -102q47 -35 101 -47q53 -15 96 -15q115 0 240 62q122 65 229 231zM373 463q30 194 129 340q49 71 106 112q56 41 117 41q57 0 88 -32q31 -31 31 -88q2 -111 -105 -211q-108 -105 -366 -162v0zM530 1171q58 0 88 37q31 35 31 88q0 41 -24 70q-27 29 -74 31
q-51 0 -84 -33q-37 -35 -37 -92q0 -99 100 -101v0zM956 1171q58 0 88 37q31 35 31 88q0 41 -24 70q-27 29 -74 31q-51 0 -84 -33q-37 -35 -37 -92q0 -99 100 -101v0z" />
    <glyph glyph-name="bullet" unicode="&#xe1;" horiz-adv-x="1149" 
d="M985 911q-55 -250 -219 -518q-86 -133 -174 -219q-43 -43 -84 -65q-43 -27 -80 -27q-49 0 -70 43q-20 41 -20 100q2 195 141 453q68 119 166 198q96 78 215 80q76 0 125 -45v0zM1016 1012l-11 -27q-59 41 -149 43q-182 -2 -317 -86q-136 -86 -226 -215
q-178 -281 -178 -508q0 -94 47 -166q45 -76 150 -78q84 2 159 45q76 41 144 109q135 143 225 309h4l-69 -233q-70 -225 90 -230q116 2 202 91q86 83 138 204l-50 29q-28 -59 -83 -133q-25 -35 -52 -57q-26 -27 -49 -27q-29 0 -31 33q-2 30 11 80l217 817h-172zM788 1110v0
l310 172q47 25 82 53q32 27 32 58q-2 32 -26 61q-27 27 -54 27q-22 0 -53 -17q-33 -20 -78 -67l-243 -246z" />
    <glyph glyph-name="plusminus" unicode="&#xec;" horiz-adv-x="649" 
d="M270 971l-12 -49l117 -11q43 0 51 -20q8 -21 -8 -74l-172 -641q-23 -88 2 -141q22 -58 104 -60q111 2 197 91q84 83 135 204l-49 29q-29 -59 -84 -133q-25 -35 -51 -57q-27 -27 -49 -27q-29 0 -31 33q-2 30 10 80l223 823l-10 10zM690 1110l31 41l-244 246q-45 47 -74 67
q-30 17 -57 17q-24 0 -51 -27q-29 -29 -29 -61q0 -31 35 -58q33 -28 80 -53l309 -172v0z" />
    <glyph glyph-name="yacute" unicode="&#xcf;" horiz-adv-x="707" 
d="M643 0l12 59l-121 9q-69 6 -45 102l246 1077q10 49 31 74q18 24 55 26l113 11l14 59h-561l-14 -59l121 -8q36 -5 47 -29q10 -27 -2 -74l-246 -1077q-17 -94 -86 -98l-113 -13l-12 -59h561zM471 1511q57 0 88 37q31 35 31 88q0 41 -25 70q-26 29 -74 31q-51 0 -83 -33
q-37 -35 -37 -92q0 -99 100 -101v0zM897 1511q57 0 88 37q31 35 31 88q0 41 -25 70q-26 29 -74 31q-51 0 -84 -33q-36 -35 -36 -92q0 -99 100 -101v0z" />
    <glyph glyph-name="registered" unicode="&#xe4;" horiz-adv-x="1149" 
d="M985 911q-55 -250 -219 -518q-86 -133 -174 -219q-43 -43 -84 -65q-43 -27 -80 -27q-49 0 -70 43q-20 41 -20 100q2 195 141 453q68 119 166 198q96 78 215 80q76 0 125 -45v0zM1016 1012l-11 -27q-59 41 -149 43q-182 -2 -317 -86q-136 -86 -226 -215
q-178 -281 -178 -508q0 -94 47 -166q45 -76 150 -78q84 2 159 45q76 41 144 109q135 143 225 309h4l-69 -233q-70 -225 90 -230q116 2 202 91q86 83 138 204l-50 29q-28 -59 -83 -133q-25 -35 -52 -57q-26 -27 -49 -27q-29 0 -31 33q-2 30 11 80l217 817h-172zM641 1171
q57 0 88 37q31 35 31 88q0 41 -25 70q-26 29 -74 31q-51 0 -84 -33q-36 -35 -36 -92q0 -99 100 -101v0zM1067 1171q57 0 88 37q31 35 31 88q0 41 -25 70q-26 29 -74 31q-51 0 -84 -33q-36 -35 -36 -92q0 -99 100 -101v0z" />
    <glyph glyph-name="eth" unicode="&#xcd;" horiz-adv-x="707" 
d="M643 0l12 59l-121 9q-69 6 -45 102l246 1077q10 49 31 74q18 24 55 26l113 11l14 59h-561l-14 -59l121 -8q36 -5 47 -29q10 -27 -2 -74l-246 -1077q-17 -94 -86 -98l-113 -13l-12 -59h561zM522 1520v0l348 114q70 21 97 39q26 16 28 43q2 35 -18 68q-8 16 -21 28
q-12 11 -26 11q-23 6 -51 -7q-29 -12 -82 -49l-297 -202z" />
    <glyph glyph-name="guillemotleft" unicode="&#xa9;" horiz-adv-x="1712" 
d="M1319 862v201q-47 31 -121 49q-76 14 -152 14q-432 -10 -432 -413q-2 -176 99 -289q96 -117 319 -119q199 0 281 64l22 204h-41q-49 -213 -241 -211q-154 3 -213 121q-31 54 -45 119q-15 66 -15 129q-2 139 62 238q61 98 200 100q125 -2 174 -59q27 -29 41 -66
q15 -39 21 -82h41zM1003 -31q318 4 529 217q213 207 217 523q-4 315 -217 524q-211 211 -529 215q-315 -4 -526 -215q-215 -209 -219 -524q4 -316 219 -523q211 -213 526 -217v0zM1003 1356q265 -4 437 -187q174 -180 178 -460q-4 -277 -178 -459q-172 -187 -437 -189
q-264 2 -436 189q-176 182 -178 459q2 280 178 460q172 183 436 187v0z" />
    <glyph glyph-name="Thorn" unicode="&#xcc;" horiz-adv-x="707" 
d="M643 0l12 59l-121 9q-69 6 -45 102l246 1077q10 49 31 74q18 24 55 26l113 11l14 59h-561l-14 -59l121 -8q36 -5 47 -29q10 -27 -2 -74l-246 -1077q-17 -94 -86 -98l-113 -13l-12 -59h561zM846 1520l22 45l-297 202q-51 37 -80 49q-28 13 -53 7q-22 -7 -43 -39
q-10 -15 -16 -33q-6 -19 -6 -35q2 -27 30 -43q27 -18 95 -39l348 -114v0z" />
    <glyph glyph-name="dagger" unicode="&#xc7;" horiz-adv-x="1354" 
d="M1390 381h-61q-78 -156 -180 -246q-103 -94 -289 -94q-180 0 -291 117q-114 116 -116 352q0 303 147 575q154 283 483 291q367 -2 334 -344h62l73 307q-90 56 -215 84q-127 25 -237 25q-287 -4 -463 -113q-176 -110 -264 -260q-82 -137 -111 -270t-29 -242q0 -94 27 -190
q25 -97 84 -183q61 -84 168 -139q104 -59 260 -76l-104 -151l6 -19q55 -4 84 -32q28 -29 28 -74q-2 -72 -63 -90q-62 -21 -137 -10l-9 -50q54 -18 136 -20q86 0 149 41q64 37 78 109q14 77 -29 135q-45 53 -118 63l67 92h14q111 0 215 21q103 18 201 65z" />
    <glyph glyph-name="glyph222" unicode="&#x161;" horiz-adv-x="797" 
d="M625 1028q-158 -2 -244 -86q-88 -86 -88 -215q0 -80 51 -150q47 -73 129 -137q139 -112 141 -239q0 -72 -41 -113t-106 -41q-125 2 -184 172q-17 60 -66 62q-47 0 -76 -33q-30 -33 -30 -78q0 -70 81 -129q80 -64 226 -66q168 2 262 95q90 86 92 215q0 84 -41 159
q-45 72 -147 154q-88 76 -117 131q-31 51 -29 94q0 53 37 92q35 39 90 41q101 0 164 -141q14 -41 57 -41q33 0 66 25q31 24 33 69q0 54 -60 107q-63 51 -200 53v0zM446 1497l-47 -43l183 -264q16 -19 30 -33q17 -16 31 -16q37 2 82 49l283 264l-29 43v0l-236 -154
q-18 -12 -34 -20q-19 -10 -31 -10q-27 2 -58 30l-174 154v0z" />
    <glyph glyph-name="notequal" unicode="&#xe8;" horiz-adv-x="928" 
d="M891 309v0q-55 -76 -137 -151q-43 -35 -93 -58q-49 -24 -108 -24q-105 0 -145 82q-41 80 -41 202q0 15 2 33q254 53 389 113q131 59 192 121q55 55 72 104q14 49 14 92q0 86 -63 146q-64 57 -191 59q-278 -6 -448 -233q-168 -213 -170 -484q0 -106 33 -172
q28 -65 75 -102q47 -35 101 -47q53 -15 96 -15q115 0 240 62q122 65 229 231zM373 463q30 194 129 340q49 71 106 112q56 41 117 41q57 0 88 -32q31 -31 31 -88q2 -111 -105 -211q-108 -105 -366 -162v0zM819 1110l31 41l-244 246q-45 47 -74 67q-30 17 -57 17
q-24 0 -51 -27q-29 -29 -29 -61q0 -31 35 -58q33 -28 80 -53l309 -172v0z" />
    <glyph glyph-name="minus" unicode="&#xd4;" horiz-adv-x="1542" 
d="M1032 1376q361 2 369 -422q0 -86 -15 -213q-18 -127 -82 -290q-59 -168 -174 -285q-116 -123 -315 -125q-358 0 -367 430q-4 260 127 561q72 152 185 246q110 96 272 98v0zM1024 1448q-244 -2 -401 -115q-160 -108 -248 -262q-82 -143 -111 -278q-33 -138 -31 -240
q0 -256 150 -418q147 -164 450 -166q271 4 422 121q154 113 232 268q82 156 106 291q23 137 23 199q-4 313 -168 459q-164 141 -424 141v0zM1356 1479l37 38l-187 226q-14 22 -31 39q-18 12 -36 12q-35 0 -86 -47l-287 -227l27 -41v0l239 124q23 13 43 23q19 6 31 6
q29 -2 65 -33l185 -120v0z" />
    <glyph glyph-name="glyph225" unicode="&#xde;" horiz-adv-x="1237" 
d="M647 0l12 59l-120 13q-76 4 -50 98l45 203h187q88 0 190 16q105 14 199 55q96 43 160 125q61 80 63 211q-2 191 -137 269q-137 71 -338 71h-151l28 127q12 51 33 76q18 22 53 24l113 11l14 59h-561l-14 -59l121 -13q69 -2 45 -98l-246 -1077q-10 -49 -29 -70
q-20 -22 -57 -28l-113 -13l-12 -59h565zM674 975q6 43 43 59q35 15 131 15q270 -7 270 -242q-2 -187 -119 -275q-118 -88 -295 -88q-100 0 -122 21q-23 18 -13 49z" />
    <glyph glyph-name="copyright" unicode="&#xe3;" horiz-adv-x="1149" 
d="M985 911q-55 -250 -219 -518q-86 -133 -174 -219q-43 -43 -84 -65q-43 -27 -80 -27q-49 0 -70 43q-20 41 -20 100q2 195 141 453q68 119 166 198q96 78 215 80q76 0 125 -45v0zM1016 1012l-11 -27q-59 41 -149 43q-182 -2 -317 -86q-136 -86 -226 -215
q-178 -281 -178 -508q0 -94 47 -166q45 -76 150 -78q84 2 159 45q76 41 144 109q135 143 225 309h4l-69 -233q-70 -225 90 -230q116 2 202 91q86 83 138 204l-50 29q-28 -59 -83 -133q-25 -35 -52 -57q-26 -27 -49 -27q-29 0 -31 33q-2 30 11 80l217 817h-172zM1155 1397
q-41 -52 -70 -72q-28 -23 -69 -23q-68 2 -156 39q-41 17 -82 29q-43 10 -80 10q-96 -2 -147 -67q-27 -31 -45 -66q-21 -35 -37 -67l39 -27q33 55 67 80q33 24 80 24q72 -2 164 -39q47 -14 90 -24q41 -14 74 -14q76 0 123 55q49 51 90 139z" />
    <glyph glyph-name="section" unicode="&#xdc;" horiz-adv-x="1626" 
d="M383 1417l-14 -59l120 -11q70 -2 45 -100l-172 -723q-65 -301 72 -430q135 -127 406 -125q106 0 204 19q99 20 183 73q86 56 153 162q66 107 107 283l174 741q12 51 33 76q18 22 53 24l112 11l15 59h-561l-15 -59l121 -11q70 -2 45 -100l-166 -715q-41 -208 -139 -346
q-98 -143 -309 -145q-174 -2 -258 113q-84 112 -23 397l162 696q12 51 33 76q18 24 53 27l113 8l14 59h-561zM940 1511q57 0 88 37q31 35 31 88q0 41 -25 70q-26 29 -74 31q-51 0 -84 -33q-36 -35 -36 -92q0 -99 100 -101v0zM1366 1511q57 0 88 37q31 35 31 88q0 41 -25 70
q-27 29 -74 31q-51 0 -84 -33q-36 -35 -36 -92q0 -99 100 -101v0z" />
    <glyph glyph-name="AE" unicode="&#xea;" horiz-adv-x="928" 
d="M891 309v0q-55 -76 -137 -151q-43 -35 -93 -58q-49 -24 -108 -24q-105 0 -145 82q-41 80 -41 202q0 15 2 33q254 53 389 113q131 59 192 121q55 55 72 104q14 49 14 92q0 86 -63 146q-64 57 -191 59q-278 -6 -448 -233q-168 -213 -170 -484q0 -106 33 -172
q28 -65 75 -102q47 -35 101 -47q53 -15 96 -15q115 0 240 62q122 65 229 231zM373 463q30 194 129 340q49 71 106 112q56 41 117 41q57 0 88 -32q31 -31 31 -88q2 -111 -105 -211q-108 -105 -366 -162v0zM997 1118l47 43l-182 264q-12 19 -29 35q-14 14 -32 14
q-37 -2 -82 -49l-283 -264l29 -43v0l235 154q41 28 66 30q27 -2 57 -30l174 -154v0z" />
    </font>
</defs>
</svg>
