<?xml version="1.0" standalone="no"?>
<!DOCTYPE svg PUBLIC "-//W3C//DTD SVG 1.1//EN" "http://www.w3.org/Graphics/SVG/1.1/DTD/svg11.dtd" >
<svg>
<metadata>
Created by FontForge 20110222 at Mon Sep 29 04:14:25 2014
 By deploy user
Copyright (c) 1991, 2002 Adobe Systems Incorporated.  All Rights Reserved. (c) 1981, 2002 Heidelberger Druckmaschinen AG. All rights reserved.
</metadata>
<defs>
<font id="VectoraLTStd-Bold" horiz-adv-x="592" >
  <font-face 
    font-family="Vectora LT Std Light"
    font-weight="700"
    font-stretch="normal"
    units-per-em="1000"
    panose-1="2 11 7 6 3 5 3 2 2 4"
    ascent="777"
    descent="-223"
    x-height="598"
    cap-height="712"
    bbox="-149 -250 1072 962"
    underline-thickness="50"
    underline-position="-50"
    unicode-range="U+0020-FB02"
  />
<missing-glyph horiz-adv-x="500" 
d="M0 0v700h500v-700h-500zM250 395l170 255h-340zM280 350l170 -255v510zM80 50h340l-170 255zM50 605v-510l170 255z" />
    <glyph glyph-name="fi" unicode="fi" horiz-adv-x="648" 
d="M437 0v598h144v-598h-144zM437 670v107h144v-107h-144zM99 0v447h-86v102h86v54q0 197 203 197q43 0 86 -11v-102q-28 11 -70 11q-75 0 -75 -100v-49h118v-102h-118v-447h-144z" />
    <glyph glyph-name="fl" unicode="fl" horiz-adv-x="648" 
d="M437 0v777h144v-777h-144zM99 0v447h-86v102h86v54q0 197 203 197q43 0 86 -11v-102q-28 11 -70 11q-75 0 -75 -100v-49h118v-102h-118v-447h-144z" />
    <glyph glyph-name=".notdef" horiz-adv-x="500" 
d="M0 0v700h500v-700h-500zM250 395l170 255h-340zM280 350l170 -255v510zM80 50h340l-170 255zM50 605v-510l170 255z" />
    <glyph glyph-name=".null" horiz-adv-x="0" 
 />
    <glyph glyph-name="nonmarkingreturn" horiz-adv-x="333" 
 />
    <glyph glyph-name="space" unicode=" " horiz-adv-x="296" 
 />
    <glyph glyph-name="exclam" unicode="!" horiz-adv-x="332" 
d="M112 225l-18 487h144l-18 -487h-108zM102 0v132h128v-132h-128z" />
    <glyph glyph-name="quotedbl" unicode="&#x22;" horiz-adv-x="333" 
d="M204 524v253h102v-253h-102zM27 524v253h102v-253h-102z" />
    <glyph glyph-name="numbersign" unicode="#" 
d="M301 0l29 211h-108l-28 -211h-84l29 211h-93v76h104l18 138h-93v76h104l29 211h83l-29 -211h108l28 211h84l-29 -211h93v-76h-104l-18 -138h93v-76h-104l-29 -211h-83zM340 287l19 138h-107l-19 -138h107z" />
    <glyph glyph-name="dollar" unicode="$" 
d="M270 -87v70q-60 1 -106 19.5t-72 46.5t-39 51.5t-18 45.5l126 38q13 -79 109 -95v217q-38 8 -72 21.5t-68.5 38t-55 64.5t-20.5 91q0 79 59 143t157 65v70h56v-70q57 0 100 -15.5t66 -41t34.5 -49t15.5 -47.5l-124 -27q-9 32 -34.5 53t-57.5 21v-203q122 -29 177 -77.5
t55 -133.5q0 -108 -64 -163.5t-168 -62.5v-70h-56zM270 435v188q-41 -2 -66.5 -26.5t-25.5 -64.5q0 -35 22.5 -57t69.5 -40zM326 291v-202q46 8 74 33.5t28 64.5q0 24 -7.5 41t-25 29t-31 18.5t-38.5 15.5z" />
    <glyph glyph-name="percent" unicode="%" horiz-adv-x="833" 
d="M207 416q40 0 57.5 35t17.5 86q0 121 -75 121q-40 0 -57.5 -35t-17.5 -86q0 -121 75 -121zM207 345q-87 0 -129 52.5t-42 139.5q0 79 45 135.5t126 56.5q88 0 129.5 -52t41.5 -140q0 -79 -45 -135.5t-126 -56.5zM626 -17q-87 0 -129 52.5t-42 139.5q0 79 45 135.5
t126 56.5q88 0 129.5 -52t41.5 -140q0 -79 -45 -135.5t-126 -56.5zM626 54q40 0 57.5 35t17.5 86q0 121 -75 121q-40 0 -57.5 -35t-17.5 -86q0 -121 75 -121zM182 -25l387 762h79l-387 -762h-79z" />
    <glyph glyph-name="ampersand" unicode="&#x26;" horiz-adv-x="741" 
d="M227 549q0 -30 17.5 -54.5t54.5 -58.5q32 19 46 28t30 23.5t21.5 29t5.5 33.5q0 34 -23 57t-64 23q-43 0 -65.5 -23t-22.5 -58zM560 0l-52 61q-54 -40 -96.5 -56.5t-110.5 -16.5q-132 0 -198 61t-66 151q0 43 14.5 77.5t42 57t45 33t43.5 22.5q-36 28 -64.5 70.5
t-28.5 93.5q0 49 20.5 84.5t55 54.5t72 27.5t79.5 8.5q60 0 104.5 -15.5t69 -41t35.5 -53.5t11 -59q0 -38 -14.5 -70t-42 -55t-47.5 -35.5t-50 -27.5l139 -146q16 21 24.5 36t17 45.5t10.5 72.5h128q0 -144 -96 -246l123 -134h-168zM435 140l-171 176q-24 -12 -38.5 -22
t-31 -34t-16.5 -54q0 -54 35.5 -86.5t89.5 -32.5q75 0 132 53z" />
    <glyph glyph-name="quotesingle" unicode="'" horiz-adv-x="222" 
d="M63 524v253h102v-253h-102z" />
    <glyph glyph-name="parenleft" unicode="(" horiz-adv-x="315" 
d="M291 -82l-79 -51q-171 230 -172 460q1 230 172 460l79 -51q-29 -49 -46 -82.5t-38.5 -86.5t-32 -112.5t-10.5 -127.5t10.5 -127.5t32 -112.5t38.5 -86.5t46 -82.5z" />
    <glyph glyph-name="parenright" unicode=")" horiz-adv-x="315" 
d="M24 736l79 51q171 -230 172 -460q-1 -230 -172 -460l-79 51q29 49 46 82.5t38.5 86.5t32 112.5t10.5 127.5t-10.5 127.5t-32 112.5t-38.5 86.5t-46 82.5z" />
    <glyph glyph-name="asterisk" unicode="*" horiz-adv-x="500" 
d="M96 376l98 117l-149 39l27 84l144 -58l-12 154h92l-12 -154l144 58l27 -84l-149 -39l98 -117l-71 -52l-83 130l-83 -130z" />
    <glyph glyph-name="plus" unicode="+" horiz-adv-x="600" 
d="M252 301v205h96v-205h204v-96h-204v-205h-96v205h-204v96h204z" />
    <glyph glyph-name="comma" unicode="," horiz-adv-x="296" 
d="M95 132h130l-90 -253h-108z" />
    <glyph glyph-name="hyphen" unicode="-" horiz-adv-x="315" 
d="M35 350h246v-102h-246v102z" />
    <glyph glyph-name="period" unicode="." horiz-adv-x="296" 
d="M84 0v132h128v-132h-128z" />
    <glyph glyph-name="slash" unicode="/" horiz-adv-x="389" 
d="M2 0l294 746l91 -33l-294 -746z" />
    <glyph glyph-name="zero" unicode="0" 
d="M178 359q0 -62 5 -107t17 -83.5t36 -58.5t60 -20t60 20t36 58.5t17 83.5t5 107q0 45 -2 78.5t-9 71.5t-19.5 62t-34.5 40t-53 16t-53 -16t-34.5 -40t-19.5 -62t-9 -71.5t-2 -78.5zM34 359q0 370 262 370t262 -370q0 -76 -12.5 -139t-41 -117t-81.5 -84.5t-127 -30.5
t-127 30.5t-81.5 84.5t-41 117t-12.5 139z" />
    <glyph glyph-name="one" unicode="1" 
d="M300 0v566l-156 -125l-68 84l240 187h128v-712h-144z" />
    <glyph glyph-name="two" unicode="2" 
d="M46 0v102l205 201q28 27 46 46t42.5 50.5t37 64t12.5 63.5q0 45 -26 72.5t-75 27.5q-58 0 -84 -37t-27 -84l-132 23q15 94 79.5 147t171.5 53q106 0 168.5 -57.5t62.5 -142.5q0 -64 -28.5 -117.5t-84.5 -110.5l-200 -199h316v-102h-484z" />
    <glyph glyph-name="three" unicode="3" 
d="M179 536l-125 36q61 157 242 157q43 0 80.5 -9t72 -28.5t54.5 -57t20 -88.5q0 -57 -35 -102t-107 -67v-2q156 -27 156 -179q0 -37 -13 -71t-41 -66t-80.5 -51.5t-123.5 -19.5q-63 0 -110.5 19.5t-73 51.5t-38 61t-16.5 58l128 28q6 -53 34.5 -84.5t80.5 -31.5t80.5 33.5
t28.5 80.5q0 113 -133 113h-41v106h35q55 0 93 26t38 79q0 43 -25 71t-73 28q-26 0 -45.5 -8t-32 -25t-17.5 -27.5t-13 -30.5z" />
    <glyph glyph-name="four" unicode="4" 
d="M334 0v123h-302v120l289 469h147v-487h94v-102h-94v-123h-134zM334 225v196q0 61 12 151h-6q-12 -31 -49 -97l-144 -250h187z" />
    <glyph glyph-name="five" unicode="5" 
d="M510 712v-102h-284l-4 -155q35 13 84 13q99 0 164.5 -66.5t65.5 -173.5q0 -102 -67.5 -171t-181.5 -69q-101 0 -154.5 45.5t-73.5 144.5l120 25q0 -43 24.5 -78t76.5 -35t82 32.5t30 96.5q0 75 -41.5 111t-112.5 36q-66 0 -140 -43l8 389h404z" />
    <glyph glyph-name="six" unicode="6" 
d="M302 712h169l-91 -109q-100 -115 -129 -171l2 -2q42 21 90 21q92 0 146.5 -64.5t54.5 -157.5q0 -103 -64 -172t-182 -69q-62 0 -109.5 19t-73 47t-42 64.5t-21 64.5t-4.5 55q0 68 28.5 139t72.5 130zM400 221q0 56 -30 92t-85 36q-16 0 -35 -4.5t-30 -10t-12 -7.5
q-22 -46 -22 -111q0 -55 27 -89.5t72 -36.5q109 0 115 131z" />
    <glyph glyph-name="seven" unicode="7" 
d="M67 0l308 602h-324v110h473v-101l-299 -611h-158z" />
    <glyph glyph-name="eight" unicode="8" 
d="M388 548q0 38 -25.5 61.5t-64.5 23.5q-48 0 -74 -24t-26 -62q0 -66 105 -116q85 56 85 117zM293 322l-34 -24q-69 -50 -69 -116q0 -43 27.5 -70.5t76.5 -27.5q50 0 76 29t26 77q0 66 -78 116zM299 729q102 0 162.5 -47t60.5 -121q0 -106 -126 -176q30 -17 49.5 -31
t44.5 -38t37.5 -55.5t12.5 -70.5q0 -82 -64 -142t-178 -60q-122 0 -184 57t-62 136q0 28 8 52t18.5 40.5t33.5 35.5t38 29t48 31q-23 11 -38.5 21t-41.5 31.5t-40 53t-14 70.5q0 88 67 136t168 48z" />
    <glyph glyph-name="nine" unicode="9" 
d="M121 0l91 109q101 122 129 176l-2 2q-42 -21 -90 -21q-92 0 -146.5 64.5t-54.5 157.5q0 103 64 172t182 69q62 0 109.5 -19t73 -47t42 -64.5t21 -64.5t4.5 -55q0 -68 -28.5 -139t-72.5 -130l-153 -210h-169zM192 496q0 -56 30 -92t85 -36q16 0 35 4.5t30 10t12 7.5
q22 46 22 111q0 55 -27 89.5t-72 36.5q-109 0 -115 -131z" />
    <glyph glyph-name="colon" unicode=":" horiz-adv-x="296" 
d="M84 466v132h128v-132h-128zM84 0v132h128v-132h-128z" />
    <glyph glyph-name="semicolon" unicode=";" horiz-adv-x="296" 
d="M95 132h130l-90 -253h-108zM84 466v132h128v-132h-128z" />
    <glyph glyph-name="less" unicode="&#x3c;" horiz-adv-x="600" 
d="M554 88v-96l-508 221v80l508 221v-96l-383 -165z" />
    <glyph glyph-name="equal" unicode="=" horiz-adv-x="600" 
d="M552 408v-96h-504v96h504zM552 194v-96h-504v96h504z" />
    <glyph glyph-name="greater" unicode="&#x3e;" horiz-adv-x="600" 
d="M46 -8v96l383 165l-383 165v96l508 -221v-80z" />
    <glyph glyph-name="question" unicode="?" horiz-adv-x="537" 
d="M214 225v50q0 68 40 109l53 53q54 54 54 108q0 36 -23.5 59t-66.5 23q-26 0 -45.5 -10.5t-29.5 -27t-14 -29t-6 -24.5l-126 26q42 167 232 167q97 0 154 -50.5t57 -131.5q0 -79 -72 -144l-43 -39q-54 -49 -54 -89v-50h-110zM205 0v132h128v-132h-128z" />
    <glyph glyph-name="at" unicode="@" horiz-adv-x="800" 
d="M290 318q0 -40 22 -65.5t57 -25.5q53 0 89 49t36 104q0 36 -22.5 60.5t-56.5 24.5q-52 0 -88.5 -47t-36.5 -100zM621 544l-59 -243q-11 -40 -11 -58q0 -23 20 -23q42 0 78.5 53.5t36.5 129.5q0 117 -77 183.5t-194 66.5q-127 0 -206 -85t-79 -214q0 -131 83.5 -213
t213.5 -82q132 0 215 86h78q-51 -77 -130.5 -119.5t-173.5 -42.5q-163 0 -270.5 106.5t-107.5 266.5q0 155 108 264t252 109q162 0 263 -88t101 -217q0 -58 -19 -108t-47.5 -82.5t-63 -55.5t-65 -33t-53.5 -10q-24 0 -40.5 15t-17.5 42h-2q-48 -57 -116 -57
q-63 0 -105.5 49.5t-42.5 119.5q0 99 61.5 176t155.5 77q78 0 117 -68l15 55h82z" />
    <glyph glyph-name="A" unicode="A" horiz-adv-x="722" 
d="M250 276h220l-79 224q-20 56 -28 98h-5q-8 -48 -26 -98zM2 0l268 712h191l259 -712h-157l-57 166h-294l-59 -166h-151z" />
    <glyph glyph-name="B" unicode="B" horiz-adv-x="648" 
d="M217 110h131q46 0 78 23.5t32 74.5q0 102 -106 102h-135v-200zM73 0v712h290q114 0 168.5 -50.5t54.5 -129.5q0 -58 -32 -103t-97 -58v-2q59 -7 103.5 -52t44.5 -120q0 -197 -246 -197h-286zM217 420h123q45 0 73.5 23.5t28.5 71.5q0 87 -88 87h-137v-182z" />
    <glyph glyph-name="C" unicode="C" horiz-adv-x="685" 
d="M642 527l-139 -29q-5 52 -40 84.5t-86 32.5q-83 0 -129.5 -64t-46.5 -195q0 -132 42.5 -195.5t118.5 -63.5q67 0 103.5 39.5t44.5 86.5l140 -31q-3 -16 -9.5 -36t-28 -52.5t-51.5 -57.5t-85 -44t-124 -19q-143 0 -226 96.5t-83 276.5q0 179 91 276t243 97q108 0 174 -53
t91 -149z" />
    <glyph glyph-name="D" unicode="D" horiz-adv-x="722" 
d="M73 0v712h282q44 0 86 -10t86 -36t76.5 -65.5t53.5 -103t21 -143.5q0 -175 -98.5 -264.5t-272.5 -89.5h-234zM223 598v-484h90q101 0 153.5 67.5t53.5 175.5q-1 104 -50.5 172.5t-154.5 68.5h-92z" />
    <glyph glyph-name="E" unicode="E" horiz-adv-x="593" 
d="M73 0v712h462v-114h-312v-174h295v-114h-295v-196h322v-114h-472z" />
    <glyph glyph-name="F" unicode="F" horiz-adv-x="574" 
d="M73 0v712h464v-114h-314v-193h301v-114h-301v-291h-150z" />
    <glyph glyph-name="G" unicode="G" horiz-adv-x="704" 
d="M649 546l-139 -36q-3 34 -42.5 69.5t-90.5 35.5q-83 0 -129.5 -64t-46.5 -195t46.5 -195t129.5 -64q56 0 124 29v160h-123v110h267v-336q-43 -28 -115 -52.5t-153 -24.5q-152 0 -243 97t-91 276t91 276t243 97q81 0 137.5 -25t85.5 -62.5t49 -95.5z" />
    <glyph glyph-name="H" unicode="H" horiz-adv-x="722" 
d="M73 0v712h150v-280h276v280h150v-712h-150v318h-276v-318h-150z" />
    <glyph glyph-name="I" unicode="I" horiz-adv-x="296" 
d="M73 0v712h150v-712h-150z" />
    <glyph glyph-name="J" unicode="J" horiz-adv-x="407" 
d="M-14 26l60 107q29 -32 67 -32q42 0 59 27.5t17 83.5v500h150v-516q0 -93 -54 -153t-157 -60q-88 0 -142 43z" />
    <glyph glyph-name="K" unicode="K" horiz-adv-x="667" 
d="M73 0v712h150v-303h2l244 303h179l-283 -337l301 -375h-190l-251 326h-2v-326h-150z" />
    <glyph glyph-name="L" unicode="L" horiz-adv-x="519" 
d="M73 0v712h150v-594h283v-118h-433z" />
    <glyph glyph-name="M" unicode="M" horiz-adv-x="944" 
d="M413 0l-159 465q-28 83 -36 137h-9q2 -54 2 -77v-525h-138v712h233l132 -396q20 -62 31 -124h6q11 62 31 124l132 396h233v-712h-138v525q0 23 2 77h-9q-8 -54 -36 -137l-159 -465h-118z" />
    <glyph glyph-name="N" unicode="N" horiz-adv-x="759" 
d="M73 0v712h193l190 -345q77 -143 92 -211h7q-7 63 -7 196v360h138v-712h-198l-217 407q-42 76 -61 149h-6q7 -114 7 -165v-391h-138z" />
    <glyph glyph-name="O" unicode="O" horiz-adv-x="740" 
d="M370 97q83 0 129.5 64t46.5 195t-46.5 195t-129.5 64t-129.5 -64t-46.5 -195t46.5 -195t129.5 -64zM370 -17q-152 0 -243 97t-91 276t91 276t243 97t243 -97t91 -276t-91 -276t-243 -97z" />
    <glyph glyph-name="P" unicode="P" horiz-adv-x="611" 
d="M60 0v712h283q122 0 181.5 -60.5t59.5 -157.5q0 -115 -70 -171t-170 -56h-134v-267h-150zM210 377h100q130 0 130 123q0 45 -23.5 73.5t-74.5 28.5h-132v-225z" />
    <glyph glyph-name="Q" unicode="Q" horiz-adv-x="740" 
d="M370 97q83 0 129.5 64t46.5 195t-46.5 195t-129.5 64t-129.5 -64t-46.5 -195t46.5 -195t129.5 -64zM606 -187l-242 170q-144 0 -236 95.5t-92 277.5q0 179 91 276t243 97t243 -97t91 -276q0 -128 -48 -215t-133 -126l167 -107z" />
    <glyph glyph-name="R" unicode="R" horiz-adv-x="648" 
d="M223 405h115q107 0 107 100q0 97 -91 97h-131v-197zM466 0l-131 295h-112v-295h-150v712h299q112 0 167.5 -55.5t55.5 -151.5q0 -71 -31.5 -112.5t-90.5 -66.5l161 -326h-168z" />
    <glyph glyph-name="S" unicode="S" horiz-adv-x="611" 
d="M553 583l-136 -45q-5 16 -10 26t-16.5 25t-31 22.5t-46.5 7.5q-56 0 -84 -25.5t-28 -59.5q0 -27 12.5 -42.5t48.5 -30.5l156 -65q78 -32 114 -76.5t36 -113.5q0 -95 -72.5 -159t-202.5 -64q-113 0 -178 51t-79 116l135 51q6 -43 36.5 -73.5t92.5 -30.5q54 0 86 25.5
t32 68.5q0 57 -86 90l-95 37q-40 15 -69 30.5t-58 39t-44 56t-15 73.5q0 86 63.5 149t195.5 63q96 0 155.5 -31.5t87.5 -114.5z" />
    <glyph glyph-name="T" unicode="T" horiz-adv-x="556" 
d="M203 0v594h-195v118h540v-118h-195v-594h-150z" />
    <glyph glyph-name="U" unicode="U" horiz-adv-x="704" 
d="M494 712h144v-432q0 -297 -296 -297q-134 0 -205 75.5t-71 221.5v432h144v-432q0 -183 142 -183t142 183v432z" />
    <glyph glyph-name="V" unicode="V" horiz-adv-x="667" 
d="M5 712h158l143 -482q7 -23 22 -96h6q8 40 27 101l151 477h150l-238 -712h-194z" />
    <glyph glyph-name="W" unicode="W" horiz-adv-x="963" 
d="M178 0l-169 712h152l82 -394q23 -110 29 -193h9q5 83 30 197l83 390h184l90 -428q13 -59 24 -159h9q3 64 24 168l88 419h141l-166 -712h-188l-90 416q-7 34 -14 91t-8 80h-9q-4 -60 -26 -162l-88 -425h-187z" />
    <glyph glyph-name="X" unicode="X" horiz-adv-x="685" 
d="M201 712l93 -161q30 -49 50 -101h4q9 31 45 89l98 173h166l-213 -340l232 -372h-177l-113 195q-34 61 -45 94h-7q-16 -42 -50 -101l-108 -188h-167l232 372l-213 340h173z" />
    <glyph glyph-name="Y" unicode="Y" horiz-adv-x="667" 
d="M257 0v275l-256 437h175l125 -229q13 -25 35 -83h3q13 43 37 87l122 225h168l-259 -437v-275h-150z" />
    <glyph glyph-name="Z" unicode="Z" horiz-adv-x="574" 
d="M28 0v118l338 480h-328v114h501v-120l-336 -478h342v-114h-517z" />
    <glyph glyph-name="bracketleft" unicode="[" horiz-adv-x="296" 
d="M70 -130v888h200v-70h-82v-748h82v-70h-200z" />
    <glyph glyph-name="backslash" unicode="\" horiz-adv-x="389" 
d="M93 746l294 -746l-91 -33l-294 746z" />
    <glyph glyph-name="bracketright" unicode="]" horiz-adv-x="296" 
d="M226 758v-888h-200v70h82v748h-82v70h200z" />
    <glyph glyph-name="asciicircum" unicode="^" horiz-adv-x="600" 
d="M63 318l193 394h88l193 -394h-96l-142 298l-140 -298h-96z" />
    <glyph glyph-name="underscore" unicode="_" horiz-adv-x="500" 
d="M500 -125h-500v50h500v-50z" />
    <glyph glyph-name="grave" unicode="`" horiz-adv-x="278" 
d="M137 808l99 -146h-104l-159 146h164z" />
    <glyph glyph-name="a" unicode="a" horiz-adv-x="574" 
d="M382 0l-5 90q-82 -102 -184 -102q-77 0 -121 49.5t-44 131.5q0 108 77 157t209 49h63v46q0 41 -23.5 67t-72.5 26q-46 0 -66.5 -21t-39.5 -70l-126 35q30 72 83 112t154 40q105 0 167 -52t62 -164v-292q0 -40 5 -102h-138zM377 168v121h-43q-88 0 -128 -27t-40 -81
q0 -38 20 -60.5t54 -22.5q39 0 62 12.5t75 57.5z" />
    <glyph glyph-name="b" unicode="b" horiz-adv-x="630" 
d="M70 0v777h144v-249q35 31 52 44t47.5 25.5t65.5 12.5q60 0 103.5 -29t65 -77.5t31 -98t9.5 -103.5q0 -154 -52.5 -234t-155.5 -80q-91 0 -166 83v-71h-144zM214 433v-268q49 -67 115 -67q57 0 84.5 54.5t27.5 148.5q0 199 -118 199q-59 0 -109 -67z" />
    <glyph glyph-name="c" unicode="c" horiz-adv-x="537" 
d="M401 196l130 -33q-10 -28 -18.5 -47t-27.5 -45.5t-41.5 -42.5t-60.5 -28t-86 -12q-69 0 -120.5 26t-80 71.5t-41.5 98t-13 113.5q0 139 64 226t196 87q54 0 97.5 -19t69 -48t39.5 -57t17 -53l-134 -36q-1 47 -24.5 79t-67.5 32q-56 0 -81.5 -49.5t-25.5 -150.5
q0 -51 4.5 -88t16 -68t33.5 -46.5t55 -15.5q46 0 70.5 33.5t29.5 72.5z" />
    <glyph glyph-name="d" unicode="d" horiz-adv-x="630" 
d="M560 777v-777h-144v71q-75 -83 -166 -83q-103 0 -155.5 80t-52.5 234q0 54 9.5 103.5t31 98t65 77.5t103.5 29q35 0 65.5 -12.5t47.5 -25.5t52 -44v249h144zM416 165v268q-50 67 -109 67q-118 0 -118 -199q0 -94 27.5 -148.5t84.5 -54.5q66 0 115 67z" />
    <glyph glyph-name="e" unicode="e" 
d="M416 179l122 -40q-61 -151 -232 -151q-126 0 -200 83.5t-74 229.5q0 140 72.5 224.5t202.5 84.5q121 0 187 -83.5t66 -209.5v-54h-384q0 -30 5.5 -57.5t19 -55t39.5 -44t63 -16.5q44 0 74 28t39 61zM176 359h240q0 72 -30.5 111.5t-83.5 37.5q-61 1 -91.5 -41.5
t-34.5 -107.5z" />
    <glyph glyph-name="f" unicode="f" horiz-adv-x="370" 
d="M99 0v447h-86v102h86v54q0 197 203 197q43 0 86 -11v-102q-28 11 -70 11q-75 0 -75 -100v-49h118v-102h-118v-447h-144z" />
    <glyph glyph-name="g" unicode="g" horiz-adv-x="593" 
d="M586 598v-80h-117q46 -46 46 -111q0 -31 -12 -60.5t-37.5 -57t-74 -44t-113.5 -16.5q-20 0 -38 4q-15 -15 -15 -34q0 -10 7 -15.5t27 -10.5l180 -49q131 -35 131 -147q0 -49 -23.5 -85t-64 -56t-87.5 -29t-101 -9q-124 0 -195.5 42t-71.5 112q0 32 10.5 58t31.5 44
t34.5 27t36.5 20q-35 19 -35 63q0 24 17 49.5t41 36.5q-68 32 -94 70.5t-26 99.5q0 81 61.5 135.5t157.5 54.5q31 0 108 -12h216zM280 325q47 0 76 26t29 69q0 47 -31 70.5t-72 23.5q-54 0 -81.5 -25.5t-27.5 -68.5t30 -69t77 -26zM364 25l-148 38q-63 -43 -63 -94
q0 -40 41.5 -59.5t104.5 -19.5q133 0 133 74q0 25 -17.5 39t-50.5 22z" />
    <glyph glyph-name="h" unicode="h" horiz-adv-x="630" 
d="M70 0v777h144v-268q105 101 200 101q146 0 146 -176v-434h-144v403q0 42 -19.5 63.5t-55.5 21.5q-32 0 -57 -16t-70 -59v-413h-144z" />
    <glyph glyph-name="i" unicode="i" horiz-adv-x="278" 
d="M67 0v598h144v-598h-144zM67 670v107h144v-107h-144z" />
    <glyph glyph-name="j" unicode="j" horiz-adv-x="278" 
d="M67 -10v608h144v-636q0 -79 -46 -121.5t-124 -42.5q-44 0 -77 9l7 108q21 -7 37 -7q59 0 59 82zM67 670v107h144v-107h-144z" />
    <glyph glyph-name="k" unicode="k" horiz-adv-x="593" 
d="M71 777h144v-444h2l190 267h167l-214 -282l231 -318h-173l-201 300h-2v-300h-144v777z" />
    <glyph glyph-name="l" unicode="l" horiz-adv-x="278" 
d="M67 0v777h144v-777h-144z" />
    <glyph glyph-name="m" unicode="m" horiz-adv-x="944" 
d="M70 0v598h144v-88q36 36 55 52t53.5 32t72.5 16q102 0 139 -100q91 100 190 100q77 0 113.5 -48t36.5 -129v-433h-144v399q0 42 -18.5 65.5t-51.5 23.5q-28 0 -50.5 -14t-65.5 -60v-414h-144v399q0 42 -18.5 65.5t-51.5 23.5q-28 0 -50.5 -14t-65.5 -60v-414h-144z" />
    <glyph glyph-name="n" unicode="n" horiz-adv-x="630" 
d="M416 0v403q0 42 -19.5 63.5t-55.5 21.5q-32 0 -57 -16t-70 -59v-413h-144v598h144v-89q105 101 200 101q146 0 146 -176v-434h-144z" />
    <glyph glyph-name="o" unicode="o" horiz-adv-x="612" 
d="M182 299q0 -209 124 -209t124 209t-124 209t-124 -209zM32 301q0 138 75 223.5t199 85.5q129 0 201.5 -84.5t72.5 -224.5q0 -144 -76 -228.5t-198 -84.5q-126 0 -200 83.5t-74 229.5z" />
    <glyph glyph-name="p" unicode="p" horiz-adv-x="630" 
d="M70 -195v793h144v-70q35 31 52 44t47.5 25.5t65.5 12.5q60 0 103.5 -29t65 -77.5t31 -98t9.5 -103.5q0 -154 -52.5 -234t-155.5 -80q-91 0 -166 83v-266h-144zM214 433v-268q49 -67 115 -67q57 0 84.5 54.5t27.5 148.5q0 199 -118 199q-59 0 -109 -67z" />
    <glyph glyph-name="q" unicode="q" horiz-adv-x="630" 
d="M560 598v-793h-144v266q-75 -83 -166 -83q-103 0 -155.5 80t-52.5 234q0 54 9.5 103.5t31 98t65 77.5t103.5 29q35 0 65.5 -12.5t47.5 -25.5t52 -44v70h144zM416 165v268q-50 67 -109 67q-118 0 -118 -199q0 -94 27.5 -148.5t84.5 -54.5q66 0 115 67z" />
    <glyph glyph-name="r" unicode="r" horiz-adv-x="407" 
d="M70 0v598h144v-94h2q80 106 169 106q9 0 27 -2v-132q-38 4 -51 4q-33 0 -63.5 -14.5t-45.5 -28.5t-38 -39v-398h-144z" />
    <glyph glyph-name="s" unicode="s" horiz-adv-x="519" 
d="M482 471l-120 -37q-4 15 -8.5 25.5t-15.5 25t-31 22t-49 7.5q-32 0 -55 -17t-23 -50q0 -16 5.5 -27.5t17 -19t19 -10.5t21.5 -8l115 -38q135 -43 135 -163q0 -193 -255 -193q-54 0 -95.5 15.5t-64.5 41.5t-35 48.5t-17 46.5l123 38q13 -44 38 -66t72 -22q45 0 67.5 24
t22.5 51q1 30 -16.5 44.5t-49.5 23.5l-92 29q-149 46 -149 166q0 91 62 136.5t154 45.5q95 0 150.5 -39.5t73.5 -99.5z" />
    <glyph glyph-name="t" unicode="t" horiz-adv-x="407" 
d="M383 549v-102h-140v-246q0 -28 1.5 -43t8.5 -31t22 -22.5t40 -6.5q42 0 70 12v-104q-44 -18 -112 -18q-174 0 -174 191v268h-86v102h86v136l144 60v-196h140z" />
    <glyph glyph-name="u" unicode="u" horiz-adv-x="611" 
d="M547 598v-598h-144v91q-103 -103 -200 -103q-139 0 -139 176v434h144v-403q0 -41 18.5 -63t49.5 -22q22 0 43.5 10.5t36 23t47.5 43.5v411h144z" />
    <glyph glyph-name="v" unicode="v" horiz-adv-x="556" 
d="M194 0l-192 598h155l93 -313q7 -22 12 -46.5t9.5 -53t6.5 -40.5h6q7 69 28 139l98 314h144l-191 -598h-169z" />
    <glyph glyph-name="w" unicode="w" horiz-adv-x="907" 
d="M564 0l-81 328q-10 41 -25 126h-6q-1 -32 -20 -118l-76 -336h-181l-170 598h151l74 -290q4 -14 35 -168h6q6 59 32 168l66 290h180l70 -297q23 -101 33 -161h7q4 50 32 168l67 290h144l-157 -598h-181z" />
    <glyph glyph-name="x" unicode="x" horiz-adv-x="574" 
d="M1 0l188 319l-167 279h163l78 -145q22 -41 30 -61h4q16 37 25 53l85 153h150l-168 -277l184 -321h-167l-98 184q-14 27 -21 47h-5q-7 -13 -24 -47l-103 -184h-154z" />
    <glyph glyph-name="y" unicode="y" horiz-adv-x="556" 
d="M50 -188l7 111q40 -11 59 -11q18 0 30 4t30.5 27t35.5 67l-210 588h155l92 -284q9 -27 32 -147h6q7 69 31 143l92 288h144l-217 -639q-28 -84 -69 -122.5t-115 -38.5q-53 0 -103 14z" />
    <glyph glyph-name="z" unicode="z" horiz-adv-x="519" 
d="M23 0v96l291 400h-279v102h451v-97l-292 -399h302v-102h-473z" />
    <glyph glyph-name="braceleft" unicode="{" horiz-adv-x="352" 
d="M31 278v73q32 0 58 24t26 70v186q0 59 39.5 93t84.5 34h87v-70h-51q-52 0 -52 -73v-184q0 -43 -19.5 -70.5t-38.5 -35.5t-38 -10v-2q19 -2 38 -10t38.5 -35.5t19.5 -70.5v-184q0 -73 52 -73h51v-70h-87q-45 0 -84.5 34t-39.5 93v186q0 46 -26 70.5t-58 24.5z" />
    <glyph glyph-name="bar" unicode="|" horiz-adv-x="222" 
d="M63 -250v1000h96v-1000h-96z" />
    <glyph glyph-name="braceright" unicode="}" horiz-adv-x="352" 
d="M321 350v-73q-32 0 -58 -24t-26 -70v-186q0 -59 -39.5 -93t-84.5 -34h-87v70h51q52 0 52 73v184q0 43 19.5 70.5t38.5 35.5t38 10v2q-19 2 -38 10t-38.5 35.5t-19.5 70.5v184q0 73 -52 73h-51v70h87q45 0 84.5 -34t39.5 -93v-186q0 -46 26 -70.5t58 -24.5z" />
    <glyph glyph-name="asciitilde" unicode="~" horiz-adv-x="600" 
d="M495 336l36 -76q-20 -27 -33 -42t-38 -29.5t-54 -14.5q-42 0 -102 33q-62 35 -115 35q-51 0 -84 -72l-36 76q45 86 125 86q39 0 111 -32q7 -3 21.5 -9.5t23 -10t20 -8t20.5 -6.5t17 -2q19 0 36.5 12t27 24.5t24.5 35.5z" />
    <glyph glyph-name="uni00A0" unicode="&#xa0;" horiz-adv-x="296" 
 />
    <glyph glyph-name="exclamdown" unicode="&#xa1;" horiz-adv-x="332" 
d="M220 373l18 -487h-144l18 487h108zM230 598v-132h-128v132h128z" />
    <glyph glyph-name="cent" unicode="&#xa2;" 
d="M226 143l116 360q-17 5 -34 5q-56 0 -81.5 -49.5t-25.5 -150.5q0 -115 25 -165zM160 -64l25 79q-70 36 -102 111.5t-32 170.5q0 139 64 226t196 87q36 0 63 -6l25 77l52 -17l-24 -77q87 -38 117 -135l-120 -42q-10 37 -34 63l-120 -374q16 -9 40 -9q50 0 74.5 21t41.5 73
l121 -36q-48 -160 -241 -160q-37 0 -69 8l-25 -77z" />
    <glyph glyph-name="sterling" unicode="&#xa3;" 
d="M58 0v102h78v218h-75v92h75v89q0 40 10.5 76.5t34 72.5t71 57.5t112.5 21.5q89 0 138 -33t72 -112l-128 -34q-4 16 -9 27t-14 24t-25.5 19.5t-38.5 6.5q-52 0 -70.5 -35.5t-18.5 -93.5v-86h150v-92h-150v-218h261v-102h-473z" />
    <glyph glyph-name="currency" unicode="&#xa4;" 
d="M38 155l57 58q-49 57 -49 143t49 143l-57 58l53 53l56 -57q56 50 149 50t149 -50l56 57l53 -53l-57 -58q49 -57 49 -143t-49 -143l57 -58l-53 -53l-56 57q-56 -50 -149 -50t-149 50l-56 -57zM142 356q0 -64 45 -109.5t109 -45.5t109 45.5t45 109.5t-45 109.5t-109 45.5
t-109 -45.5t-45 -109.5z" />
    <glyph glyph-name="yen" unicode="&#xa5;" 
d="M224 0v137h-148v64h148v60h-148v64h116l-191 387h159l139 -328h6l139 328h147l-191 -387h116v-64h-148v-60h148v-64h-148v-137h-144z" />
    <glyph glyph-name="brokenbar" unicode="&#xa6;" horiz-adv-x="222" 
d="M63 -175v350h96v-350h-96zM63 325v350h96v-350h-96z" />
    <glyph glyph-name="section" unicode="&#xa7;" 
d="M67 -5l103 50q7 -16 13 -26.5t19 -27t35 -25t50 -8.5q46 0 67 21.5t21 45.5q0 15 -4.5 26t-18.5 21t-24 15.5t-37 17.5l-105 48q-112 52 -112 150q0 50 29.5 83.5t75.5 50.5q-24 15 -38 26.5t-29.5 39t-15.5 62.5q0 68 51 116t157 48q154 3 204 -110l-103 -55
q-11 23 -19.5 35.5t-30.5 26t-52 13.5t-56.5 -15t-26.5 -50q0 -28 16.5 -44.5t49.5 -31.5l127 -57q112 -51 112 -149q0 -93 -92 -128q70 -44 70 -120q0 -73 -52.5 -127.5t-164.5 -54.5q-91 0 -148 43.5t-71 89.5zM331 355l-88 41q-24 -10 -40 -28.5t-16 -42.5q0 -47 58 -72
l122 -55q45 27 45 70q0 30 -21 49.5t-60 37.5z" />
    <glyph glyph-name="dieresis" unicode="&#xa8;" horiz-adv-x="278" 
d="M173 777h144v-107h-144v107zM-39 777h144v-107h-144v107z" />
    <glyph glyph-name="copyright" unicode="&#xa9;" horiz-adv-x="800" 
d="M511 294h80q-12 -73 -61 -114.5t-116 -41.5q-93 0 -151 62.5t-58 157.5q0 98 56 160t151 62q70 0 118 -40t58 -114h-77q-6 37 -33.5 59t-65.5 22q-54 0 -84.5 -41t-30.5 -106q0 -62 32.5 -105.5t84.5 -43.5q40 0 66 22.5t31 60.5zM27 356q0 154 109.5 263.5t263.5 109.5
t263.5 -109.5t109.5 -263.5t-109.5 -263.5t-263.5 -109.5t-263.5 109.5t-109.5 263.5zM110 356q0 -120 85 -205t205 -85t205 85t85 205t-85 205t-205 85t-205 -85t-85 -205z" />
    <glyph glyph-name="ordfeminine" unicode="&#xaa;" horiz-adv-x="370" 
d="M114 616l-82 22q38 91 156 91q75 0 114 -30.5t39 -99.5v-175q0 -31 4 -61h-96v54h-4q-52 -61 -120 -61q-51 0 -81 29.5t-30 78.5q0 64 48.5 94.5t121.5 30.5h61v27q0 53 -62 53q-31 0 -45 -13t-24 -40zM245 464v70h-41q-94 0 -94 -62q0 -23 13 -37t35 -14q46 0 87 43z
" />
    <glyph glyph-name="guillemotleft" unicode="&#xab;" horiz-adv-x="537" 
d="M258 300l176 241l79 -53l-125 -188l125 -188l-79 -52zM24 300l176 241l79 -53l-125 -188l125 -188l-79 -52z" />
    <glyph glyph-name="logicalnot" unicode="&#xac;" horiz-adv-x="600" 
d="M456 108v204h-408v96h504v-300h-96z" />
    <glyph glyph-name="uni00AD" unicode="&#xad;" horiz-adv-x="315" 
d="M35 350h246v-102h-246v102z" />
    <glyph glyph-name="registered" unicode="&#xae;" horiz-adv-x="800" 
d="M482 150l-102 173h-52v-173h-83v417h158q82 0 123 -29t41 -95q0 -53 -30.5 -83.5t-77.5 -32.5l109 -177h-86zM328 383h74q82 0 82 60q0 27 -20 40.5t-50 13.5h-86v-114zM27 356q0 154 109.5 263.5t263.5 109.5t263.5 -109.5t109.5 -263.5t-109.5 -263.5t-263.5 -109.5
t-263.5 109.5t-109.5 263.5zM110 356q0 -120 85 -205t205 -85t205 85t85 205t-85 205t-205 85t-205 -85t-85 -205z" />
    <glyph glyph-name="macron" unicode="&#xaf;" horiz-adv-x="278" 
d="M-16 773h310v-76h-310v76z" />
    <glyph glyph-name="degree" unicode="&#xb0;" horiz-adv-x="400" 
d="M57 586q0 59 42 101t101 42t101 -42t42 -101t-42 -101t-101 -42t-101 42t-42 101zM127 586q0 -30 21.5 -51.5t51.5 -21.5t51.5 21.5t21.5 51.5t-21.5 51.5t-51.5 21.5t-51.5 -21.5t-21.5 -51.5z" />
    <glyph glyph-name="plusminus" unicode="&#xb1;" horiz-adv-x="600" 
d="M252 366v140h96v-140h204v-96h-204v-140h-96v140h-204v96h204zM48 0v96h504v-96h-504z" />
    <glyph glyph-name="twosuperior" unicode="&#xb2;" horiz-adv-x="385" 
d="M36 291v61l133 120q90 80 90 122q0 59 -66 59q-34 0 -52 -20t-21 -43l-92 13q20 126 176 126q69 0 110 -34.5t41 -87.5q0 -69 -73 -137l-113 -103h182v-76h-315z" />
    <glyph glyph-name="threesuperior" unicode="&#xb3;" horiz-adv-x="385" 
d="M27 398l83 17q3 -24 24.5 -41t50.5 -17q34 0 53 17.5t19 40.5q0 32 -24 48t-64 16h-27v65q30 1 49.5 4.5t38 17.5t18.5 39q0 22 -16 38t-45 16q-22 0 -38.5 -9.5t-20.5 -15.5t-12 -20l-84 21q40 94 160 94q62 0 105 -25.5t43 -85.5q0 -73 -86 -101v-2q95 -16 95 -105
q0 -49 -39 -87.5t-122 -38.5q-68 0 -106.5 28.5t-54.5 85.5z" />
    <glyph glyph-name="acute" unicode="&#xb4;" horiz-adv-x="278" 
d="M42 662l99 146h164l-159 -146h-104z" />
    <glyph glyph-name="mu" unicode="&#xb5;" horiz-adv-x="611" 
d="M64 -195v793h144v-388q0 -60 19 -80t54 -20q10 0 18.5 1.5t18 5.5t15 7.5t16 12t15.5 13t18.5 18t20.5 19.5v411h144v-598h-144v79h-2q-19 -43 -43.5 -65t-68.5 -22q-51 0 -79 44h-2v-231h-144z" />
    <glyph glyph-name="paragraph" unicode="&#xb6;" horiz-adv-x="600" 
d="M222 -121v472q-96 0 -153.5 48.5t-57.5 128.5q0 184 238 184h282v-833h-102v758h-105v-758h-102z" />
    <glyph glyph-name="periodcentered" unicode="&#xb7;" horiz-adv-x="296" 
d="M66 293q0 34 24 58t58 24t58 -24t24 -58t-24 -58t-58 -24t-58 24t-24 58z" />
    <glyph glyph-name="cedilla" unicode="&#xb8;" horiz-adv-x="278" 
d="M117 0h51l-41 -63q20 5 39 5q45 0 65.5 -23.5t20.5 -51.5q0 -31 -27 -61t-92 -30q-47 0 -120 25l18 43q55 -20 86 -20q20 0 35.5 11t15.5 28q0 19 -11.5 30t-31.5 11q-24 0 -44 -9l-22 16z" />
    <glyph glyph-name="onesuperior" unicode="&#xb9;" horiz-adv-x="385" 
d="M177 291v334l-101 -75l-45 50l156 112h86v-421h-96z" />
    <glyph glyph-name="ordmasculine" unicode="&#xba;" horiz-adv-x="388" 
d="M116 542q0 -121 79 -121q78 0 78 121q0 61 -21 91.5t-57 30.5q-79 0 -79 -122zM13 544q0 84 47.5 134.5t134.5 50.5q86 0 133.5 -50.5t47.5 -134.5q0 -88 -48.5 -138t-132.5 -50q-85 0 -133.5 50t-48.5 138z" />
    <glyph glyph-name="guillemotright" unicode="&#xbb;" horiz-adv-x="537" 
d="M279 300l-176 -241l-79 52l125 189l-125 187l79 52zM513 300l-176 -241l-79 52l125 189l-125 187l79 52z" />
    <glyph glyph-name="onequarter" unicode="&#xbc;" horiz-adv-x="889" 
d="M692 0v68h-202v78l188 281h103v-289h59v-70h-59v-68h-89zM692 138v115q0 42 8 90h-4q-11 -26 -32 -58l-93 -147h121zM202 -25l387 762h79l-387 -762h-79zM177 291v334l-101 -75l-45 50l156 112h86v-421h-96z" />
    <glyph glyph-name="onehalf" unicode="&#xbd;" horiz-adv-x="889" 
d="M172 -25l387 762h79l-387 -762h-79zM177 291v334l-101 -75l-45 50l156 112h86v-421h-96zM501 -1v61l133 120q90 80 90 122q0 59 -66 59q-34 0 -52 -20t-21 -43l-92 13q20 126 176 126q69 0 110 -34.5t41 -87.5q0 -69 -73 -137l-113 -103h182v-76h-315z" />
    <glyph glyph-name="threequarters" unicode="&#xbe;" horiz-adv-x="889" 
d="M692 0v68h-202v78l188 281h103v-289h59v-70h-59v-68h-89zM692 138v115q0 42 8 90h-4q-11 -26 -32 -58l-93 -147h121zM222 -25l387 762h79l-387 -762h-79zM31 398l83 17q3 -24 24.5 -41t50.5 -17q34 0 53 17.5t19 40.5q0 32 -24 48t-64 16h-27v65q30 1 49.5 4.5t38 17.5
t18.5 39q0 22 -16 38t-45 16q-22 0 -38.5 -9.5t-20.5 -15.5t-12 -20l-84 21q40 94 160 94q62 0 105 -25.5t43 -85.5q0 -73 -86 -101v-2q95 -16 95 -105q0 -49 -39 -87.5t-122 -38.5q-68 0 -106.5 28.5t-54.5 85.5z" />
    <glyph glyph-name="questiondown" unicode="&#xbf;" horiz-adv-x="537" 
d="M323 373v-50q0 -68 -40 -109l-53 -53q-54 -54 -54 -108q0 -36 23.5 -59t66.5 -23q26 0 45.5 10.5t29.5 27t14 29t6 24.5l126 -26q-42 -167 -232 -167q-97 0 -154 50.5t-57 131.5q0 79 72 144l43 39q54 49 54 89v50h110zM332 598v-132h-128v132h128z" />
    <glyph glyph-name="Agrave" unicode="&#xc0;" horiz-adv-x="722" 
d="M250 276h220l-79 224q-20 56 -28 98h-5q-8 -48 -26 -98zM2 0l268 712h191l259 -712h-157l-57 166h-294l-59 -166h-151zM359 907l99 -146h-104l-159 146h164z" />
    <glyph glyph-name="Aacute" unicode="&#xc1;" horiz-adv-x="722" 
d="M250 276h220l-79 224q-20 56 -28 98h-5q-8 -48 -26 -98zM2 0l268 712h191l259 -712h-157l-57 166h-294l-59 -166h-151zM264 761l99 146h164l-159 -146h-104z" />
    <glyph glyph-name="Acircumflex" unicode="&#xc2;" horiz-adv-x="722" 
d="M250 276h220l-79 224q-20 56 -28 98h-5q-8 -48 -26 -98zM2 0l268 712h191l259 -712h-157l-57 166h-294l-59 -166h-151zM295 907h132l114 -146h-114l-66 86l-66 -86h-114z" />
    <glyph glyph-name="Atilde" unicode="&#xc3;" horiz-adv-x="722" 
d="M250 276h220l-79 224q-20 56 -28 98h-5q-8 -48 -26 -98zM2 0l268 712h191l259 -712h-157l-57 166h-294l-59 -166h-151zM243 771h-65q14 67 39 94t70 27q25 0 74 -18.5t71 -18.5q37 0 47 42h65q-14 -67 -39 -94t-70 -27q-25 0 -74 18.5t-71 18.5q-37 0 -47 -42z" />
    <glyph glyph-name="Adieresis" unicode="&#xc4;" horiz-adv-x="722" 
d="M250 276h220l-79 224q-20 56 -28 98h-5q-8 -48 -26 -98zM2 0l268 712h191l259 -712h-157l-57 166h-294l-59 -166h-151zM395 876h144v-107h-144v107zM183 876h144v-107h-144v107z" />
    <glyph glyph-name="Aring" unicode="&#xc5;" horiz-adv-x="722" 
d="M250 276h220l-79 224q-20 56 -28 98h-5q-8 -48 -26 -98zM2 0l268 712h191l259 -712h-157l-57 166h-294l-59 -166h-151zM256 857q0 43 31 74t74 31t74 -31t31 -74t-31 -74t-74 -31t-74 31t-31 74zM306 857q0 -23 16 -39t39 -16t39 16t16 39t-16 39t-39 16t-39 -16t-16 -39
z" />
    <glyph glyph-name="AE" unicode="&#xc6;" horiz-adv-x="963" 
d="M496 0v172h-241l-91 -172h-160l392 712h505v-114h-261v-174h246v-114h-246v-196h275v-114h-419zM496 282v328h-11l-174 -328h185z" />
    <glyph glyph-name="Ccedilla" unicode="&#xc7;" horiz-adv-x="685" 
d="M642 527l-139 -29q-5 52 -40 84.5t-86 32.5q-83 0 -129.5 -64t-46.5 -195q0 -132 42.5 -195.5t118.5 -63.5q67 0 103.5 39.5t44.5 86.5l140 -31q-3 -15 -9 -34t-26 -50.5t-47.5 -56.5t-78 -45t-113.5 -23l-31 -46q20 5 39 5q45 0 65.5 -23.5t20.5 -51.5q0 -31 -27 -61
t-92 -30q-47 0 -120 25l18 43q55 -20 86 -20q20 0 35.5 11t15.5 28q0 19 -11.5 30t-31.5 11q-24 0 -44 -9l-22 16l48 72q-131 10 -206.5 106t-75.5 267q0 179 91 276t243 97q108 0 174 -53t91 -149z" />
    <glyph glyph-name="Egrave" unicode="&#xc8;" horiz-adv-x="593" 
d="M73 0v712h462v-114h-312v-174h295v-114h-295v-196h322v-114h-472zM295 907l99 -146h-104l-159 146h164z" />
    <glyph glyph-name="Eacute" unicode="&#xc9;" horiz-adv-x="593" 
d="M73 0v712h462v-114h-312v-174h295v-114h-295v-196h322v-114h-472zM200 761l99 146h164l-159 -146h-104z" />
    <glyph glyph-name="Ecircumflex" unicode="&#xca;" horiz-adv-x="593" 
d="M73 0v712h462v-114h-312v-174h295v-114h-295v-196h322v-114h-472zM231 907h132l114 -146h-114l-66 86l-66 -86h-114z" />
    <glyph glyph-name="Edieresis" unicode="&#xcb;" horiz-adv-x="593" 
d="M73 0v712h462v-114h-312v-174h295v-114h-295v-196h322v-114h-472zM331 876h144v-107h-144v107zM119 876h144v-107h-144v107z" />
    <glyph glyph-name="Igrave" unicode="&#xcc;" horiz-adv-x="296" 
d="M73 0v712h150v-712h-150zM146 922l99 -146h-104l-159 146h164z" />
    <glyph glyph-name="Iacute" unicode="&#xcd;" horiz-adv-x="296" 
d="M73 0v712h150v-712h-150zM51 761l99 146h164l-159 -146h-104z" />
    <glyph glyph-name="Icircumflex" unicode="&#xce;" horiz-adv-x="296" 
d="M73 0v712h150v-712h-150zM82 907h132l114 -146h-114l-66 86l-66 -86h-114z" />
    <glyph glyph-name="Idieresis" unicode="&#xcf;" horiz-adv-x="296" 
d="M73 0v712h150v-712h-150zM182 891h144v-107h-144v107zM-30 891h144v-107h-144v107z" />
    <glyph glyph-name="Eth" unicode="&#xd0;" horiz-adv-x="722" 
d="M73 0v347h-73v65h73v300h282q44 0 86 -10t86 -36t76.5 -65.5t53.5 -103t21 -143.5q0 -175 -98.5 -264.5t-272.5 -89.5h-234zM223 347v-233h90q101 0 153.5 67.5t53.5 175.5q-1 104 -50.5 172.5t-154.5 68.5h-92v-186h156v-65h-156z" />
    <glyph glyph-name="Ntilde" unicode="&#xd1;" horiz-adv-x="759" 
d="M73 0v712h193l190 -345q77 -143 92 -211h7q-7 63 -7 196v360h138v-712h-198l-217 407q-42 76 -61 149h-6q7 -114 7 -165v-391h-138zM262 786h-65q14 67 39 94t70 27q26 0 74 -18.5t71 -18.5q37 0 47 42h65q-14 -67 -39 -94t-70 -27q-26 0 -74 18.5t-71 18.5
q-37 0 -47 -42z" />
    <glyph glyph-name="Ograve" unicode="&#xd2;" horiz-adv-x="740" 
d="M370 97q83 0 129.5 64t46.5 195t-46.5 195t-129.5 64t-129.5 -64t-46.5 -195t46.5 -195t129.5 -64zM370 -17q-152 0 -243 97t-91 276t91 276t243 97t243 -97t91 -276t-91 -276t-243 -97zM368 922l99 -146h-104l-159 146h164z" />
    <glyph glyph-name="Oacute" unicode="&#xd3;" horiz-adv-x="740" 
d="M370 97q83 0 129.5 64t46.5 195t-46.5 195t-129.5 64t-129.5 -64t-46.5 -195t46.5 -195t129.5 -64zM370 -17q-152 0 -243 97t-91 276t91 276t243 97t243 -97t91 -276t-91 -276t-243 -97zM273 776l99 146h164l-159 -146h-104z" />
    <glyph glyph-name="Ocircumflex" unicode="&#xd4;" horiz-adv-x="740" 
d="M370 97q83 0 129.5 64t46.5 195t-46.5 195t-129.5 64t-129.5 -64t-46.5 -195t46.5 -195t129.5 -64zM370 -17q-152 0 -243 97t-91 276t91 276t243 97t243 -97t91 -276t-91 -276t-243 -97zM304 922h132l114 -146h-114l-66 86l-66 -86h-114z" />
    <glyph glyph-name="Otilde" unicode="&#xd5;" horiz-adv-x="740" 
d="M370 97q83 0 129.5 64t46.5 195t-46.5 195t-129.5 64t-129.5 -64t-46.5 -195t46.5 -195t129.5 -64zM370 -17q-152 0 -243 97t-91 276t91 276t243 97t243 -97t91 -276t-91 -276t-243 -97zM252 786h-65q14 67 39 94t70 27q26 0 74 -18.5t71 -18.5q37 0 47 42h65
q-14 -67 -39 -94t-70 -27q-26 0 -74 18.5t-71 18.5q-37 0 -47 -42z" />
    <glyph glyph-name="Odieresis" unicode="&#xd6;" horiz-adv-x="740" 
d="M370 97q83 0 129.5 64t46.5 195t-46.5 195t-129.5 64t-129.5 -64t-46.5 -195t46.5 -195t129.5 -64zM370 -17q-152 0 -243 97t-91 276t91 276t243 97t243 -97t91 -276t-91 -276t-243 -97zM404 891h144v-107h-144v107zM192 891h144v-107h-144v107z" />
    <glyph glyph-name="multiply" unicode="&#xd7;" horiz-adv-x="600" 
d="M233 253l-166 166l67 67l166 -167l166 167l67 -67l-167 -166l167 -166l-67 -67l-166 167l-166 -167l-67 67z" />
    <glyph glyph-name="Oslash" unicode="&#xd8;" horiz-adv-x="740" 
d="M528 490l-289 -326q45 -67 131 -67q83 0 129.5 64t46.5 195q0 80 -18 134zM86 -9l-43 38l65 74q-72 95 -72 253q0 179 91 276t243 97q138 0 223 -78l61 69l43 -38l-65 -73q72 -95 72 -253q0 -179 -91 -276t-243 -97q-136 0 -222 78zM213 221l288 326q-45 68 -131 68
q-83 0 -129.5 -64t-46.5 -195q0 -84 19 -135z" />
    <glyph glyph-name="Ugrave" unicode="&#xd9;" horiz-adv-x="704" 
d="M494 712h144v-432q0 -297 -296 -297q-134 0 -205 75.5t-71 221.5v432h144v-432q0 -183 142 -183t142 183v432zM350 922l99 -146h-104l-159 146h164z" />
    <glyph glyph-name="Uacute" unicode="&#xda;" horiz-adv-x="704" 
d="M494 712h144v-432q0 -297 -296 -297q-134 0 -205 75.5t-71 221.5v432h144v-432q0 -183 142 -183t142 183v432zM255 776l99 146h164l-159 -146h-104z" />
    <glyph glyph-name="Ucircumflex" unicode="&#xdb;" horiz-adv-x="704" 
d="M494 712h144v-432q0 -297 -296 -297q-134 0 -205 75.5t-71 221.5v432h144v-432q0 -183 142 -183t142 183v432zM286 922h132l114 -146h-114l-66 86l-66 -86h-114z" />
    <glyph glyph-name="Udieresis" unicode="&#xdc;" horiz-adv-x="704" 
d="M494 712h144v-432q0 -297 -296 -297q-134 0 -205 75.5t-71 221.5v432h144v-432q0 -183 142 -183t142 183v432zM386 891h144v-107h-144v107zM174 891h144v-107h-144v107z" />
    <glyph glyph-name="Yacute" unicode="&#xdd;" horiz-adv-x="667" 
d="M257 0v275l-256 437h175l125 -229q13 -25 35 -83h3q13 43 37 87l122 225h168l-259 -437v-275h-150zM237 776l99 146h164l-159 -146h-104z" />
    <glyph glyph-name="Thorn" unicode="&#xde;" horiz-adv-x="611" 
d="M60 0v712h150v-97h133q122 0 181.5 -60.5t59.5 -157.5q0 -115 -70 -171t-170 -56h-134v-170h-150zM210 505v-225h118q45 0 78.5 32t33.5 86q0 107 -98 107h-132z" />
    <glyph glyph-name="germandbls" unicode="&#xdf;" horiz-adv-x="630" 
d="M76 0v548q0 46 11.5 85.5t38 76.5t80 58t128.5 21q105 0 157.5 -58.5t52.5 -137.5q0 -67 -36 -113t-95 -57v-6q84 -10 129.5 -64.5t45.5 -141.5q0 -105 -59.5 -164t-148.5 -59q-64 0 -111 15l22 105q32 -14 54 -14q52 0 78.5 37.5t26.5 90.5q0 65 -29.5 103t-104.5 38
q-13 0 -25 -3v102q120 0 120 110q0 27 -6.5 49.5t-28.5 42.5t-59 20q-53 0 -75 -33.5t-22 -82.5v-568h-144z" />
    <glyph glyph-name="agrave" unicode="&#xe0;" horiz-adv-x="574" 
d="M382 0l-5 90q-82 -102 -184 -102q-77 0 -121 49.5t-44 131.5q0 108 77 157t209 49h63v46q0 41 -23.5 67t-72.5 26q-46 0 -66.5 -21t-39.5 -70l-126 35q30 72 83 112t154 40q105 0 167 -52t62 -164v-292q0 -40 5 -102h-138zM377 168v121h-43q-88 0 -128 -27t-40 -81
q0 -38 20 -60.5t54 -22.5q39 0 62 12.5t75 57.5zM285 808l99 -146h-104l-159 146h164z" />
    <glyph glyph-name="aacute" unicode="&#xe1;" horiz-adv-x="574" 
d="M382 0l-5 90q-82 -102 -184 -102q-77 0 -121 49.5t-44 131.5q0 108 77 157t209 49h63v46q0 41 -23.5 67t-72.5 26q-46 0 -66.5 -21t-39.5 -70l-126 35q30 72 83 112t154 40q105 0 167 -52t62 -164v-292q0 -40 5 -102h-138zM377 168v121h-43q-88 0 -128 -27t-40 -81
q0 -38 20 -60.5t54 -22.5q39 0 62 12.5t75 57.5zM190 662l99 146h164l-159 -146h-104z" />
    <glyph glyph-name="acircumflex" unicode="&#xe2;" horiz-adv-x="574" 
d="M382 0l-5 90q-82 -102 -184 -102q-77 0 -121 49.5t-44 131.5q0 108 77 157t209 49h63v46q0 41 -23.5 67t-72.5 26q-46 0 -66.5 -21t-39.5 -70l-126 35q30 72 83 112t154 40q105 0 167 -52t62 -164v-292q0 -40 5 -102h-138zM377 168v121h-43q-88 0 -128 -27t-40 -81
q0 -38 20 -60.5t54 -22.5q39 0 62 12.5t75 57.5zM221 808h132l114 -146h-114l-66 86l-66 -86h-114z" />
    <glyph glyph-name="atilde" unicode="&#xe3;" horiz-adv-x="574" 
d="M382 0l-5 90q-82 -102 -184 -102q-77 0 -121 49.5t-44 131.5q0 108 77 157t209 49h63v46q0 41 -23.5 67t-72.5 26q-46 0 -66.5 -21t-39.5 -70l-126 35q30 72 83 112t154 40q105 0 167 -52t62 -164v-292q0 -40 5 -102h-138zM377 168v121h-43q-88 0 -128 -27t-40 -81
q0 -38 20 -60.5t54 -22.5q39 0 62 12.5t75 57.5zM169 672h-65q14 67 39 94t70 27q25 0 74 -18.5t71 -18.5q37 0 47 42h65q-14 -67 -39 -94t-70 -27q-25 0 -74 18.5t-71 18.5q-37 0 -47 -42z" />
    <glyph glyph-name="adieresis" unicode="&#xe4;" horiz-adv-x="574" 
d="M382 0l-5 90q-82 -102 -184 -102q-77 0 -121 49.5t-44 131.5q0 108 77 157t209 49h63v46q0 41 -23.5 67t-72.5 26q-46 0 -66.5 -21t-39.5 -70l-126 35q30 72 83 112t154 40q105 0 167 -52t62 -164v-292q0 -40 5 -102h-138zM377 168v121h-43q-88 0 -128 -27t-40 -81
q0 -38 20 -60.5t54 -22.5q39 0 62 12.5t75 57.5zM321 777h144v-107h-144v107zM109 777h144v-107h-144v107z" />
    <glyph glyph-name="aring" unicode="&#xe5;" horiz-adv-x="574" 
d="M382 0l-5 90q-82 -102 -184 -102q-77 0 -121 49.5t-44 131.5q0 108 77 157t209 49h63v46q0 41 -23.5 67t-72.5 26q-46 0 -66.5 -21t-39.5 -70l-126 35q30 72 83 112t154 40q105 0 167 -52t62 -164v-292q0 -40 5 -102h-138zM377 168v121h-43q-88 0 -128 -27t-40 -81
q0 -38 20 -60.5t54 -22.5q39 0 62 12.5t75 57.5zM182 743q0 43 31 74t74 31t74 -31t31 -74t-31 -74t-74 -31t-74 31t-31 74zM232 743q0 -23 16 -39t39 -16t39 16t16 39t-16 39t-39 16t-39 -16t-16 -39z" />
    <glyph glyph-name="ae" unicode="&#xe6;" horiz-adv-x="926" 
d="M385 179v102h-66q-69 0 -108 -27t-39 -73q0 -42 25.5 -61t58.5 -18q64 1 129 77zM183 420l-128 39q20 61 75.5 106t155.5 45q128 0 179 -83q36 45 73 64t112 19q80 0 137 -43t82 -108.5t25 -145.5v-46h-371q0 -94 33 -135.5t83 -41.5q82 0 113 91l125 -41
q-68 -152 -232 -152q-48 0 -84 8.5t-61.5 27t-39.5 32.5t-34 40q-47 -55 -107 -81.5t-110 -26.5q-88 0 -134.5 53.5t-46.5 127.5q0 85 75 144.5t226 59.5h56v34q0 101 -99 101q-42 0 -68 -27.5t-35 -60.5zM523 363h227q0 74 -32 109.5t-80 35.5q-61 0 -88 -40.5t-27 -104.5z
" />
    <glyph glyph-name="ccedilla" unicode="&#xe7;" horiz-adv-x="537" 
d="M401 196l130 -33q-12 -34 -23.5 -56.5t-35.5 -52t-62.5 -46t-91.5 -20.5l-34 -51q20 5 39 5q45 0 65.5 -23.5t20.5 -51.5q0 -31 -27 -61t-92 -30q-47 0 -120 25l18 43q55 -20 86 -20q20 0 35.5 11t15.5 28q0 19 -11.5 30t-31.5 11q-24 0 -44 -9l-22 16l51 77
q-61 6 -106.5 34.5t-70.5 72.5t-36.5 94.5t-11.5 107.5q0 139 64 226t196 87q54 0 97.5 -19t69 -48t39.5 -57t17 -53l-134 -36q-1 47 -24.5 79t-67.5 32q-56 0 -81.5 -49.5t-25.5 -150.5q0 -51 4.5 -88t16 -68t33.5 -46.5t55 -15.5q46 0 70.5 33.5t29.5 72.5z" />
    <glyph glyph-name="egrave" unicode="&#xe8;" 
d="M416 179l122 -40q-61 -151 -232 -151q-126 0 -200 83.5t-74 229.5q0 140 72.5 224.5t202.5 84.5q121 0 187 -83.5t66 -209.5v-54h-384q0 -30 5.5 -57.5t19 -55t39.5 -44t63 -16.5q44 0 74 28t39 61zM176 359h240q0 72 -30.5 111.5t-83.5 37.5q-61 1 -91.5 -41.5
t-34.5 -107.5zM294 808l99 -146h-104l-159 146h164z" />
    <glyph glyph-name="eacute" unicode="&#xe9;" 
d="M416 179l122 -40q-61 -151 -232 -151q-126 0 -200 83.5t-74 229.5q0 140 72.5 224.5t202.5 84.5q121 0 187 -83.5t66 -209.5v-54h-384q0 -30 5.5 -57.5t19 -55t39.5 -44t63 -16.5q44 0 74 28t39 61zM176 359h240q0 72 -30.5 111.5t-83.5 37.5q-61 1 -91.5 -41.5
t-34.5 -107.5zM199 662l99 146h164l-159 -146h-104z" />
    <glyph glyph-name="ecircumflex" unicode="&#xea;" 
d="M416 179l122 -40q-61 -151 -232 -151q-126 0 -200 83.5t-74 229.5q0 140 72.5 224.5t202.5 84.5q121 0 187 -83.5t66 -209.5v-54h-384q0 -30 5.5 -57.5t19 -55t39.5 -44t63 -16.5q44 0 74 28t39 61zM176 359h240q0 72 -30.5 111.5t-83.5 37.5q-61 1 -91.5 -41.5
t-34.5 -107.5zM230 808h132l114 -146h-114l-66 86l-66 -86h-114z" />
    <glyph glyph-name="edieresis" unicode="&#xeb;" 
d="M416 179l122 -40q-61 -151 -232 -151q-126 0 -200 83.5t-74 229.5q0 140 72.5 224.5t202.5 84.5q121 0 187 -83.5t66 -209.5v-54h-384q0 -30 5.5 -57.5t19 -55t39.5 -44t63 -16.5q44 0 74 28t39 61zM176 359h240q0 72 -30.5 111.5t-83.5 37.5q-61 1 -91.5 -41.5
t-34.5 -107.5zM330 777h144v-107h-144v107zM118 777h144v-107h-144v107z" />
    <glyph glyph-name="igrave" unicode="&#xec;" horiz-adv-x="278" 
d="M67 0v598h144v-598h-144zM137 808l99 -146h-104l-159 146h164z" />
    <glyph glyph-name="iacute" unicode="&#xed;" horiz-adv-x="278" 
d="M67 0v598h144v-598h-144zM42 662l99 146h164l-159 -146h-104z" />
    <glyph glyph-name="icircumflex" unicode="&#xee;" horiz-adv-x="278" 
d="M67 0v598h144v-598h-144zM73 808h132l114 -146h-114l-66 86l-66 -86h-114z" />
    <glyph glyph-name="idieresis" unicode="&#xef;" horiz-adv-x="278" 
d="M67 0v598h144v-598h-144zM173 777h144v-107h-144v107zM-39 777h144v-107h-144v107z" />
    <glyph glyph-name="eth" unicode="&#xf0;" horiz-adv-x="612" 
d="M306 90q124 0 124 209q0 78 -35 125t-84 47q-64 0 -96.5 -47t-32.5 -125q0 -209 124 -209zM158 581l-39 50l92 46q-44 35 -76 52l101 70q45 -30 90 -65l103 51l39 -50l-90 -45q202 -183 202 -389q0 -146 -74 -229.5t-200 -83.5t-200 83.5t-74 229.5q0 101 66.5 179.5
t171.5 78.5q53 0 90 -27l2 2q-42 50 -99 99z" />
    <glyph glyph-name="ntilde" unicode="&#xf1;" horiz-adv-x="630" 
d="M416 0v403q0 42 -19.5 63.5t-55.5 21.5q-32 0 -57 -16t-70 -59v-413h-144v598h144v-89q105 101 200 101q146 0 146 -176v-434h-144zM197 672h-65q14 67 39 94t70 27q25 0 74 -18.5t71 -18.5q37 0 47 42h65q-14 -67 -39 -94t-70 -27q-25 0 -74 18.5t-71 18.5
q-37 0 -47 -42z" />
    <glyph glyph-name="ograve" unicode="&#xf2;" horiz-adv-x="612" 
d="M182 299q0 -209 124 -209t124 209t-124 209t-124 -209zM32 301q0 138 75 223.5t199 85.5q129 0 201.5 -84.5t72.5 -224.5q0 -144 -76 -228.5t-198 -84.5q-126 0 -200 83.5t-74 229.5zM304 808l99 -146h-104l-159 146h164z" />
    <glyph glyph-name="oacute" unicode="&#xf3;" horiz-adv-x="612" 
d="M182 299q0 -209 124 -209t124 209t-124 209t-124 -209zM32 301q0 138 75 223.5t199 85.5q129 0 201.5 -84.5t72.5 -224.5q0 -144 -76 -228.5t-198 -84.5q-126 0 -200 83.5t-74 229.5zM209 662l99 146h164l-159 -146h-104z" />
    <glyph glyph-name="ocircumflex" unicode="&#xf4;" horiz-adv-x="612" 
d="M182 299q0 -209 124 -209t124 209t-124 209t-124 -209zM32 301q0 138 75 223.5t199 85.5q129 0 201.5 -84.5t72.5 -224.5q0 -144 -76 -228.5t-198 -84.5q-126 0 -200 83.5t-74 229.5zM240 808h132l114 -146h-114l-66 86l-66 -86h-114z" />
    <glyph glyph-name="otilde" unicode="&#xf5;" horiz-adv-x="612" 
d="M182 299q0 -209 124 -209t124 209t-124 209t-124 -209zM32 301q0 138 75 223.5t199 85.5q129 0 201.5 -84.5t72.5 -224.5q0 -144 -76 -228.5t-198 -84.5q-126 0 -200 83.5t-74 229.5zM188 672h-65q14 67 39 94t70 27q26 0 74 -18.5t71 -18.5q37 0 47 42h65
q-14 -67 -39 -94t-70 -27q-26 0 -74 18.5t-71 18.5q-37 0 -47 -42z" />
    <glyph glyph-name="odieresis" unicode="&#xf6;" horiz-adv-x="612" 
d="M182 299q0 -209 124 -209t124 209t-124 209t-124 -209zM32 301q0 138 75 223.5t199 85.5q129 0 201.5 -84.5t72.5 -224.5q0 -144 -76 -228.5t-198 -84.5q-126 0 -200 83.5t-74 229.5zM340 777h144v-107h-144v107zM128 777h144v-107h-144v107z" />
    <glyph glyph-name="divide" unicode="&#xf7;" horiz-adv-x="600" 
d="M552 205h-504v96h504v-96zM220 460q0 33 24 57t57 24q32 0 56 -24.5t24 -56.5q0 -30 -24.5 -55t-54.5 -25q-34 0 -58 24t-24 56zM220 46q0 33 24 56.5t57 23.5q32 0 56 -24t24 -56q0 -30 -24.5 -55.5t-54.5 -25.5q-34 0 -58 24.5t-24 56.5z" />
    <glyph glyph-name="oslash" unicode="&#xf8;" horiz-adv-x="612" 
d="M190 208l211 241q-31 61 -95 59q-124 2 -124 -209q0 -53 8 -91zM422 390l-211 -242q30 -58 95 -58q124 0 124 209q0 51 -8 91zM24 19l65 74q-57 83 -57 208q0 140 72.5 224.5t201.5 84.5q109 0 180 -63l61 68l41 -36l-65 -73q57 -80 57 -205q0 -146 -74 -229.5
t-200 -83.5q-109 0 -180 63l-61 -68z" />
    <glyph glyph-name="ugrave" unicode="&#xf9;" horiz-adv-x="611" 
d="M547 598v-598h-144v91q-103 -103 -200 -103q-139 0 -139 176v434h144v-403q0 -41 18.5 -63t49.5 -22q22 0 43.5 10.5t36 23t47.5 43.5v411h144zM304 808l99 -146h-104l-159 146h164z" />
    <glyph glyph-name="uacute" unicode="&#xfa;" horiz-adv-x="611" 
d="M547 598v-598h-144v91q-103 -103 -200 -103q-139 0 -139 176v434h144v-403q0 -41 18.5 -63t49.5 -22q22 0 43.5 10.5t36 23t47.5 43.5v411h144zM209 662l99 146h164l-159 -146h-104z" />
    <glyph glyph-name="ucircumflex" unicode="&#xfb;" horiz-adv-x="611" 
d="M547 598v-598h-144v91q-103 -103 -200 -103q-139 0 -139 176v434h144v-403q0 -41 18.5 -63t49.5 -22q22 0 43.5 10.5t36 23t47.5 43.5v411h144zM240 808h132l114 -146h-114l-66 86l-66 -86h-114z" />
    <glyph glyph-name="udieresis" unicode="&#xfc;" horiz-adv-x="611" 
d="M547 598v-598h-144v91q-103 -103 -200 -103q-139 0 -139 176v434h144v-403q0 -41 18.5 -63t49.5 -22q22 0 43.5 10.5t36 23t47.5 43.5v411h144zM340 777h144v-107h-144v107zM128 777h144v-107h-144v107z" />
    <glyph glyph-name="yacute" unicode="&#xfd;" horiz-adv-x="556" 
d="M50 -188l7 111q40 -11 59 -11q18 0 30 4t30.5 27t35.5 67l-210 588h155l92 -284q9 -27 32 -147h6q7 69 31 143l92 288h144l-217 -639q-28 -84 -69 -122.5t-115 -38.5q-53 0 -103 14zM181 662l99 146h164l-159 -146h-104z" />
    <glyph glyph-name="thorn" unicode="&#xfe;" horiz-adv-x="630" 
d="M70 -195v972h144v-249q35 31 52 44t47.5 25.5t65.5 12.5q60 0 103.5 -29t65 -77.5t31 -98t9.5 -103.5q0 -154 -52.5 -234t-155.5 -80q-91 0 -166 83v-266h-144zM214 433v-268q49 -67 115 -67q57 0 84.5 54.5t27.5 148.5q0 199 -118 199q-59 0 -109 -67z" />
    <glyph glyph-name="ydieresis" unicode="&#xff;" horiz-adv-x="556" 
d="M50 -188l7 111q40 -11 59 -11q18 0 30 4t30.5 27t35.5 67l-210 588h155l92 -284q9 -27 32 -147h6q7 69 31 143l92 288h144l-217 -639q-28 -84 -69 -122.5t-115 -38.5q-53 0 -103 14zM312 777h144v-107h-144v107zM100 777h144v-107h-144v107z" />
    <glyph glyph-name="dotlessi" unicode="&#x131;" horiz-adv-x="278" 
d="M67 0v598h144v-598h-144z" />
    <glyph glyph-name="Lslash" unicode="&#x141;" horiz-adv-x="519" 
d="M73 0v248l-67 -44v75l67 44v389h150v-291l186 122v-77l-186 -121v-227h283v-118h-433z" />
    <glyph glyph-name="lslash" unicode="&#x142;" horiz-adv-x="278" 
d="M67 0v316l-65 -48v74l65 48v387h144v-282l65 48v-74l-65 -48v-421h-144z" />
    <glyph glyph-name="OE" unicode="&#x152;" horiz-adv-x="944" 
d="M480 120v480q-30 2 -51 2q-105 0 -167 -65t-62 -171q0 -71 20.5 -121.5t57 -77t76 -38t86.5 -11.5q14 0 40 2zM865 424v-114h-241v-196h272v-114h-337q-18 0 -70 -2t-80 -2q-164 0 -265.5 93t-101.5 270q0 90 29.5 160t81 112t116.5 63.5t140 21.5q31 0 95 -2
q66 -2 85 -2h293v-114h-258v-174h241z" />
    <glyph glyph-name="oe" unicode="&#x153;" horiz-adv-x="981" 
d="M182 299q0 -209 124 -209t124 209t-124 209t-124 -209zM804 181l125 -41q-68 -152 -232 -152q-60 0 -103.5 17t-59 32.5t-37.5 43.5q-22 -29 -40 -46t-57.5 -32t-93.5 -15q-126 0 -200 83.5t-74 229.5q0 140 72.5 224.5t201.5 84.5q74 0 118 -23.5t74 -66.5q36 44 84 67
t123 23q80 0 137 -43t82 -108.5t25 -145.5v-46h-375q0 -94 33 -135.5t83 -41.5q83 0 114 91zM574 363h231q0 74 -32 109.5t-81 35.5q-63 0 -90.5 -40.5t-27.5 -104.5z" />
    <glyph glyph-name="Scaron" unicode="&#x160;" horiz-adv-x="611" 
d="M553 583l-136 -45q-5 16 -10 26t-16.5 25t-31 22.5t-46.5 7.5q-56 0 -84 -25.5t-28 -59.5q0 -27 12.5 -42.5t48.5 -30.5l156 -65q78 -32 114 -76.5t36 -113.5q0 -95 -72.5 -159t-202.5 -64q-113 0 -178 51t-79 116l135 51q6 -43 36.5 -73.5t92.5 -30.5q54 0 86 25.5
t32 68.5q0 57 -86 90l-95 37q-40 15 -69 30.5t-58 39t-44 56t-15 73.5q0 86 63.5 149t195.5 63q96 0 155.5 -31.5t87.5 -114.5zM372 776h-132l-114 146h114l66 -86l66 86h114z" />
    <glyph glyph-name="scaron" unicode="&#x161;" horiz-adv-x="519" 
d="M482 471l-120 -37q-4 15 -8.5 25.5t-15.5 25t-31 22t-49 7.5q-32 0 -55 -17t-23 -50q0 -16 5.5 -27.5t17 -19t19 -10.5t21.5 -8l115 -38q135 -43 135 -163q0 -193 -255 -193q-54 0 -95.5 15.5t-64.5 41.5t-35 48.5t-17 46.5l123 38q13 -44 38 -66t72 -22q45 0 67.5 24
t22.5 51q1 30 -16.5 44.5t-49.5 23.5l-92 29q-149 46 -149 166q0 91 62 136.5t154 45.5q95 0 150.5 -39.5t73.5 -99.5zM326 662h-132l-114 146h114l66 -86l66 86h114z" />
    <glyph glyph-name="Ydieresis" unicode="&#x178;" horiz-adv-x="667" 
d="M257 0v275l-256 437h175l125 -229q13 -25 35 -83h3q13 43 37 87l122 225h168l-259 -437v-275h-150zM368 891h144v-107h-144v107zM156 891h144v-107h-144v107z" />
    <glyph glyph-name="Zcaron" unicode="&#x17d;" horiz-adv-x="574" 
d="M28 0v118l338 480h-328v114h501v-120l-336 -478h342v-114h-517zM353 776h-132l-114 146h114l66 -86l66 86h114z" />
    <glyph glyph-name="zcaron" unicode="&#x17e;" horiz-adv-x="519" 
d="M23 0v96l291 400h-279v102h451v-97l-292 -399h302v-102h-473zM326 662h-132l-114 146h114l66 -86l66 86h114z" />
    <glyph glyph-name="florin" unicode="&#x192;" 
d="M159 61l68 293h-100l6 80h112l31 128q22 92 70 129.5t130 37.5q54 0 104 -28l-57 -84q-23 16 -50 16q-48 0 -65 -66l-33 -133h111l-6 -80h-124l-76 -318q-42 -176 -188 -176q-66 0 -108 28l51 86q26 -12 44 -12q26 0 43 16t23 33.5t14 49.5z" />
    <glyph glyph-name="circumflex" unicode="&#x2c6;" horiz-adv-x="278" 
d="M73 808h132l114 -146h-114l-66 86l-66 -86h-114z" />
    <glyph glyph-name="caron" unicode="&#x2c7;" horiz-adv-x="278" 
d="M205 662h-132l-114 146h114l66 -86l66 86h114z" />
    <glyph glyph-name="uni02C9" unicode="&#x2c9;" horiz-adv-x="278" 
d="M-16 773h310v-76h-310v76z" />
    <glyph glyph-name="breve" unicode="&#x2d8;" horiz-adv-x="278" 
d="M243 808h65q-17 -146 -169 -146t-169 146h65q14 -40 37 -56t67 -16t67 16t37 56z" />
    <glyph glyph-name="dotaccent" unicode="&#x2d9;" horiz-adv-x="278" 
d="M67 777h144v-107h-144v107z" />
    <glyph glyph-name="ring" unicode="&#x2da;" horiz-adv-x="278" 
d="M34 768q0 44 31 74.5t74 30.5t74 -30.5t31 -74.5t-31 -74.5t-74 -30.5t-74 30.5t-31 74.5zM84 768q0 -22 16 -38.5t39 -16.5t39 16.5t16 38.5t-16 38.5t-39 16.5t-39 -16.5t-16 -38.5z" />
    <glyph glyph-name="ogonek" unicode="&#x2db;" horiz-adv-x="278" 
d="M293 -129v-66q-62 -29 -113 -29q-45 0 -79 24t-34 67q0 38 25.5 69t81.5 70h77q-82 -57 -82 -105q0 -21 15 -34.5t42 -13.5q33 0 67 18z" />
    <glyph glyph-name="tilde" unicode="&#x2dc;" horiz-adv-x="278" 
d="M21 672h-65q14 67 39 94t70 27q25 0 74 -18.5t71 -18.5q37 0 47 42h65q-14 -67 -39 -94t-70 -27q-25 0 -74 18.5t-71 18.5q-37 0 -47 -42z" />
    <glyph glyph-name="hungarumlaut" unicode="&#x2dd;" horiz-adv-x="278" 
d="M-69 662l99 146h164l-159 -146h-104zM153 662l99 146h164l-159 -146h-104z" />
    <glyph glyph-name="uni03A9" unicode="&#x3a9;" horiz-adv-x="756" 
d="M190 97v3q-57 49 -95 124.5t-38 168.5q0 140 91 236t232 96q96 0 170 -49t110 -122.5t36 -155.5q0 -95 -38.5 -172.5t-96.5 -125.5v-3h150v-97h-275v72q60 37 99 113t39 189q0 103 -52 177.5t-142 74.5t-145 -72.5t-55 -184.5q0 -105 40 -184t98 -113v-72h-275v97h147z
" />
    <glyph glyph-name="uni03BC" unicode="&#x3bc;" horiz-adv-x="611" 
d="M64 -195v793h144v-388q0 -60 19 -80t54 -20q10 0 18.5 1.5t18 5.5t15 7.5t16 12t15.5 13t18.5 18t20.5 19.5v411h144v-598h-144v79h-2q-19 -43 -43.5 -65t-68.5 -22q-51 0 -79 44h-2v-231h-144z" />
    <glyph glyph-name="pi" unicode="&#x3c0;" horiz-adv-x="628" 
d="M602 434h-77v-280q0 -92 14 -154h-117q-18 30 -18 147v287h-157q-4 -100 -24 -232t-46 -202h-118q27 85 46.5 214t21.5 220q-71 0 -107 -11l-15 79q45 33 168 33h439z" />
    <glyph glyph-name="endash" unicode="&#x2013;" horiz-adv-x="500" 
d="M0 348h500v-96h-500v96z" />
    <glyph glyph-name="emdash" unicode="&#x2014;" horiz-adv-x="1000" 
d="M0 348h1000v-96h-1000v96z" />
    <glyph glyph-name="quoteleft" unicode="&#x2018;" horiz-adv-x="296" 
d="M188 524h-130l90 253h108z" />
    <glyph glyph-name="quoteright" unicode="&#x2019;" horiz-adv-x="296" 
d="M108 777h130l-90 -253h-108z" />
    <glyph glyph-name="quotesinglbase" unicode="&#x201a;" horiz-adv-x="296" 
d="M95 132h130l-90 -253h-108z" />
    <glyph glyph-name="quotedblleft" unicode="&#x201c;" horiz-adv-x="500" 
d="M188 524h-130l90 253h108zM405 524h-130l90 253h108z" />
    <glyph glyph-name="quotedblright" unicode="&#x201d;" horiz-adv-x="500" 
d="M312 777h130l-90 -253h-108zM95 777h130l-90 -253h-108z" />
    <glyph glyph-name="quotedblbase" unicode="&#x201e;" horiz-adv-x="500" 
d="M312 132h130l-90 -253h-108zM95 132h130l-90 -253h-108z" />
    <glyph glyph-name="dagger" unicode="&#x2020;" 
d="M227 -127v533h-184v114h184v192h138v-192h184v-114h-184v-533h-138z" />
    <glyph glyph-name="daggerdbl" unicode="&#x2021;" 
d="M227 -127v176h-170v110h170v267h-170v110h170v176h138v-176h170v-110h-170v-267h170v-110h-170v-176h-138z" />
    <glyph glyph-name="bullet" unicode="&#x2022;" horiz-adv-x="500" 
d="M425 356q0 -73 -51 -124t-124 -51t-124 51t-51 124q-1 73 50 124t125 51q73 0 124 -51t51 -124z" />
    <glyph glyph-name="ellipsis" unicode="&#x2026;" horiz-adv-x="1000" 
d="M103 0v132h128v-132h-128zM436 0v132h128v-132h-128zM769 0v132h128v-132h-128z" />
    <glyph glyph-name="perthousand" unicode="&#x2030;" horiz-adv-x="1093" 
d="M182 416q69 0 69 124t-69 124t-69 -124t69 -124zM182 351q-86 0 -123.5 53.5t-37.5 135.5t37.5 135.5t123.5 53.5t123.5 -53.5t37.5 -135.5t-37.5 -135.5t-123.5 -53.5zM549 -17q-86 0 -123.5 53.5t-37.5 135.5t37.5 135.5t123.5 53.5t123.5 -53.5t37.5 -135.5
t-37.5 -135.5t-123.5 -53.5zM549 48q69 0 69 124t-69 124t-69 -124t69 -124zM911 -17q-86 0 -123.5 53.5t-37.5 135.5t37.5 135.5t123.5 53.5t123.5 -53.5t37.5 -135.5t-37.5 -135.5t-123.5 -53.5zM911 48q69 0 69 124t-69 124t-69 -124t69 -124zM136 -25l387 762h73
l-387 -762h-73z" />
    <glyph glyph-name="guilsinglleft" unicode="&#x2039;" horiz-adv-x="315" 
d="M24 300l176 241l79 -53l-125 -188l125 -188l-79 -53z" />
    <glyph glyph-name="guilsinglright" unicode="&#x203a;" horiz-adv-x="315" 
d="M291 300l-176 -241l-79 52l125 189l-125 187l79 52z" />
    <glyph glyph-name="fraction" unicode="&#x2044;" horiz-adv-x="168" 
d="M-149 -25l387 762h79l-387 -762h-79z" />
    <glyph glyph-name="Euro" unicode="&#x20ac;" 
d="M60 469q20 106 91 177q83 83 215 83q64 0 132 -20q43 -12 85 -35l-55 -118q-35 28 -76 43q-37 14 -89 14q-60 0 -99 -43q-35 -39 -47 -101h271l-30 -64h-249q-1 -9 -1 -30v-30h222l-30 -64h-188q6 -79 42 -129q42 -55 115 -55q55 0 117 29q42 20 84 58v-143
q-39 -23 -79 -36q-65 -21 -135 -21q-152 0 -235 108q-59 81 -67 189h-73l29 64h40q0 22 2 60h-71l29 64h50z" />
    <glyph glyph-name="afii61289" unicode="&#x2113;" horiz-adv-x="537" 
d="M465 184l51 -51q-75 -141 -216 -141q-87 0 -132.5 48t-53.5 124q0 7 -1 11q-6 -5 -25 -20t-30 -23l-32 64q72 58 86 71v260q0 131 51.5 195t130.5 64q72 0 109 -50t37 -128q0 -164 -212 -361l1 -39q1 -58 28.5 -89t70.5 -31q41 0 76.5 28t60.5 68zM228 534v-177
q133 145 133 253q0 91 -62 91q-29 0 -50 -39.5t-21 -127.5z" />
    <glyph glyph-name="trademark" unicode="&#x2122;" horiz-adv-x="1000" 
d="M827 300v302h-2l-111 -302h-69l-111 302h-2v-302h-92v412h138l102 -271l101 271h138v-412h-92zM172 300v337h-120v75h336v-75h-120v-337h-96z" />
    <glyph glyph-name="Omega" unicode="&#x2126;" horiz-adv-x="756" 
d="M190 97v3q-57 49 -95 124.5t-38 168.5q0 140 91 236t232 96q96 0 170 -49t110 -122.5t36 -155.5q0 -95 -38.5 -172.5t-96.5 -125.5v-3h150v-97h-275v72q60 37 99 113t39 189q0 103 -52 177.5t-142 74.5t-145 -72.5t-55 -184.5q0 -105 40 -184t98 -113v-72h-275v97h147z
" />
    <glyph glyph-name="estimated" unicode="&#x212e;" horiz-adv-x="893" 
d="M858 348h-667q-5 0 -5 -4v-202q0 -12 9 -23q105 -110 252 -110q77 0 146 33t119 90h59q-56 -66 -142 -104.5t-183 -38.5q-170 0 -290.5 108t-120.5 261q0 154 120.5 262.5t290.5 108.5q171 0 291.5 -108.5t120.5 -262.5v-10zM707 374v203q0 14 -10 24q-108 106 -250 106
q-145 0 -251 -109q-10 -10 -10 -25v-199q0 -6 5 -6h511q5 0 5 6z" />
    <glyph glyph-name="partialdiff" unicode="&#x2202;" horiz-adv-x="600" 
d="M108 658l-36 88q78 59 190 59q121 0 203.5 -102.5t82.5 -287.5q0 -189 -77.5 -306t-214.5 -117q-102 0 -159 74.5t-57 167.5q0 119 65.5 192.5t161.5 73.5q59 0 102 -29.5t59 -59.5h2v37q0 108 -51.5 183.5t-131.5 75.5q-79 0 -139 -49zM268 91h1q59 0 99 66t50 153
q-11 33 -45.5 63.5t-81.5 30.5q-56 0 -94 -51t-38 -122q0 -60 30 -100t79 -40z" />
    <glyph glyph-name="Delta" unicode="&#x2206;" horiz-adv-x="693" 
d="M28 0v71l249 660h144l242 -658v-73h-635zM154 97h378l-125 323q-7 21 -31 90t-31 94h-3q-5 -19 -27 -81t-30 -88z" />
    <glyph glyph-name="product" unicode="&#x220f;" horiz-adv-x="755" 
d="M729 606h-110v-704h-119v704h-246v-704h-119v704h-110v108h704v-108z" />
    <glyph glyph-name="summation" unicode="&#x2211;" horiz-adv-x="589" 
d="M568 -99h-544v76l261 330l-251 324v83h517v-102h-353v-4l223 -282l-246 -311v-4h393v-110z" />
    <glyph glyph-name="minus" unicode="&#x2212;" horiz-adv-x="600" 
d="M552 205h-504v96h504v-96z" />
    <glyph glyph-name="uni2215" unicode="&#x2215;" horiz-adv-x="168" 
d="M-149 -25l387 762h79l-387 -762h-79z" />
    <glyph glyph-name="uni2219" unicode="&#x2219;" horiz-adv-x="296" 
d="M66 293q0 34 24 58t58 24t58 -24t24 -58t-24 -58t-58 -24t-58 24t-24 58z" />
    <glyph glyph-name="radical" unicode="&#x221a;" horiz-adv-x="618" 
d="M627 854l-237 -1000h-98l-160 453l-78 -30l-21 67l171 68l116 -341q4 -17 11.5 -45.5t9.5 -37.5l1 -1q2 9 4.5 23t6 34t5.5 31l184 779h85z" />
    <glyph glyph-name="infinity" unicode="&#x221e;" horiz-adv-x="810" 
d="M759 296v-1q0 -79 -49.5 -128t-116.5 -49q-93 0 -187 120q-48 -59 -92 -89.5t-102 -30.5q-66 0 -114 49t-48 123q0 77 49 126t122 49q54 0 99 -30.5t90 -87.5q54 61 81 81q50 37 109 37q69 -1 114 -47.5t45 -121.5zM221 185h2q28 0 57.5 18.5t44 34t44.5 49.5
q-51 66 -75 85q-36 28 -77 28q-45 0 -71.5 -31.5t-26.5 -79.5q0 -43 29 -73.5t73 -30.5zM593 400h-1q-18 0 -36 -6.5t-35.5 -21.5t-27 -24t-28 -30t-21.5 -24q51 -62 82.5 -85.5t69.5 -23.5q42 0 68 33t26 72q0 49 -27 79.5t-70 30.5z" />
    <glyph glyph-name="integral" unicode="&#x222b;" horiz-adv-x="402" 
d="M382 868l-14 -82q-18 10 -38 10q-33 0 -52 -26q-30 -36 -30 -174q0 -81 7.5 -242.5t7.5 -253.5q0 -136 -40 -204q-38 -70 -127 -70q-48 0 -78 17l16 84q25 -11 46 -11q30 0 47 21q31 41 31 163q0 92 -8 257.5t-8 249.5q0 89 14 141.5t47 86.5q42 45 116 45q34 0 63 -12z
" />
    <glyph glyph-name="approxequal" unicode="&#x2248;" horiz-adv-x="582" 
d="M495 460l43 -41q-55 -104 -140 -104q-30 0 -54.5 9t-65.5 33q-55 35 -92 35q-22 0 -42 -12.5t-30.5 -25t-28.5 -37.5l-44 40q25 47 65 75.5t86 28.5q15 0 28 -2t26.5 -7.5t20.5 -8.5t21.5 -11.5t16.5 -9.5q4 -2 17 -10t17 -10l14 -7t15.5 -6.5t13.5 -3t16 -1.5
q29 0 51 19t46 57zM495 269l43 -40q-55 -104 -141 -104q-46 0 -119 42q-57 35 -92 35q-22 0 -42 -12.5t-30.5 -25t-28.5 -38.5l-44 41q25 47 65 75.5t86 28.5q15 0 28 -2t26.5 -7.5t20.5 -8.5t21.5 -11.5t16.5 -9.5q6 -3 18.5 -10.5t19 -10.5t16.5 -7.5t19.5 -6.5t19.5 -2
q29 0 50.5 18t46.5 56z" />
    <glyph glyph-name="notequal" unicode="&#x2260;" horiz-adv-x="582" 
d="M424 526l-42 -94h149v-70h-176l-65 -144h241v-70h-268l-54 -120l-56 24l44 96h-146v70h174l63 144h-237v70h265l52 117z" />
    <glyph glyph-name="lessequal" unicode="&#x2264;" horiz-adv-x="582" 
d="M528 101l-472 231v76l472 231v-82l-400 -185v-3l400 -186v-82zM531 -10h-479v71h479v-71z" />
    <glyph glyph-name="greaterequal" unicode="&#x2265;" horiz-adv-x="582" 
d="M58 639l471 -231v-76l-471 -231v82l399 186v2l-399 186v82zM530 -10h-477v71h477v-71z" />
    <glyph glyph-name="lozenge" unicode="&#x25ca;" horiz-adv-x="618" 
d="M565 356l-210 -406h-96l-206 406l210 407h96zM459 354l-129 255q-13 32 -19 58h-3q-10 -33 -21 -58l-128 -250l130 -259q13 -31 18 -55h4q12 42 18 53z" />
    </font>
</defs>
</svg>
