<?xml version="1.0" encoding="utf-8"?>
<!-- Generator: Adobe Illustrator 18.0.0, SVG Export Plug-In . SVG Version: 6.00 Build 0)  -->
<!DOCTYPE svg PUBLIC "-//W3C//DTD SVG 1.1//EN" "http://www.w3.org/Graphics/SVG/1.1/DTD/svg11.dtd">
<svg version="1.1" id="Layer_2" xmlns="http://www.w3.org/2000/svg" xmlns:xlink="http://www.w3.org/1999/xlink" x="0px" y="0px"
	 viewBox="0 0 1280 325" enable-background="new 0 0 1280 325" xml:space="preserve">
<path fill="#213D79" d="M1280,74.4l-11.7-11.7h-53.1l-13.5,13.5l-15.4-15.4v-17h-9.1v8.1l-9.2-9.2l-31.4,31.4v-6h-66.5v-8h-0.1
	c-0.3-1.3-1.7-2.3-3.4-2.3s-3.1,1-3.4,2.3h-0.1v8h-14.4v7.6l-31-31l-36.4,36.4l6.2,6.2v7.8h-5v-6.2h-6.5v6.2h-18.2l-7.1-12.8
	l-7.2,12.8h-21.7v-2.4l5.2-5.2l-15.4-15.4V56.3h-7.9v8.1l-8.7-8.7l-24,24v2.3h-3.2V54.3h-85.9v32.9l-39.6-39.6l-40.8,40.8V69.8h-12
	v-2.8h-8.8v2.8h-44.7v41.2h-640v0.8v159.3V325H1280V74.4z"/>
</svg>
